<svg width="200" height="200" viewBox="0 0 200 200" fill="none" xmlns="http://www.w3.org/2000/svg">
<g clip-path="url(#clip0_303_60)">
<rect width="200" height="200" fill="white" fill-opacity="0.55"/>
<path d="M55.6 169V39.4H106.99C115.75 39.4 122.92 41.17 128.5 44.71C134.14 48.19 138.31 52.66 141.01 58.12C143.77 63.58 145.15 69.22 145.15 75.04C145.15 82.18 143.44 88.24 140.02 93.22C136.66 98.2 132.07 101.56 126.25 103.3V98.8C134.41 100.66 140.59 104.53 144.79 110.41C149.05 116.29 151.18 122.98 151.18 130.48C151.18 138.16 149.71 144.88 146.77 150.64C143.83 156.4 139.45 160.9 133.63 164.14C127.87 167.38 120.73 169 112.21 169H55.6ZM77.56 148.57H109.51C113.29 148.57 116.68 147.82 119.68 146.32C122.68 144.76 125.02 142.6 126.7 139.84C128.44 137.02 129.31 133.69 129.31 129.85C129.31 126.37 128.56 123.25 127.06 120.49C125.56 117.73 123.37 115.54 120.49 113.92C117.61 112.24 114.16 111.4 110.14 111.4H77.56V148.57ZM77.56 91.15H106.72C109.84 91.15 112.63 90.55 115.09 89.35C117.55 88.15 119.5 86.38 120.94 84.04C122.38 81.7 123.1 78.82 123.1 75.4C123.1 70.9 121.66 67.15 118.78 64.15C115.9 61.15 111.88 59.65 106.72 59.65H77.56V91.15Z" fill="black"/>
</g>
<defs>
<clipPath id="clip0_303_60">
<rect width="200" height="200" fill="white"/>
</clipPath>
</defs>
</svg>
