<svg width="1271" height="947" viewBox="0 0 1271 947" fill="none" xmlns="http://www.w3.org/2000/svg">
<g clip-path="url(#clip0_302_2)">
<rect width="1271" height="947" fill="white"/>
<rect x="486" y="164" width="378" height="369" fill="#D9D9D9"/>
<path d="M126.768 170.232C125.791 169.256 124.209 169.256 123.232 170.232L107.322 186.142C106.346 187.118 106.346 188.701 107.322 189.678C108.299 190.654 109.882 190.654 110.858 189.678L125 175.536L139.142 189.678C140.118 190.654 141.701 190.654 142.678 189.678C143.654 188.701 143.654 187.118 142.678 186.142L126.768 170.232ZM127.5 893L127.5 172L122.5 172L122.5 893L127.5 893Z" fill="black"/>
<path d="M1170.77 894.768C1171.74 893.791 1171.74 892.209 1170.77 891.232L1154.86 875.322C1153.88 874.346 1152.3 874.346 1151.32 875.322C1150.35 876.299 1150.35 877.882 1151.32 878.858L1165.46 893L1151.32 907.142C1150.35 908.118 1150.35 909.701 1151.32 910.678C1152.3 911.654 1153.88 911.654 1154.86 910.678L1170.77 894.768ZM125 895.5L1169 895.5V890.5L125 890.5V895.5Z" fill="black"/>
<path d="M116.875 135.196C116.039 135.278 115.389 135.634 114.926 136.263C114.463 136.892 114.232 137.746 114.232 138.824C114.232 139.556 114.335 140.175 114.543 140.679C114.743 141.184 115.023 141.571 115.382 141.84C115.742 142.103 116.15 142.234 116.606 142.234C116.986 142.248 117.318 142.169 117.601 141.996C117.884 141.816 118.13 141.571 118.337 141.26C118.537 140.949 118.714 140.59 118.866 140.182C119.011 139.774 119.135 139.339 119.239 138.876L119.695 136.968C119.902 136.042 120.179 135.192 120.524 134.418C120.87 133.644 121.295 132.974 121.799 132.407C122.304 131.84 122.898 131.401 123.582 131.09C124.267 130.772 125.051 130.61 125.936 130.603C127.235 130.61 128.361 130.942 129.315 131.598C130.262 132.248 130.998 133.188 131.523 134.418C132.041 135.641 132.301 137.117 132.301 138.845C132.301 140.558 132.038 142.051 131.513 143.323C130.988 144.588 130.21 145.576 129.18 146.288C128.144 146.993 126.862 147.362 125.334 147.397L125.334 143.053C126.046 143.005 126.64 142.801 127.117 142.442C127.587 142.075 127.943 141.588 128.185 140.98C128.42 140.365 128.538 139.67 128.538 138.896C128.538 138.136 128.427 137.476 128.206 136.916C127.985 136.35 127.677 135.911 127.283 135.6C126.889 135.289 126.437 135.133 125.925 135.133C125.448 135.133 125.048 135.275 124.723 135.558C124.398 135.835 124.121 136.243 123.893 136.782C123.665 137.314 123.458 137.967 123.271 138.741L122.691 141.053C122.255 142.843 121.575 144.256 120.649 145.293C119.723 146.329 118.475 146.844 116.906 146.837C115.621 146.844 114.498 146.502 113.537 145.811C112.577 145.113 111.827 144.156 111.288 142.939C110.749 141.723 110.479 140.341 110.479 138.793C110.479 137.217 110.749 135.842 111.288 134.667C111.827 133.485 112.577 132.566 113.537 131.909C114.498 131.253 115.61 130.914 116.875 130.893L116.875 135.196ZM137.971 127.667L116.077 127.667L116.077 123.313L118.752 123.313L118.752 123.116C118.323 122.922 117.888 122.643 117.445 122.276C116.996 121.903 116.623 121.419 116.326 120.825C116.022 120.224 115.87 119.477 115.87 118.586C115.87 117.425 116.174 116.353 116.782 115.372C117.383 114.391 118.292 113.606 119.508 113.019C120.718 112.431 122.235 112.138 124.059 112.138C125.835 112.138 127.335 112.425 128.558 112.998C129.775 113.565 130.697 114.339 131.326 115.32C131.948 116.295 132.259 117.387 132.259 118.596C132.259 119.453 132.117 120.182 131.834 120.783C131.551 121.378 131.195 121.865 130.766 122.245C130.331 122.625 129.892 122.915 129.45 123.116L129.45 123.251L137.971 123.251L137.971 127.667ZM124.038 123.344C124.985 123.344 125.811 123.213 126.516 122.95C127.221 122.687 127.77 122.307 128.164 121.81C128.551 121.312 128.745 120.707 128.745 119.996C128.745 119.277 128.548 118.669 128.154 118.171C127.753 117.673 127.2 117.297 126.495 117.041C125.784 116.778 124.965 116.647 124.038 116.647C123.119 116.647 122.311 116.775 121.613 117.031C120.915 117.286 120.369 117.663 119.975 118.161C119.581 118.658 119.384 119.27 119.384 119.996C119.384 120.714 119.574 121.322 119.954 121.82C120.334 122.311 120.873 122.687 121.571 122.95C122.269 123.213 123.092 123.344 124.038 123.344ZM132.301 104.653C132.301 105.669 132.124 106.574 131.772 107.369C131.413 108.164 130.884 108.793 130.186 109.256C129.481 109.712 128.603 109.94 127.553 109.94C126.668 109.94 125.925 109.778 125.324 109.453C124.723 109.128 124.239 108.686 123.873 108.126C123.506 107.566 123.23 106.93 123.043 106.218C122.857 105.5 122.725 104.746 122.649 103.959C122.553 103.032 122.463 102.286 122.38 101.719C122.29 101.153 122.159 100.741 121.986 100.486C121.813 100.23 121.557 100.102 121.219 100.102L121.157 100.102C120.5 100.102 119.992 100.31 119.633 100.724C119.273 101.132 119.094 101.712 119.094 102.466C119.094 103.261 119.27 103.893 119.622 104.363C119.968 104.833 120.403 105.144 120.929 105.296L120.597 109.38C119.629 109.173 118.793 108.765 118.088 108.157C117.376 107.549 116.83 106.764 116.45 105.804C116.063 104.836 115.87 103.717 115.87 102.445C115.87 101.56 115.973 100.714 116.181 99.9052C116.388 99.0897 116.709 98.3675 117.145 97.7386C117.58 97.1028 118.14 96.6017 118.824 96.2355C119.501 95.8692 120.313 95.686 121.26 95.686L132 95.686L132 99.8741L129.792 99.8741L129.792 99.9985C130.29 100.254 130.728 100.596 131.108 101.025C131.482 101.453 131.775 101.968 131.99 102.569C132.197 103.171 132.301 103.865 132.301 104.653ZM129.253 103.388C129.253 102.739 129.125 102.165 128.869 101.668C128.607 101.17 128.254 100.779 127.812 100.496C127.37 100.213 126.869 100.071 126.309 100.071L124.619 100.071C124.709 100.209 124.792 100.399 124.868 100.641C124.937 100.876 125.003 101.142 125.065 101.439C125.12 101.737 125.172 102.034 125.22 102.331C125.262 102.628 125.3 102.898 125.334 103.14C125.41 103.658 125.531 104.111 125.697 104.498C125.863 104.885 126.088 105.185 126.371 105.399C126.647 105.614 126.993 105.721 127.408 105.721C128.009 105.721 128.468 105.503 128.786 105.068C129.097 104.625 129.253 104.066 129.253 103.388ZM132.311 85.0655C132.311 86.6965 131.965 88.0994 131.274 89.2743C130.576 90.4423 129.609 91.3407 128.372 91.9696C127.135 92.5916 125.711 92.9026 124.101 92.9026C122.47 92.9026 121.039 92.5882 119.809 91.9593C118.572 91.3234 117.608 90.4215 116.917 89.2536C116.219 88.0856 115.87 86.6965 115.87 85.0862C115.87 83.6971 116.122 82.4808 116.626 81.4372C117.131 80.3936 117.839 79.5678 118.752 78.9596C119.664 78.3514 120.735 78.0162 121.965 77.954L121.965 82.1214C121.17 82.2389 120.531 82.5499 120.047 83.0544C119.557 83.552 119.311 84.2051 119.311 85.0137C119.311 85.6979 119.498 86.2957 119.871 86.8071C120.237 87.3116 120.773 87.7055 121.478 87.9889C122.183 88.2722 123.036 88.4139 124.038 88.4139C125.054 88.4139 125.918 88.2757 126.63 87.9992C127.342 87.7159 127.884 87.3185 128.258 86.8071C128.631 86.2957 128.817 85.6979 128.817 85.0137C128.817 84.5092 128.714 84.0565 128.506 83.6556C128.299 83.2479 127.999 82.9127 127.605 82.6501C127.204 82.3806 126.723 82.2043 126.164 82.1214L126.164 77.954C127.38 78.0232 128.451 78.3549 129.377 78.9492C130.296 79.5367 131.015 80.3487 131.534 81.3854C132.052 82.422 132.311 83.6487 132.311 85.0655ZM132.311 67.87C132.311 69.5079 131.979 70.9178 131.316 72.0995C130.645 73.2744 129.699 74.1798 128.475 74.8156C127.245 75.4514 125.79 75.7693 124.111 75.7693C122.473 75.7693 121.036 75.4514 119.799 74.8156C118.561 74.1798 117.597 73.2848 116.906 72.1306C116.215 70.9696 115.87 69.6081 115.87 68.0462C115.87 66.9957 116.039 66.0178 116.378 65.1125C116.709 64.2002 117.21 63.4055 117.881 62.7282C118.551 62.044 119.394 61.5118 120.41 61.1317C121.419 60.7516 122.601 60.5616 123.956 60.5616L125.168 60.5616L125.168 74.007L122.432 74.007L122.432 64.7186C121.796 64.7186 121.233 64.8568 120.742 65.1332C120.251 65.4097 119.868 65.7932 119.591 66.2839C119.308 66.7677 119.166 67.3309 119.166 67.9737C119.166 68.644 119.322 69.2384 119.633 69.7567C119.937 70.2681 120.348 70.669 120.866 70.9592C121.378 71.2495 121.948 71.3981 122.577 71.405L125.179 71.405C125.967 71.405 126.647 71.2598 127.221 70.9696C127.795 70.6724 128.237 70.2543 128.548 69.7152C128.859 69.1762 129.014 68.5369 129.014 67.7974C129.014 67.3067 128.945 66.8575 128.807 66.4498C128.669 66.042 128.462 65.693 128.185 65.4027C127.909 65.1125 127.57 64.8913 127.169 64.7393L127.439 60.6549C128.42 60.8622 129.277 61.2872 130.01 61.93C130.735 62.5658 131.302 63.3882 131.71 64.3972C132.111 65.3993 132.311 66.5569 132.311 67.87Z" fill="black"/>
<path d="M1191.27 885.47V881.769H1208.71V885.47H1202.21V903H1197.77V885.47H1191.27ZM1211.5 903V887.077H1215.91V903H1211.5ZM1213.72 885.024C1213.06 885.024 1212.5 884.807 1212.03 884.371C1211.56 883.929 1211.33 883.4 1211.33 882.785C1211.33 882.177 1211.56 881.655 1212.03 881.22C1212.5 880.778 1213.06 880.556 1213.72 880.556C1214.37 880.556 1214.93 880.778 1215.4 881.22C1215.87 881.655 1216.1 882.177 1216.1 882.785C1216.1 883.4 1215.87 883.929 1215.4 884.371C1214.93 884.807 1214.37 885.024 1213.72 885.024ZM1219.45 903V887.077H1223.66V889.886H1223.85C1224.18 888.953 1224.73 888.217 1225.51 887.678C1226.28 887.139 1227.21 886.87 1228.28 886.87C1229.38 886.87 1230.31 887.143 1231.07 887.689C1231.84 888.228 1232.35 888.96 1232.61 889.886H1232.77C1233.1 888.974 1233.69 888.245 1234.54 887.699C1235.39 887.146 1236.4 886.87 1237.57 886.87C1239.06 886.87 1240.26 887.343 1241.19 888.29C1242.12 889.23 1242.59 890.564 1242.59 892.291V903H1238.18V893.162C1238.18 892.278 1237.95 891.614 1237.48 891.172C1237.01 890.729 1236.42 890.508 1235.72 890.508C1234.92 890.508 1234.29 890.764 1233.84 891.275C1233.39 891.78 1233.17 892.447 1233.17 893.276V903H1228.89V893.069C1228.89 892.288 1228.66 891.666 1228.21 891.203C1227.77 890.74 1227.19 890.508 1226.46 890.508C1225.97 890.508 1225.53 890.633 1225.13 890.882C1224.75 891.123 1224.44 891.465 1224.21 891.908C1223.98 892.343 1223.87 892.855 1223.87 893.442V903H1219.45ZM1253.34 903.311C1251.7 903.311 1250.29 902.979 1249.11 902.316C1247.93 901.645 1247.03 900.699 1246.39 899.475C1245.75 898.245 1245.44 896.79 1245.44 895.111C1245.44 893.473 1245.75 892.036 1246.39 890.799C1247.03 889.561 1247.92 888.597 1249.07 887.906C1250.24 887.215 1251.6 886.87 1253.16 886.87C1254.21 886.87 1255.19 887.039 1256.09 887.378C1257.01 887.709 1257.8 888.21 1258.48 888.881C1259.16 889.551 1259.69 890.394 1260.07 891.41C1260.45 892.419 1260.64 893.601 1260.64 894.956V896.168H1247.2V893.432H1256.49C1256.49 892.796 1256.35 892.233 1256.07 891.742C1255.8 891.251 1255.41 890.868 1254.92 890.591C1254.44 890.308 1253.87 890.166 1253.23 890.166C1252.56 890.166 1251.97 890.322 1251.45 890.633C1250.94 890.937 1250.54 891.348 1250.25 891.866C1249.96 892.378 1249.81 892.948 1249.8 893.577V896.179C1249.8 896.967 1249.95 897.647 1250.24 898.221C1250.53 898.795 1250.95 899.237 1251.49 899.548C1252.03 899.859 1252.67 900.014 1253.41 900.014C1253.9 900.014 1254.35 899.945 1254.76 899.807C1255.16 899.669 1255.51 899.462 1255.8 899.185C1256.09 898.909 1256.31 898.57 1256.47 898.169L1260.55 898.439C1260.34 899.42 1259.92 900.277 1259.28 901.01C1258.64 901.735 1257.82 902.302 1256.81 902.71C1255.81 903.111 1254.65 903.311 1253.34 903.311Z" fill="black"/>
<path d="M9.48883 717.05V714.769H25.4118V717.05H18.7358L18.7358 736H16.1649L16.1649 717.05H9.48883ZM33.236 736L27.4307 714.769H30.0431L34.48 732.061H34.6873L39.2071 714.769H42.1098L46.6296 732.061H46.8369L51.2738 714.769H53.8862L48.0809 736H45.4271L40.7414 719.082H40.5755L35.8898 736H33.236ZM55.9284 717.05V714.769H71.8514V717.05H65.1753V736H62.6044L62.6044 717.05H55.9284ZM75.8192 736V714.769H82.9928C84.6515 714.769 86.013 715.053 87.0773 715.619C88.1416 716.179 88.9294 716.95 89.4408 717.931C89.9522 718.912 90.2079 720.029 90.2079 721.28C90.2079 722.53 89.9522 723.64 89.4408 724.607C88.9294 725.575 88.145 726.335 87.0876 726.888C86.0302 727.434 84.6791 727.707 83.0343 727.707H77.229V725.385H82.9514C84.0848 725.385 84.997 725.219 85.6881 724.887C86.3861 724.555 86.8907 724.085 87.2017 723.477C87.5196 722.862 87.6785 722.13 87.6785 721.28C87.6785 720.429 87.5196 719.687 87.2017 719.051C86.8837 718.415 86.3758 717.924 85.6778 717.579C84.9798 717.226 84.0571 717.05 82.9099 717.05H78.3901V736H75.8192ZM85.8125 726.463L91.0373 736H88.0517L82.9099 726.463H85.8125Z" fill="black"/>
<path d="M14.8735 343.769H17.942L25.1571 361.392H25.4059L32.621 343.769H35.6895V365H33.2845V348.87H33.0772L26.4426 365H24.1205L17.4859 348.87H17.2785L17.2785 365H14.8735L14.8735 343.769ZM40.8443 365V343.769H53.6573V346.05H43.4152V353.224H52.9939V355.504H43.4152V362.719H53.8232V365H40.8443ZM57.1301 346.05V343.769H73.0532V346.05H66.3771V365H63.8062L63.8062 346.05H57.1301ZM75.4116 365H72.7162L80.5119 343.769H83.1657L90.9614 365H88.2661L81.9217 347.128H81.7559L75.4116 365ZM76.4067 356.707H87.2709V358.987H76.4067V356.707Z" fill="black"/>
<path d="M560.748 14.2727C560.748 16.1761 560.387 17.7955 559.666 19.1307C558.95 20.4659 557.973 21.4858 556.734 22.1903C555.501 22.8892 554.115 23.2386 552.575 23.2386C551.024 23.2386 549.632 22.8864 548.399 22.1818C547.166 21.4773 546.191 20.4574 545.475 19.1222C544.76 17.7869 544.402 16.1705 544.402 14.2727C544.402 12.3693 544.76 10.75 545.475 9.41477C546.191 8.07955 547.166 7.0625 548.399 6.36364C549.632 5.65909 551.024 5.30682 552.575 5.30682C554.115 5.30682 555.501 5.65909 556.734 6.36364C557.973 7.0625 558.95 8.07955 559.666 9.41477C560.387 10.75 560.748 12.3693 560.748 14.2727ZM557.007 14.2727C557.007 13.0398 556.822 12 556.453 11.1534C556.089 10.3068 555.575 9.66477 554.91 9.22727C554.245 8.78977 553.467 8.57102 552.575 8.57102C551.683 8.57102 550.904 8.78977 550.24 9.22727C549.575 9.66477 549.058 10.3068 548.689 11.1534C548.325 12 548.143 13.0398 548.143 14.2727C548.143 15.5057 548.325 16.5455 548.689 17.392C549.058 18.2386 549.575 18.8807 550.24 19.3182C550.904 19.7557 551.683 19.9744 552.575 19.9744C553.467 19.9744 554.245 19.7557 554.91 19.3182C555.575 18.8807 556.089 18.2386 556.453 17.392C556.822 16.5455 557.007 15.5057 557.007 14.2727ZM567.044 15.4318V23H563.414V9.90909H566.874V12.2188H567.027C567.317 11.4574 567.803 10.8551 568.485 10.4119C569.167 9.96307 569.993 9.73864 570.965 9.73864C571.874 9.73864 572.667 9.9375 573.343 10.3352C574.019 10.733 574.544 11.3011 574.919 12.0398C575.294 12.7727 575.482 13.6477 575.482 14.6648V23H571.851V15.3125C571.857 14.5114 571.652 13.8864 571.238 13.4375C570.823 12.983 570.252 12.7557 569.525 12.7557C569.036 12.7557 568.604 12.8608 568.229 13.071C567.86 13.2812 567.57 13.5881 567.36 13.9915C567.155 14.3892 567.05 14.8693 567.044 15.4318ZM584.309 23.2557C582.963 23.2557 581.804 22.983 580.832 22.4375C579.866 21.8864 579.122 21.108 578.599 20.1023C578.076 19.0909 577.815 17.8949 577.815 16.5142C577.815 15.1676 578.076 13.9858 578.599 12.9688C579.122 11.9517 579.858 11.1591 580.806 10.5909C581.761 10.0227 582.88 9.73864 584.164 9.73864C585.028 9.73864 585.832 9.87784 586.576 10.1563C587.326 10.429 587.98 10.8409 588.537 11.392C589.099 11.9432 589.537 12.6364 589.849 13.4716C590.162 14.3011 590.318 15.2727 590.318 16.3864V17.3835H579.264V15.1335L586.9 15.1335C586.9 14.6108 586.787 14.1477 586.559 13.7443C586.332 13.3409 586.017 13.0256 585.613 12.7983C585.216 12.5653 584.752 12.4489 584.224 12.4489C583.673 12.4489 583.184 12.5767 582.758 12.8324C582.338 13.0824 582.008 13.4205 581.77 13.8466C581.531 14.267 581.409 14.7358 581.403 15.2528V17.392C581.403 18.0398 581.522 18.5994 581.761 19.071C582.005 19.5426 582.349 19.9063 582.792 20.1619C583.235 20.4176 583.761 20.5455 584.369 20.5455C584.772 20.5455 585.142 20.4886 585.477 20.375C585.812 20.2614 586.099 20.0909 586.338 19.8636C586.576 19.6364 586.758 19.358 586.883 19.0284L590.241 19.25C590.071 20.0568 589.721 20.7614 589.193 21.3636C588.67 21.9602 587.994 22.4261 587.164 22.7614C586.341 23.0909 585.389 23.2557 584.309 23.2557ZM598.242 27.9091V9.90909H601.821V12.108H601.983C602.142 11.7557 602.373 11.3977 602.674 11.0341C602.98 10.6648 603.378 10.358 603.867 10.1136C604.361 9.86364 604.975 9.73864 605.708 9.73864C606.662 9.73864 607.543 9.98864 608.35 10.4886C609.157 10.983 609.801 11.7301 610.284 12.7301C610.767 13.7244 611.009 14.9716 611.009 16.4716C611.009 17.9318 610.773 19.1648 610.301 20.1705C609.836 21.1705 609.199 21.929 608.392 22.446C607.591 22.9574 606.694 23.2131 605.699 23.2131C604.995 23.2131 604.395 23.0966 603.901 22.8636C603.412 22.6307 603.012 22.3381 602.699 21.9858C602.387 21.6278 602.148 21.267 601.983 20.9034H601.873V27.9091L598.242 27.9091ZM601.796 16.4545C601.796 17.233 601.904 17.9119 602.12 18.4915C602.336 19.071 602.648 19.5227 603.057 19.8466C603.466 20.1648 603.963 20.3239 604.549 20.3239C605.14 20.3239 605.64 20.1619 606.049 19.8381C606.458 19.5085 606.767 19.054 606.978 18.4744C607.194 17.8892 607.301 17.2159 607.301 16.4545C607.301 15.6989 607.196 15.0341 606.986 14.4602C606.776 13.8864 606.466 13.4375 606.057 13.1136C605.648 12.7898 605.145 12.6278 604.549 12.6278C603.958 12.6278 603.458 12.7841 603.049 13.0966C602.645 13.4091 602.336 13.8523 602.12 14.4261C601.904 15 601.796 15.6761 601.796 16.4545ZM617.162 23.2472C616.327 23.2472 615.583 23.1023 614.929 22.8125C614.276 22.517 613.759 22.0824 613.378 21.5085C613.003 20.929 612.816 20.2074 612.816 19.3438C612.816 18.6165 612.949 18.0057 613.216 17.5114C613.483 17.017 613.847 16.6193 614.307 16.3182C614.767 16.017 615.29 15.7898 615.875 15.6364C616.466 15.483 617.086 15.375 617.733 15.3125C618.495 15.233 619.108 15.1591 619.574 15.0909C620.04 15.017 620.378 14.9091 620.588 14.767C620.799 14.625 620.904 14.4148 620.904 14.1364V14.0852C620.904 13.5455 620.733 13.1278 620.392 12.8324C620.057 12.5369 619.58 12.3892 618.961 12.3892C618.307 12.3892 617.787 12.5341 617.401 12.8239C617.015 13.108 616.759 13.4659 616.634 13.8977L613.276 13.625C613.446 12.8295 613.782 12.142 614.282 11.5625C614.782 10.9773 615.426 10.5284 616.216 10.2159C617.012 9.89773 617.932 9.73864 618.978 9.73864C619.705 9.73864 620.401 9.82386 621.066 9.99432C621.736 10.1648 622.33 10.429 622.847 10.7869C623.37 11.1449 623.782 11.6051 624.083 12.1676C624.384 12.7244 624.534 13.392 624.534 14.1705V23L621.091 23V21.1847H620.989C620.779 21.5938 620.498 21.9545 620.145 22.267C619.793 22.5739 619.37 22.8153 618.875 22.9915C618.381 23.1619 617.81 23.2472 617.162 23.2472ZM618.202 20.7415C618.736 20.7415 619.208 20.6364 619.617 20.4261C620.026 20.2102 620.347 19.9205 620.58 19.5568C620.813 19.1932 620.929 18.7812 620.929 18.321V16.9318C620.816 17.0057 620.659 17.0739 620.461 17.1364C620.267 17.1932 620.049 17.2472 619.804 17.2983C619.56 17.3437 619.316 17.3864 619.071 17.4261C618.827 17.4602 618.605 17.4915 618.407 17.5199C617.98 17.5824 617.608 17.6818 617.29 17.8182C616.972 17.9545 616.725 18.1392 616.549 18.3722C616.373 18.5994 616.284 18.8835 616.284 19.2244C616.284 19.7188 616.463 20.0966 616.821 20.358C617.185 20.6136 617.645 20.7415 618.202 20.7415ZM627.351 23V9.90909L630.871 9.90909V12.1932H631.007C631.246 11.3807 631.647 10.767 632.209 10.3523C632.772 9.93182 633.419 9.72159 634.152 9.72159C634.334 9.72159 634.53 9.73295 634.74 9.75568C634.951 9.77841 635.135 9.80966 635.294 9.84943V13.071C635.124 13.0199 634.888 12.9744 634.587 12.9347C634.286 12.8949 634.01 12.875 633.76 12.875C633.226 12.875 632.749 12.9915 632.328 13.2244C631.914 13.4517 631.584 13.7699 631.34 14.179C631.101 14.5881 630.982 15.0597 630.982 15.5938V23H627.351ZM644.791 9.90909V12.6364L636.907 12.6364V9.90909L644.791 9.90909ZM638.697 6.77273L642.328 6.77273V18.9773C642.328 19.3125 642.379 19.5739 642.481 19.7614C642.583 19.9432 642.725 20.071 642.907 20.1449C643.095 20.2187 643.311 20.2557 643.555 20.2557C643.725 20.2557 643.896 20.2415 644.066 20.2131C644.237 20.179 644.368 20.1534 644.458 20.1364L645.029 22.8381C644.848 22.8949 644.592 22.9602 644.262 23.0341C643.933 23.1136 643.532 23.1619 643.061 23.179C642.186 23.2131 641.419 23.0966 640.76 22.8295C640.106 22.5625 639.598 22.1477 639.234 21.5852C638.87 21.0227 638.691 20.3125 638.697 19.4545V6.77273ZM647.156 23V9.90909L650.787 9.90909V23H647.156ZM648.98 8.22159C648.44 8.22159 647.977 8.04261 647.591 7.68466C647.21 7.32102 647.02 6.88636 647.02 6.38068C647.02 5.88068 647.21 5.4517 647.591 5.09375C647.977 4.73011 648.44 4.54829 648.98 4.54829C649.52 4.54829 649.98 4.73011 650.36 5.09375C650.747 5.4517 650.94 5.88068 650.94 6.38068C650.94 6.88636 650.747 7.32102 650.36 7.68466C649.98 8.04261 649.52 8.22159 648.98 8.22159ZM660.658 9.90909V12.6364H652.775V9.90909H660.658ZM654.564 6.77273H658.195V18.9773C658.195 19.3125 658.246 19.5739 658.348 19.7614C658.451 19.9432 658.593 20.071 658.775 20.1449C658.962 20.2187 659.178 20.2557 659.422 20.2557C659.593 20.2557 659.763 20.2415 659.934 20.2131C660.104 20.179 660.235 20.1534 660.326 20.1364L660.897 22.8381C660.715 22.8949 660.459 22.9602 660.13 23.0341C659.8 23.1136 659.4 23.1619 658.928 23.179C658.053 23.2131 657.286 23.0966 656.627 22.8295C655.973 22.5625 655.465 22.1477 655.101 21.5852C654.738 21.0227 654.559 20.3125 654.564 19.4545V6.77273ZM663.023 23V9.90909H666.654V23H663.023ZM664.847 8.22159C664.307 8.22159 663.844 8.04261 663.458 7.68466C663.077 7.32102 662.887 6.88636 662.887 6.38068C662.887 5.88068 663.077 5.4517 663.458 5.09375C663.844 4.73011 664.307 4.54829 664.847 4.54829C665.387 4.54829 665.847 4.73011 666.228 5.09375C666.614 5.4517 666.807 5.88068 666.807 6.38068C666.807 6.88636 666.614 7.32102 666.228 7.68466C665.847 8.04261 665.387 8.22159 664.847 8.22159ZM675.477 23.2557C674.153 23.2557 673.008 22.9744 672.042 22.4119C671.082 21.8437 670.341 21.054 669.818 20.0426C669.295 19.0256 669.034 17.8466 669.034 16.5057C669.034 15.1534 669.295 13.9716 669.818 12.9602C670.341 11.9432 671.082 11.1534 672.042 10.5909C673.008 10.0227 674.153 9.73864 675.477 9.73864C676.801 9.73864 677.943 10.0227 678.903 10.5909C679.869 11.1534 680.613 11.9432 681.136 12.9602C681.659 13.9716 681.92 15.1534 681.92 16.5057C681.92 17.8466 681.659 19.0256 681.136 20.0426C680.613 21.054 679.869 21.8437 678.903 22.4119C677.943 22.9744 676.801 23.2557 675.477 23.2557ZM675.494 20.4432C676.096 20.4432 676.599 20.2727 677.002 19.9318C677.406 19.5852 677.71 19.1136 677.914 18.517C678.125 17.9205 678.23 17.2415 678.23 16.4801C678.23 15.7188 678.125 15.0398 677.914 14.4432C677.71 13.8466 677.406 13.375 677.002 13.0284C676.599 12.6818 676.096 12.5085 675.494 12.5085C674.886 12.5085 674.375 12.6818 673.96 13.0284C673.551 13.375 673.241 13.8466 673.031 14.4432C672.826 15.0398 672.724 15.7188 672.724 16.4801C672.724 17.2415 672.826 17.9205 673.031 18.517C673.241 19.1136 673.551 19.5852 673.96 19.9318C674.375 20.2727 674.886 20.4432 675.494 20.4432ZM687.912 15.4318V23H684.281V9.90909H687.741V12.2188H687.895C688.184 11.4574 688.67 10.8551 689.352 10.4119C690.034 9.96307 690.86 9.73864 691.832 9.73864C692.741 9.73864 693.534 9.9375 694.21 10.3352C694.886 10.733 695.412 11.3011 695.787 12.0398C696.162 12.7727 696.349 13.6477 696.349 14.6648V23H692.718V15.3125C692.724 14.5114 692.52 13.8864 692.105 13.4375C691.69 12.983 691.119 12.7557 690.392 12.7557C689.903 12.7557 689.471 12.8608 689.096 13.071C688.727 13.2812 688.437 13.5881 688.227 13.9915C688.022 14.3892 687.917 14.8693 687.912 15.4318ZM705.176 23.2557C703.83 23.2557 702.671 22.983 701.699 22.4375C700.733 21.8864 699.989 21.108 699.466 20.1023C698.944 19.0909 698.682 17.8949 698.682 16.5142C698.682 15.1676 698.944 13.9858 699.466 12.9688C699.989 11.9517 700.725 11.1591 701.674 10.5909C702.628 10.0227 703.748 9.73864 705.032 9.73864C705.895 9.73864 706.699 9.87784 707.444 10.1563C708.194 10.429 708.847 10.8409 709.404 11.392C709.966 11.9432 710.404 12.6364 710.716 13.4716C711.029 14.3011 711.185 15.2727 711.185 16.3864V17.3835H700.131V15.1335L707.767 15.1335C707.767 14.6108 707.654 14.1477 707.426 13.7443C707.199 13.3409 706.884 13.0256 706.48 12.7983C706.083 12.5653 705.62 12.4489 705.091 12.4489C704.54 12.4489 704.051 12.5767 703.625 12.8324C703.205 13.0824 702.875 13.4205 702.637 13.8466C702.398 14.267 702.276 14.7358 702.27 15.2528V17.392C702.27 18.0398 702.39 18.5994 702.628 19.071C702.873 19.5426 703.216 19.9063 703.659 20.1619C704.103 20.4176 704.628 20.5455 705.236 20.5455C705.64 20.5455 706.009 20.4886 706.344 20.375C706.679 20.2614 706.966 20.0909 707.205 19.8636C707.444 19.6364 707.625 19.358 707.75 19.0284L711.108 19.25C710.938 20.0568 710.588 20.7614 710.06 21.3636C709.537 21.9602 708.861 22.4261 708.032 22.7614C707.208 23.0909 706.256 23.2557 705.176 23.2557ZM718.378 23.2131C717.384 23.2131 716.483 22.9574 715.676 22.446C714.875 21.929 714.239 21.1705 713.767 20.1705C713.301 19.1648 713.069 17.9318 713.069 16.4716C713.069 14.9716 713.31 13.7244 713.793 12.7301C714.276 11.7301 714.918 10.983 715.719 10.4886C716.526 9.98864 717.409 9.73864 718.37 9.73864C719.103 9.73864 719.713 9.86364 720.202 10.1136C720.696 10.358 721.094 10.6648 721.395 11.0341C721.702 11.3977 721.935 11.7557 722.094 12.108H722.205V5.54545L725.827 5.54545V23H722.248V20.9034H722.094C721.924 21.267 721.682 21.6278 721.37 21.9858C721.063 22.3381 720.662 22.6307 720.168 22.8636C719.679 23.0966 719.083 23.2131 718.378 23.2131ZM719.529 20.3239C720.114 20.3239 720.608 20.1648 721.012 19.8466C721.421 19.5227 721.733 19.071 721.949 18.4915C722.171 17.9119 722.282 17.233 722.282 16.4545C722.282 15.6761 722.174 15 721.958 14.4261C721.742 13.8523 721.429 13.4091 721.02 13.0966C720.611 12.7841 720.114 12.6278 719.529 12.6278C718.932 12.6278 718.429 12.7898 718.02 13.1136C717.611 13.4375 717.301 13.8864 717.091 14.4602C716.881 15.0341 716.776 15.6989 716.776 16.4545C716.776 17.2159 716.881 17.8892 717.091 18.4744C717.307 19.054 717.617 19.5085 718.02 19.8381C718.429 20.1619 718.932 20.3239 719.529 20.3239ZM740.282 23.2557C738.941 23.2557 737.787 22.9716 736.821 22.4034C735.861 21.8295 735.123 21.0341 734.605 20.017C734.094 19 733.838 17.8295 733.838 16.5057C733.838 15.1648 734.097 13.9886 734.614 12.9773C735.137 11.9602 735.878 11.1676 736.838 10.5994C737.799 10.0256 738.941 9.73864 740.265 9.73864C741.407 9.73864 742.407 9.94602 743.265 10.3608C744.123 10.7756 744.801 11.358 745.301 12.108C745.801 12.858 746.077 13.7386 746.128 14.75H742.702C742.605 14.0966 742.35 13.571 741.935 13.1733C741.526 12.7699 740.989 12.5682 740.324 12.5682C739.762 12.5682 739.27 12.7216 738.85 13.0284C738.435 13.3295 738.111 13.7699 737.878 14.3494C737.645 14.929 737.529 15.6307 737.529 16.4545C737.529 17.2898 737.642 18 737.87 18.5852C738.103 19.1705 738.429 19.6165 738.85 19.9233C739.27 20.2301 739.762 20.3835 740.324 20.3835C740.739 20.3835 741.111 20.2983 741.441 20.1278C741.776 19.9574 742.051 19.7102 742.267 19.3864C742.489 19.0568 742.634 18.6619 742.702 18.2017H746.128C746.071 19.2017 745.799 20.0824 745.31 20.8438C744.827 21.5994 744.159 22.1903 743.307 22.6165C742.455 23.0426 741.446 23.2557 740.282 23.2557ZM752.083 15.4318V23H748.453V5.54545H751.981V12.2188H752.135C752.43 11.446 752.907 10.8409 753.566 10.4034C754.225 9.96023 755.052 9.73864 756.047 9.73864C756.956 9.73864 757.748 9.9375 758.424 10.3352C759.106 10.7273 759.635 11.2926 760.01 12.0313C760.39 12.7642 760.578 13.642 760.572 14.6648V23H756.941V15.3125C756.947 14.5057 756.743 13.8778 756.328 13.429C755.919 12.9801 755.345 12.7557 754.606 12.7557C754.112 12.7557 753.674 12.8608 753.294 13.071C752.919 13.2812 752.623 13.5881 752.407 13.9915C752.197 14.3892 752.089 14.8693 752.083 15.4318ZM771.824 17.4261V9.90909L775.455 9.90909V23H771.969V20.6222H771.833C771.537 21.3892 771.046 22.0057 770.358 22.4716C769.676 22.9375 768.844 23.1705 767.861 23.1705C766.986 23.1705 766.216 22.9716 765.551 22.5739C764.887 22.1761 764.367 21.6108 763.992 20.8778C763.623 20.1449 763.435 19.267 763.429 18.2443V9.90909H767.06V17.5966C767.066 18.3693 767.273 18.9801 767.682 19.429C768.091 19.8778 768.64 20.1023 769.327 20.1023C769.765 20.1023 770.174 20.0028 770.554 19.804C770.935 19.5994 771.242 19.2983 771.475 18.9006C771.713 18.5028 771.83 18.0114 771.824 17.4261ZM781.99 15.4318V23H778.359V9.90909H781.819V12.2188H781.973C782.262 11.4574 782.748 10.8551 783.43 10.4119C784.112 9.96307 784.939 9.73864 785.91 9.73864C786.819 9.73864 787.612 9.9375 788.288 10.3352C788.964 10.733 789.49 11.3011 789.865 12.0398C790.24 12.7727 790.427 13.6477 790.427 14.6648V23H786.797V15.3125C786.802 14.5114 786.598 13.8864 786.183 13.4375C785.768 12.983 785.197 12.7557 784.47 12.7557C783.981 12.7557 783.549 12.8608 783.174 13.071C782.805 13.2812 782.515 13.5881 782.305 13.9915C782.1 14.3892 781.995 14.8693 781.99 15.4318ZM796.578 19.233L796.587 14.8778H797.115L801.309 9.90909L805.476 9.90909L799.843 16.4886L798.982 16.4886L796.578 19.233ZM793.289 23V5.54545H796.919V23H793.289ZM801.471 23L797.618 17.2983L800.039 14.733L805.723 23H801.471ZM393.815 44.6364C393.815 42.4886 394.093 40.5142 394.65 38.7131C395.212 36.9062 396.013 35.2443 397.053 33.7273H398.826C398.417 34.2898 398.033 34.983 397.675 35.8068C397.323 36.625 397.013 37.5256 396.746 38.5085C396.479 39.4858 396.269 40.4972 396.116 41.5426C395.968 42.5881 395.894 43.6193 395.894 44.6364C395.894 45.9886 396.025 47.3608 396.286 48.7528C396.548 50.1449 396.9 51.4375 397.343 52.6307C397.786 53.8239 398.281 54.7955 398.826 55.5455H397.053C396.013 54.0284 395.212 52.3693 394.65 50.5682C394.093 48.7614 393.815 46.7841 393.815 44.6364ZM404.76 52L400.771 38.9091H402.885L405.714 48.9318H405.851L408.646 38.9091H410.794L413.555 48.8977H413.692L416.521 38.9091H418.635L414.646 52L412.669 52L409.805 41.9432H409.601L406.737 52H404.76ZM421.294 52V38.9091H423.305V52H421.294ZM422.317 36.7273C421.925 36.7273 421.587 36.5938 421.303 36.3267C421.024 36.0597 420.885 35.7386 420.885 35.3636C420.885 34.9886 421.024 34.6676 421.303 34.4006C421.587 34.1335 421.925 34 422.317 34C422.709 34 423.044 34.1335 423.322 34.4006C423.607 34.6676 423.749 34.9886 423.749 35.3636C423.749 35.7386 423.607 36.0597 423.322 36.3267C423.044 36.5938 422.709 36.7273 422.317 36.7273ZM432.683 38.9091V40.6136H425.898V38.9091H432.683ZM427.876 35.7727H429.887V48.25C429.887 48.8182 429.969 49.2443 430.134 49.5284C430.305 49.8068 430.521 49.9943 430.782 50.0909C431.049 50.1818 431.33 50.2273 431.626 50.2273C431.847 50.2273 432.029 50.2159 432.171 50.1932C432.313 50.1648 432.427 50.142 432.512 50.125L432.921 51.9318C432.785 51.983 432.594 52.0341 432.35 52.0852C432.106 52.142 431.796 52.1705 431.421 52.1705C430.853 52.1705 430.296 52.0483 429.751 51.804C429.211 51.5597 428.762 51.1875 428.404 50.6875C428.052 50.1875 427.876 49.5568 427.876 48.7955V35.7727ZM438.001 44.125V52H435.989V34.5455H438.001V40.9545H438.171C438.478 40.2784 438.938 39.7415 439.552 39.3438C440.171 38.9403 440.995 38.7386 442.023 38.7386C442.915 38.7386 443.697 38.9176 444.367 39.2756C445.038 39.6278 445.558 40.1705 445.927 40.9034C446.302 41.6307 446.489 42.5568 446.489 43.6818V52H444.478V43.8182C444.478 42.7784 444.208 41.9744 443.668 41.4063C443.134 40.8324 442.393 40.5455 441.444 40.5455C440.785 40.5455 440.194 40.6847 439.671 40.9631C439.154 41.2415 438.745 41.6477 438.444 42.1818C438.148 42.7159 438.001 43.3636 438.001 44.125ZM458.93 44.125V52L456.919 52V38.9091L458.862 38.9091V40.9545H459.033C459.339 40.2898 459.805 39.7557 460.43 39.3523C461.055 38.9432 461.862 38.7386 462.851 38.7386C463.737 38.7386 464.513 38.9205 465.178 39.2841C465.842 39.642 466.359 40.1875 466.729 40.9205C467.098 41.6477 467.283 42.5682 467.283 43.6818V52H465.271V43.8182C465.271 42.7898 465.004 41.9886 464.47 41.4148C463.936 40.8352 463.203 40.5455 462.271 40.5455C461.629 40.5455 461.055 40.6847 460.55 40.9631C460.05 41.2415 459.655 41.6477 459.365 42.1818C459.075 42.7159 458.93 43.3636 458.93 44.125ZM476.276 52.2727C475.094 52.2727 474.058 51.9915 473.165 51.429C472.279 50.8665 471.586 50.0795 471.086 49.0682C470.592 48.0568 470.344 46.875 470.344 45.5227C470.344 44.1591 470.592 42.9687 471.086 41.9517C471.586 40.9347 472.279 40.1449 473.165 39.5824C474.058 39.0199 475.094 38.7386 476.276 38.7386C477.458 38.7386 478.492 39.0199 479.379 39.5824C480.271 40.1449 480.964 40.9347 481.458 41.9517C481.958 42.9687 482.208 44.1591 482.208 45.5227C482.208 46.875 481.958 48.0568 481.458 49.0682C480.964 50.0795 480.271 50.8665 479.379 51.429C478.492 51.9915 477.458 52.2727 476.276 52.2727ZM476.276 50.4659C477.174 50.4659 477.913 50.2358 478.492 49.7756C479.072 49.3153 479.501 48.7102 479.779 47.9602C480.058 47.2102 480.197 46.3977 480.197 45.5227C480.197 44.6477 480.058 43.8324 479.779 43.0767C479.501 42.321 479.072 41.7102 478.492 41.2443C477.913 40.7784 477.174 40.5455 476.276 40.5455C475.379 40.5455 474.64 40.7784 474.06 41.2443C473.481 41.7102 473.052 42.321 472.773 43.0767C472.495 43.8324 472.356 44.6477 472.356 45.5227C472.356 46.3977 472.495 47.2102 472.773 47.9602C473.052 48.7102 473.481 49.3153 474.06 49.7756C474.64 50.2358 475.379 50.4659 476.276 50.4659ZM496.972 52.2727C495.881 52.2727 494.918 51.9972 494.082 51.446C493.247 50.8892 492.594 50.1051 492.122 49.0938C491.651 48.0767 491.415 46.875 491.415 45.4886C491.415 44.1136 491.651 42.9205 492.122 41.9091C492.594 40.8977 493.25 40.1165 494.091 39.5653C494.932 39.0142 495.903 38.7386 497.006 38.7386C497.858 38.7386 498.531 38.8807 499.026 39.1648C499.526 39.4432 499.906 39.7614 500.168 40.1193C500.435 40.4716 500.642 40.7614 500.79 40.9886H500.96V34.5455L502.972 34.5455V52L501.028 52V49.9886H500.79C500.642 50.2273 500.432 50.5284 500.159 50.892C499.886 51.25 499.497 51.571 498.991 51.8551C498.486 52.1335 497.813 52.2727 496.972 52.2727ZM497.244 50.4659C498.051 50.4659 498.733 50.2557 499.29 49.8352C499.847 49.4091 500.27 48.821 500.56 48.071C500.849 47.3153 500.994 46.4432 500.994 45.4545C500.994 44.4773 500.852 43.6222 500.568 42.8892C500.284 42.1506 499.864 41.5767 499.307 41.1676C498.75 40.7528 498.063 40.5455 497.244 40.5455C496.392 40.5455 495.682 40.7642 495.114 41.2017C494.551 41.6335 494.128 42.2216 493.844 42.9659C493.565 43.7045 493.426 44.5341 493.426 45.4545C493.426 46.3864 493.568 47.233 493.852 47.9943C494.142 48.75 494.568 49.3523 495.131 49.8011C495.699 50.2443 496.403 50.4659 497.244 50.4659ZM512.423 52.2727C511.162 52.2727 510.074 51.9943 509.159 51.4375C508.25 50.875 507.548 50.0909 507.054 49.0852C506.565 48.0739 506.321 46.8977 506.321 45.5568C506.321 44.2159 506.565 43.0341 507.054 42.0114C507.548 40.983 508.236 40.1818 509.116 39.608C510.003 39.0284 511.037 38.7386 512.219 38.7386C512.901 38.7386 513.574 38.8523 514.239 39.0795C514.903 39.3068 515.509 39.6761 516.054 40.1875C516.599 40.6932 517.034 41.3636 517.358 42.1989C517.682 43.0341 517.844 44.0625 517.844 45.2841V46.1364H507.753V44.3977H515.798C515.798 43.6591 515.651 43 515.355 42.4205C515.065 41.8409 514.651 41.3835 514.111 41.0483C513.577 40.7131 512.946 40.5455 512.219 40.5455C511.418 40.5455 510.724 40.7443 510.139 41.142C509.56 41.5341 509.114 42.0455 508.801 42.6761C508.489 43.3068 508.332 43.983 508.332 44.7045V45.8636C508.332 46.8523 508.503 47.6903 508.844 48.3778C509.19 49.0597 509.67 49.5795 510.284 49.9375C510.898 50.2898 511.611 50.4659 512.423 50.4659C512.952 50.4659 513.429 50.392 513.855 50.2443C514.287 50.0909 514.659 49.8636 514.972 49.5625C515.284 49.2557 515.526 48.875 515.696 48.4205L517.639 48.9659C517.435 49.625 517.091 50.2045 516.608 50.7045C516.125 51.1989 515.528 51.5852 514.818 51.8636C514.108 52.1364 513.31 52.2727 512.423 52.2727ZM520.903 56.9091V38.9091H522.847V40.9886H523.085C523.233 40.7614 523.438 40.4716 523.699 40.1193C523.966 39.7614 524.347 39.4432 524.841 39.1648C525.341 38.8807 526.017 38.7386 526.869 38.7386C527.972 38.7386 528.943 39.0142 529.784 39.5653C530.625 40.1165 531.281 40.8977 531.753 41.9091C532.224 42.9205 532.46 44.1136 532.46 45.4886C532.46 46.875 532.224 48.0767 531.753 49.0938C531.281 50.1051 530.628 50.8892 529.793 51.446C528.957 51.9972 527.994 52.2727 526.903 52.2727C526.063 52.2727 525.389 52.1335 524.884 51.8551C524.378 51.571 523.989 51.25 523.716 50.892C523.443 50.5284 523.233 50.2273 523.085 49.9886H522.915V56.9091H520.903ZM522.881 45.4545C522.881 46.4432 523.026 47.3153 523.315 48.071C523.605 48.821 524.028 49.4091 524.585 49.8352C525.142 50.2557 525.824 50.4659 526.631 50.4659C527.472 50.4659 528.173 50.2443 528.736 49.8011C529.304 49.3523 529.73 48.75 530.014 47.9943C530.304 47.233 530.449 46.3864 530.449 45.4545C530.449 44.5341 530.307 43.7045 530.023 42.9659C529.744 42.2216 529.321 41.6335 528.753 41.2017C528.19 40.7642 527.483 40.5455 526.631 40.5455C525.813 40.5455 525.125 40.7528 524.568 41.1676C524.011 41.5767 523.591 42.1506 523.307 42.8892C523.023 43.6222 522.881 44.4773 522.881 45.4545ZM541.017 52.2727C539.756 52.2727 538.668 51.9943 537.753 51.4375C536.844 50.875 536.142 50.0909 535.648 49.0852C535.159 48.0739 534.915 46.8977 534.915 45.5568C534.915 44.2159 535.159 43.0341 535.648 42.0114C536.142 40.983 536.83 40.1818 537.71 39.608C538.597 39.0284 539.631 38.7386 540.812 38.7386C541.494 38.7386 542.168 38.8523 542.832 39.0795C543.497 39.3068 544.102 39.6761 544.648 40.1875C545.193 40.6932 545.628 41.3636 545.952 42.1989C546.276 43.0341 546.438 44.0625 546.438 45.2841V46.1364L536.347 46.1364V44.3977H544.392C544.392 43.6591 544.244 43 543.949 42.4205C543.659 41.8409 543.244 41.3835 542.705 41.0483C542.17 40.7131 541.54 40.5455 540.812 40.5455C540.011 40.5455 539.318 40.7443 538.733 41.142C538.153 41.5341 537.707 42.0455 537.395 42.6761C537.082 43.3068 536.926 43.983 536.926 44.7045V45.8636C536.926 46.8523 537.097 47.6903 537.438 48.3778C537.784 49.0597 538.264 49.5795 538.878 49.9375C539.491 50.2898 540.205 50.4659 541.017 50.4659C541.545 50.4659 542.023 50.392 542.449 50.2443C542.881 50.0909 543.253 49.8636 543.565 49.5625C543.878 49.2557 544.119 48.875 544.29 48.4205L546.233 48.9659C546.028 49.625 545.685 50.2045 545.202 50.7045C544.719 51.1989 544.122 51.5852 543.412 51.8636C542.702 52.1364 541.903 52.2727 541.017 52.2727ZM551.509 44.125V52H549.497V38.9091H551.44V40.9545H551.611C551.918 40.2898 552.384 39.7557 553.009 39.3523C553.634 38.9432 554.44 38.7386 555.429 38.7386C556.315 38.7386 557.091 38.9205 557.756 39.2841C558.42 39.642 558.938 40.1875 559.307 40.9205C559.676 41.6477 559.861 42.5682 559.861 43.6818V52H557.849V43.8182C557.849 42.7898 557.582 41.9886 557.048 41.4148C556.514 40.8352 555.781 40.5455 554.849 40.5455C554.207 40.5455 553.634 40.6847 553.128 40.9631C552.628 41.2415 552.233 41.6477 551.943 42.1818C551.653 42.7159 551.509 43.3636 551.509 44.125ZM568.479 52.2727C567.388 52.2727 566.425 51.9972 565.59 51.446C564.755 50.8892 564.102 50.1051 563.63 49.0938C563.158 48.0767 562.923 46.875 562.923 45.4886C562.923 44.1136 563.158 42.9205 563.63 41.9091C564.102 40.8977 564.758 40.1165 565.599 39.5653C566.44 39.0142 567.411 38.7386 568.513 38.7386C569.366 38.7386 570.039 38.8807 570.533 39.1648C571.033 39.4432 571.414 39.7614 571.675 40.1193C571.942 40.4716 572.15 40.7614 572.298 40.9886H572.468V34.5455H574.479V52H572.536V49.9886H572.298C572.15 50.2273 571.94 50.5284 571.667 50.892C571.394 51.25 571.005 51.571 570.499 51.8551C569.994 52.1335 569.32 52.2727 568.479 52.2727ZM568.752 50.4659C569.559 50.4659 570.241 50.2557 570.798 49.8352C571.354 49.4091 571.778 48.821 572.067 48.071C572.357 47.3153 572.502 46.4432 572.502 45.4545C572.502 44.4773 572.36 43.6222 572.076 42.8892C571.792 42.1506 571.371 41.5767 570.815 41.1676C570.258 40.7528 569.57 40.5455 568.752 40.5455C567.9 40.5455 567.19 40.7642 566.621 41.2017C566.059 41.6335 565.636 42.2216 565.352 42.9659C565.073 43.7045 564.934 44.5341 564.934 45.4545C564.934 46.3864 565.076 47.233 565.36 47.9943C565.65 48.75 566.076 49.3523 566.638 49.8011C567.207 50.2443 567.911 50.4659 568.752 50.4659ZM583.931 52.2727C582.67 52.2727 581.582 51.9943 580.667 51.4375C579.758 50.875 579.056 50.0909 578.562 49.0852C578.073 48.0739 577.829 46.8977 577.829 45.5568C577.829 44.2159 578.073 43.0341 578.562 42.0114C579.056 40.983 579.744 40.1818 580.624 39.608C581.511 39.0284 582.545 38.7386 583.727 38.7386C584.408 38.7386 585.082 38.8523 585.746 39.0795C586.411 39.3068 587.016 39.6761 587.562 40.1875C588.107 40.6932 588.542 41.3636 588.866 42.1989C589.19 43.0341 589.352 44.0625 589.352 45.2841V46.1364H579.261V44.3977H587.306C587.306 43.6591 587.158 43 586.863 42.4205C586.573 41.8409 586.158 41.3835 585.619 41.0483C585.085 40.7131 584.454 40.5455 583.727 40.5455C582.925 40.5455 582.232 40.7443 581.647 41.142C581.067 41.5341 580.621 42.0455 580.309 42.6761C579.996 43.3068 579.84 43.983 579.84 44.7045V45.8636C579.84 46.8523 580.011 47.6903 580.352 48.3778C580.698 49.0597 581.178 49.5795 581.792 49.9375C582.406 50.2898 583.119 50.4659 583.931 50.4659C584.46 50.4659 584.937 50.392 585.363 50.2443C585.795 50.0909 586.167 49.8636 586.479 49.5625C586.792 49.2557 587.033 48.875 587.204 48.4205L589.147 48.9659C588.942 49.625 588.599 50.2045 588.116 50.7045C587.633 51.1989 587.036 51.5852 586.326 51.8636C585.616 52.1364 584.817 52.2727 583.931 52.2727ZM594.423 44.125V52H592.411V38.9091H594.354V40.9545H594.525C594.832 40.2898 595.298 39.7557 595.923 39.3523C596.548 38.9432 597.354 38.7386 598.343 38.7386C599.229 38.7386 600.005 38.9205 600.67 39.2841C601.335 39.642 601.852 40.1875 602.221 40.9205C602.59 41.6477 602.775 42.5682 602.775 43.6818V52H600.763V43.8182C600.763 42.7898 600.496 41.9886 599.962 41.4148C599.428 40.8352 598.695 40.5455 597.763 40.5455C597.121 40.5455 596.548 40.6847 596.042 40.9631C595.542 41.2415 595.147 41.6477 594.857 42.1818C594.567 42.7159 594.423 43.3636 594.423 44.125ZM611.768 52.2727C610.541 52.2727 609.484 51.983 608.598 51.4034C607.712 50.8239 607.03 50.0256 606.553 49.0085C606.075 47.9915 605.837 46.8295 605.837 45.5227C605.837 44.1932 606.081 43.0199 606.57 42.0028C607.064 40.9801 607.751 40.1818 608.632 39.608C609.518 39.0284 610.553 38.7386 611.734 38.7386C612.655 38.7386 613.484 38.9091 614.223 39.25C614.962 39.5909 615.567 40.0682 616.038 40.6818C616.51 41.2955 616.803 42.0114 616.916 42.8295H614.905C614.751 42.233 614.411 41.7045 613.882 41.2443C613.359 40.7784 612.655 40.5455 611.768 40.5455C610.984 40.5455 610.297 40.75 609.706 41.1591C609.121 41.5625 608.663 42.1335 608.334 42.8722C608.01 43.6051 607.848 44.4659 607.848 45.4545C607.848 46.4659 608.007 47.3466 608.325 48.0966C608.649 48.8466 609.104 49.429 609.689 49.8438C610.28 50.2585 610.973 50.4659 611.768 50.4659C612.291 50.4659 612.766 50.375 613.192 50.1932C613.618 50.0114 613.979 49.75 614.274 49.4091C614.57 49.0682 614.78 48.6591 614.905 48.1818H616.916C616.803 48.9545 616.521 49.6506 616.072 50.2699C615.629 50.8835 615.041 51.3722 614.308 51.7358C613.581 52.0938 612.734 52.2727 611.768 52.2727ZM625.345 52.2727C624.084 52.2727 622.996 51.9943 622.081 51.4375C621.172 50.875 620.47 50.0909 619.976 49.0852C619.487 48.0739 619.243 46.8977 619.243 45.5568C619.243 44.2159 619.487 43.0341 619.976 42.0114C620.47 40.983 621.158 40.1818 622.038 39.608C622.925 39.0284 623.959 38.7386 625.141 38.7386C625.822 38.7386 626.496 38.8523 627.161 39.0795C627.825 39.3068 628.43 39.6761 628.976 40.1875C629.521 40.6932 629.956 41.3636 630.28 42.1989C630.604 43.0341 630.766 44.0625 630.766 45.2841V46.1364H620.675V44.3977H628.72C628.72 43.6591 628.572 43 628.277 42.4205C627.987 41.8409 627.572 41.3835 627.033 41.0483C626.499 40.7131 625.868 40.5455 625.141 40.5455C624.339 40.5455 623.646 40.7443 623.061 41.142C622.482 41.5341 622.036 42.0455 621.723 42.6761C621.411 43.3068 621.254 43.983 621.254 44.7045V45.8636C621.254 46.8523 621.425 47.6903 621.766 48.3778C622.112 49.0597 622.592 49.5795 623.206 49.9375C623.82 50.2898 624.533 50.4659 625.345 50.4659C625.874 50.4659 626.351 50.392 626.777 50.2443C627.209 50.0909 627.581 49.8636 627.893 49.5625C628.206 49.2557 628.447 48.875 628.618 48.4205L630.561 48.9659C630.357 49.625 630.013 50.2045 629.53 50.7045C629.047 51.1989 628.45 51.5852 627.74 51.8636C627.03 52.1364 626.232 52.2727 625.345 52.2727ZM645.893 52.2727C644.712 52.2727 643.675 51.9915 642.783 51.429C641.896 50.8665 641.203 50.0795 640.703 49.0682C640.209 48.0568 639.962 46.875 639.962 45.5227C639.962 44.1591 640.209 42.9687 640.703 41.9517C641.203 40.9347 641.896 40.1449 642.783 39.5824C643.675 39.0199 644.712 38.7386 645.893 38.7386C647.075 38.7386 648.109 39.0199 648.996 39.5824C649.888 40.1449 650.581 40.9347 651.075 41.9517C651.575 42.9687 651.825 44.1591 651.825 45.5227C651.825 46.875 651.575 48.0568 651.075 49.0682C650.581 50.0795 649.888 50.8665 648.996 51.429C648.109 51.9915 647.075 52.2727 645.893 52.2727ZM645.893 50.4659C646.791 50.4659 647.53 50.2358 648.109 49.7756C648.689 49.3153 649.118 48.7102 649.396 47.9602C649.675 47.2102 649.814 46.3977 649.814 45.5227C649.814 44.6477 649.675 43.8324 649.396 43.0767C649.118 42.321 648.689 41.7102 648.109 41.2443C647.53 40.7784 646.791 40.5455 645.893 40.5455C644.996 40.5455 644.257 40.7784 643.678 41.2443C643.098 41.7102 642.669 42.321 642.391 43.0767C642.112 43.8324 641.973 44.6477 641.973 45.5227C641.973 46.3977 642.112 47.2102 642.391 47.9602C642.669 48.7102 643.098 49.3153 643.678 49.7756C644.257 50.2358 644.996 50.4659 645.893 50.4659ZM656.907 44.125V52H654.896V38.9091H656.839V40.9545H657.009C657.316 40.2898 657.782 39.7557 658.407 39.3523C659.032 38.9432 659.839 38.7386 660.827 38.7386C661.714 38.7386 662.489 38.9205 663.154 39.2841C663.819 39.642 664.336 40.1875 664.705 40.9205C665.075 41.6477 665.259 42.5682 665.259 43.6818V52H663.248V43.8182C663.248 42.7898 662.981 41.9886 662.447 41.4148C661.913 40.8352 661.18 40.5455 660.248 40.5455C659.606 40.5455 659.032 40.6847 658.526 40.9631C658.026 41.2415 657.631 41.6477 657.342 42.1818C657.052 42.7159 656.907 43.3636 656.907 44.125ZM675.685 52V38.9091H677.696V52H675.685ZM676.707 36.7273C676.315 36.7273 675.977 36.5938 675.693 36.3267C675.415 36.0597 675.276 35.7386 675.276 35.3636C675.276 34.9886 675.415 34.6676 675.693 34.4006C675.977 34.1335 676.315 34 676.707 34C677.099 34 677.435 34.1335 677.713 34.4006C677.997 34.6676 678.139 34.9886 678.139 35.3636C678.139 35.7386 677.997 36.0597 677.713 36.3267C677.435 36.5938 677.099 36.7273 676.707 36.7273ZM687.073 38.9091V40.6136H680.289V38.9091H687.073ZM682.266 35.7727H684.278V48.25C684.278 48.8182 684.36 49.2443 684.525 49.5284C684.695 49.8068 684.911 49.9943 685.173 50.0909C685.44 50.1818 685.721 50.2273 686.016 50.2273C686.238 50.2273 686.42 50.2159 686.562 50.1932C686.704 50.1648 686.817 50.142 686.903 50.125L687.312 51.9318C687.175 51.983 686.985 52.0341 686.741 52.0852C686.496 52.142 686.187 52.1705 685.812 52.1705C685.244 52.1705 684.687 52.0483 684.141 51.804C683.602 51.5597 683.153 51.1875 682.795 50.6875C682.442 50.1875 682.266 49.5568 682.266 48.7955V35.7727ZM699.137 41.8409L697.33 42.3523C697.217 42.0511 697.049 41.7585 696.827 41.4744C696.612 41.1847 696.316 40.946 695.941 40.7585C695.566 40.571 695.086 40.4773 694.501 40.4773C693.7 40.4773 693.032 40.6619 692.498 41.0313C691.969 41.3949 691.705 41.858 691.705 42.4205C691.705 42.9205 691.887 43.3153 692.251 43.6051C692.614 43.8949 693.183 44.1364 693.955 44.3295L695.898 44.8068C697.069 45.0909 697.941 45.5256 698.515 46.1108C699.089 46.6903 699.376 47.4375 699.376 48.3523C699.376 49.1023 699.16 49.7727 698.728 50.3636C698.302 50.9545 697.705 51.4205 696.938 51.7614C696.171 52.1023 695.279 52.2727 694.262 52.2727C692.927 52.2727 691.822 51.983 690.947 51.4034C690.072 50.8239 689.518 49.9773 689.285 48.8636L691.194 48.3864C691.376 49.0909 691.719 49.6193 692.225 49.9716C692.737 50.3239 693.404 50.5 694.228 50.5C695.165 50.5 695.91 50.3011 696.461 49.9034C697.018 49.5 697.296 49.017 697.296 48.4545C697.296 48 697.137 47.6193 696.819 47.3125C696.501 47 696.012 46.767 695.353 46.6136L693.171 46.1023C691.972 45.8182 691.092 45.3778 690.529 44.7813C689.972 44.179 689.694 43.4261 689.694 42.5227C689.694 41.7841 689.901 41.1307 690.316 40.5625C690.737 39.9943 691.308 39.5483 692.029 39.2244C692.756 38.9006 693.58 38.7386 694.501 38.7386C695.796 38.7386 696.813 39.0227 697.552 39.5909C698.296 40.1591 698.825 40.9091 699.137 41.8409ZM711.165 44.125V52H709.153V38.9091H711.097V40.9545H711.267C711.574 40.2898 712.04 39.7557 712.665 39.3523C713.29 38.9432 714.097 38.7386 715.085 38.7386C715.972 38.7386 716.747 38.9205 717.412 39.2841C718.077 39.642 718.594 40.1875 718.963 40.9205C719.332 41.6477 719.517 42.5682 719.517 43.6818V52H717.506V43.8182C717.506 42.7898 717.239 41.9886 716.705 41.4148C716.17 40.8352 715.438 40.5455 714.506 40.5455C713.864 40.5455 713.29 40.6847 712.784 40.9631C712.284 41.2415 711.889 41.6477 711.599 42.1818C711.31 42.7159 711.165 43.3636 711.165 44.125ZM728.681 52.2727C727.42 52.2727 726.332 51.9943 725.417 51.4375C724.508 50.875 723.806 50.0909 723.312 49.0852C722.823 48.0739 722.579 46.8977 722.579 45.5568C722.579 44.2159 722.823 43.0341 723.312 42.0114C723.806 40.983 724.494 40.1818 725.374 39.608C726.261 39.0284 727.295 38.7386 728.477 38.7386C729.158 38.7386 729.832 38.8523 730.496 39.0795C731.161 39.3068 731.766 39.6761 732.312 40.1875C732.857 40.6932 733.292 41.3636 733.616 42.1989C733.94 43.0341 734.102 44.0625 734.102 45.2841V46.1364H724.011V44.3977H732.056C732.056 43.6591 731.908 43 731.613 42.4205C731.323 41.8409 730.908 41.3835 730.369 41.0483C729.835 40.7131 729.204 40.5455 728.477 40.5455C727.675 40.5455 726.982 40.7443 726.397 41.142C725.817 41.5341 725.371 42.0455 725.059 42.6761C724.746 43.3068 724.59 43.983 724.59 44.7045V45.8636C724.59 46.8523 724.761 47.6903 725.102 48.3778C725.448 49.0597 725.928 49.5795 726.542 49.9375C727.156 50.2898 727.869 50.4659 728.681 50.4659C729.21 50.4659 729.687 50.392 730.113 50.2443C730.545 50.0909 730.917 49.8636 731.229 49.5625C731.542 49.2557 731.783 48.875 731.954 48.4205L733.897 48.9659C733.692 49.625 733.349 50.2045 732.866 50.7045C732.383 51.1989 731.786 51.5852 731.076 51.8636C730.366 52.1364 729.567 52.2727 728.681 52.2727ZM737.161 52V38.9091H739.173V52H737.161ZM738.184 36.7273C737.792 36.7273 737.454 36.5938 737.17 36.3267C736.891 36.0597 736.752 35.7386 736.752 35.3636C736.752 34.9886 736.891 34.6676 737.17 34.4006C737.454 34.1335 737.792 34 738.184 34C738.576 34 738.911 34.1335 739.19 34.4006C739.474 34.6676 739.616 34.9886 739.616 35.3636C739.616 35.7386 739.474 36.0597 739.19 36.3267C738.911 36.5938 738.576 36.7273 738.184 36.7273ZM748.141 57.1818C747.169 57.1818 746.334 57.0568 745.635 56.8068C744.936 56.5625 744.354 56.2386 743.888 55.8352C743.428 55.4375 743.061 55.0114 742.788 54.5568L744.391 53.4318C744.572 53.6705 744.803 53.9432 745.081 54.25C745.359 54.5625 745.74 54.8324 746.223 55.0597C746.712 55.2926 747.351 55.4091 748.141 55.4091C749.197 55.4091 750.07 55.1534 750.757 54.642C751.445 54.1307 751.788 53.3295 751.788 52.2386V49.5795H751.618C751.47 49.8182 751.26 50.1136 750.987 50.4659C750.72 50.8125 750.334 51.1222 749.828 51.3949C749.328 51.6619 748.652 51.7955 747.8 51.7955C746.743 51.7955 745.794 51.5455 744.953 51.0455C744.118 50.5455 743.456 49.8182 742.967 48.8636C742.484 47.9091 742.243 46.75 742.243 45.3864C742.243 44.0455 742.479 42.8778 742.95 41.8835C743.422 40.8835 744.078 40.1108 744.919 39.5653C745.76 39.0142 746.732 38.7386 747.834 38.7386C748.686 38.7386 749.362 38.8807 749.862 39.1648C750.368 39.4432 750.754 39.7614 751.021 40.1193C751.294 40.4716 751.504 40.7614 751.652 40.9886H751.857V38.9091H753.8V52.375C753.8 53.5 753.544 54.4148 753.033 55.1193C752.527 55.8295 751.845 56.3494 750.987 56.679C750.135 57.0142 749.186 57.1818 748.141 57.1818ZM748.072 49.9886C748.879 49.9886 749.561 49.804 750.118 49.4347C750.675 49.0653 751.098 48.5341 751.388 47.8409C751.678 47.1477 751.822 46.3182 751.822 45.3523C751.822 44.4091 751.68 43.5767 751.396 42.8551C751.112 42.1335 750.692 41.5682 750.135 41.1591C749.578 40.75 748.891 40.5455 748.072 40.5455C747.22 40.5455 746.51 40.7614 745.942 41.1932C745.379 41.625 744.956 42.2045 744.672 42.9318C744.393 43.6591 744.254 44.4659 744.254 45.3523C744.254 46.2614 744.396 47.0653 744.68 47.7642C744.97 48.4574 745.396 49.0028 745.959 49.4006C746.527 49.7926 747.232 49.9886 748.072 49.9886ZM759.493 44.125V52H757.482V34.5455H759.493V40.9545H759.663C759.97 40.2784 760.43 39.7415 761.044 39.3438C761.663 38.9403 762.487 38.7386 763.516 38.7386C764.408 38.7386 765.189 38.9176 765.859 39.2756C766.53 39.6278 767.05 40.1705 767.419 40.9034C767.794 41.6307 767.982 42.5568 767.982 43.6818V52L765.97 52V43.8182C765.97 42.7784 765.7 41.9744 765.161 41.4063C764.626 40.8324 763.885 40.5455 762.936 40.5455C762.277 40.5455 761.686 40.6847 761.163 40.9631C760.646 41.2415 760.237 41.6477 759.936 42.1818C759.641 42.7159 759.493 43.3636 759.493 44.125ZM771.934 52V34.5455H773.945V40.9886H774.116C774.263 40.7614 774.468 40.4716 774.729 40.1193C774.996 39.7614 775.377 39.4432 775.871 39.1648C776.371 38.8807 777.048 38.7386 777.9 38.7386C779.002 38.7386 779.974 39.0142 780.815 39.5653C781.656 40.1165 782.312 40.8977 782.783 41.9091C783.255 42.9205 783.491 44.1136 783.491 45.4886C783.491 46.875 783.255 48.0767 782.783 49.0938C782.312 50.1051 781.658 50.8892 780.823 51.446C779.988 51.9972 779.025 52.2727 777.934 52.2727C777.093 52.2727 776.42 52.1335 775.914 51.8551C775.408 51.571 775.019 51.25 774.746 50.892C774.474 50.5284 774.263 50.2273 774.116 49.9886H773.877V52H771.934ZM773.911 45.4545C773.911 46.4432 774.056 47.3153 774.346 48.071C774.636 48.821 775.059 49.4091 775.616 49.8352C776.173 50.2557 776.854 50.4659 777.661 50.4659C778.502 50.4659 779.204 50.2443 779.766 49.8011C780.335 49.3523 780.761 48.75 781.045 47.9943C781.335 47.233 781.479 46.3864 781.479 45.4545C781.479 44.5341 781.337 43.7045 781.053 42.9659C780.775 42.2216 780.352 41.6335 779.783 41.2017C779.221 40.7642 778.513 40.5455 777.661 40.5455C776.843 40.5455 776.156 40.7528 775.599 41.1676C775.042 41.5767 774.621 42.1506 774.337 42.8892C774.053 43.6222 773.911 44.4773 773.911 45.4545ZM791.886 52.2727C790.704 52.2727 789.667 51.9915 788.775 51.429C787.888 50.8665 787.195 50.0795 786.695 49.0682C786.201 48.0568 785.954 46.875 785.954 45.5227C785.954 44.1591 786.201 42.9687 786.695 41.9517C787.195 40.9347 787.888 40.1449 788.775 39.5824C789.667 39.0199 790.704 38.7386 791.886 38.7386C793.067 38.7386 794.102 39.0199 794.988 39.5824C795.88 40.1449 796.573 40.9347 797.067 41.9517C797.567 42.9687 797.817 44.1591 797.817 45.5227C797.817 46.875 797.567 48.0568 797.067 49.0682C796.573 50.0795 795.88 50.8665 794.988 51.429C794.102 51.9915 793.067 52.2727 791.886 52.2727ZM791.886 50.4659C792.783 50.4659 793.522 50.2358 794.102 49.7756C794.681 49.3153 795.11 48.7102 795.388 47.9602C795.667 47.2102 795.806 46.3977 795.806 45.5227C795.806 44.6477 795.667 43.8324 795.388 43.0767C795.11 42.321 794.681 41.7102 794.102 41.2443C793.522 40.7784 792.783 40.5455 791.886 40.5455C790.988 40.5455 790.249 40.7784 789.67 41.2443C789.09 41.7102 788.661 42.321 788.383 43.0767C788.104 43.8324 787.965 44.6477 787.965 45.5227C787.965 46.3977 788.104 47.2102 788.383 47.9602C788.661 48.7102 789.09 49.3153 789.67 49.7756C790.249 50.2358 790.988 50.4659 791.886 50.4659ZM800.888 52V38.9091H802.831V40.8864H802.967C803.206 40.2386 803.638 39.7131 804.263 39.3097C804.888 38.9062 805.592 38.7045 806.376 38.7045C806.524 38.7045 806.709 38.7074 806.93 38.7131C807.152 38.7187 807.32 38.7273 807.433 38.7386V40.7841C807.365 40.767 807.209 40.7415 806.964 40.7074C806.726 40.6676 806.473 40.6477 806.206 40.6477C805.57 40.6477 805.001 40.7812 804.501 41.0483C804.007 41.3097 803.615 41.6733 803.325 42.1392C803.041 42.5994 802.899 43.125 802.899 43.7159V52H800.888ZM819.09 41.8409L817.283 42.3523C817.17 42.0511 817.002 41.7585 816.781 41.4744C816.565 41.1847 816.269 40.946 815.894 40.7585C815.519 40.571 815.039 40.4773 814.454 40.4773C813.653 40.4773 812.985 40.6619 812.451 41.0313C811.923 41.3949 811.658 41.858 811.658 42.4205C811.658 42.9205 811.84 43.3153 812.204 43.6051C812.567 43.8949 813.136 44.1364 813.908 44.3295L815.852 44.8068C817.022 45.0909 817.894 45.5256 818.468 46.1108C819.042 46.6903 819.329 47.4375 819.329 48.3523C819.329 49.1023 819.113 49.7727 818.681 50.3636C818.255 50.9545 817.658 51.4205 816.891 51.7614C816.124 52.1023 815.232 52.2727 814.215 52.2727C812.88 52.2727 811.775 51.983 810.9 51.4034C810.025 50.8239 809.471 49.9773 809.238 48.8636L811.147 48.3864C811.329 49.0909 811.673 49.6193 812.178 49.9716C812.69 50.3239 813.357 50.5 814.181 50.5C815.119 50.5 815.863 50.3011 816.414 49.9034C816.971 49.5 817.249 49.017 817.249 48.4545C817.249 48 817.09 47.6193 816.772 47.3125C816.454 47 815.965 46.767 815.306 46.6136L813.124 46.1023C811.925 45.8182 811.045 45.3778 810.482 44.7813C809.925 44.179 809.647 43.4261 809.647 42.5227C809.647 41.7841 809.854 41.1307 810.269 40.5625C810.69 39.9943 811.261 39.5483 811.982 39.2244C812.71 38.9006 813.533 38.7386 814.454 38.7386C815.749 38.7386 816.766 39.0227 817.505 39.5909C818.249 40.1591 818.778 40.9091 819.09 41.8409ZM834.936 38.9091V40.6136H827.879V38.9091H834.936ZM829.993 52V37.1023C829.993 36.3523 830.169 35.7273 830.521 35.2273C830.874 34.7273 831.331 34.3523 831.893 34.1023C832.456 33.8523 833.05 33.7273 833.675 33.7273C834.169 33.7273 834.572 33.767 834.885 33.8466C835.197 33.9261 835.43 34 835.584 34.0682L835.004 35.8068C834.902 35.7727 834.76 35.7301 834.578 35.679C834.402 35.6278 834.169 35.6023 833.879 35.6023C833.214 35.6023 832.734 35.7699 832.439 36.1051C832.149 36.4403 832.004 36.9318 832.004 37.5795V52H829.993ZM842.534 52.2727C841.352 52.2727 840.315 51.9915 839.423 51.429C838.537 50.8665 837.844 50.0795 837.344 49.0682C836.849 48.0568 836.602 46.875 836.602 45.5227C836.602 44.1591 836.849 42.9687 837.344 41.9517C837.844 40.9347 838.537 40.1449 839.423 39.5824C840.315 39.0199 841.352 38.7386 842.534 38.7386C843.716 38.7386 844.75 39.0199 845.636 39.5824C846.528 40.1449 847.222 40.9347 847.716 41.9517C848.216 42.9687 848.466 44.1591 848.466 45.5227C848.466 46.875 848.216 48.0568 847.716 49.0682C847.222 50.0795 846.528 50.8665 845.636 51.429C844.75 51.9915 843.716 52.2727 842.534 52.2727ZM842.534 50.4659C843.432 50.4659 844.17 50.2358 844.75 49.7756C845.33 49.3153 845.759 48.7102 846.037 47.9602C846.315 47.2102 846.455 46.3977 846.455 45.5227C846.455 44.6477 846.315 43.8324 846.037 43.0767C845.759 42.321 845.33 41.7102 844.75 41.2443C844.17 40.7784 843.432 40.5455 842.534 40.5455C841.636 40.5455 840.898 40.7784 840.318 41.2443C839.739 41.7102 839.31 42.321 839.031 43.0767C838.753 43.8324 838.614 44.6477 838.614 45.5227C838.614 46.3977 838.753 47.2102 839.031 47.9602C839.31 48.7102 839.739 49.3153 840.318 49.7756C840.898 50.2358 841.636 50.4659 842.534 50.4659ZM851.536 52V38.9091H853.479V40.8864H853.616C853.854 40.2386 854.286 39.7131 854.911 39.3097C855.536 38.9062 856.241 38.7045 857.025 38.7045C857.173 38.7045 857.357 38.7074 857.579 38.7131C857.8 38.7187 857.968 38.7273 858.082 38.7386V40.7841C858.013 40.767 857.857 40.7415 857.613 40.7074C857.374 40.6676 857.121 40.6477 856.854 40.6477C856.218 40.6477 855.65 40.7812 855.15 41.0483C854.656 41.3097 854.263 41.6733 853.974 42.1392C853.69 42.5994 853.548 43.125 853.548 43.7159V52H851.536ZM876.148 56.9091V49.9886H875.977C875.83 50.2273 875.619 50.5284 875.347 50.892C875.074 51.25 874.685 51.571 874.179 51.8551C873.673 52.1335 873 52.2727 872.159 52.2727C871.068 52.2727 870.105 51.9972 869.27 51.446C868.435 50.8892 867.781 50.1051 867.31 49.0938C866.838 48.0767 866.602 46.875 866.602 45.4886C866.602 44.1136 866.838 42.9205 867.31 41.9091C867.781 40.8977 868.438 40.1165 869.278 39.5653C870.119 39.0142 871.091 38.7386 872.193 38.7386C873.045 38.7386 873.719 38.8807 874.213 39.1648C874.713 39.4432 875.094 39.7614 875.355 40.1193C875.622 40.4716 875.83 40.7614 875.977 40.9886H876.216V38.9091H878.159V56.9091H876.148ZM872.432 50.4659C873.239 50.4659 873.92 50.2557 874.477 49.8352C875.034 49.4091 875.457 48.821 875.747 48.071C876.037 47.3153 876.182 46.4432 876.182 45.4545C876.182 44.4773 876.04 43.6222 875.756 42.8892C875.472 42.1506 875.051 41.5767 874.494 41.1676C873.938 40.7528 873.25 40.5455 872.432 40.5455C871.58 40.5455 870.869 40.7642 870.301 41.2017C869.739 41.6335 869.315 42.2216 869.031 42.9659C868.753 43.7045 868.614 44.5341 868.614 45.4545C868.614 46.3864 868.756 47.233 869.04 47.9943C869.33 48.75 869.756 49.3523 870.318 49.8011C870.886 50.2443 871.591 50.4659 872.432 50.4659ZM890.091 46.6477V38.9091H892.102V52H890.091V49.7841H889.955C889.648 50.4489 889.17 51.0142 888.523 51.4801C887.875 51.9403 887.057 52.1705 886.068 52.1705C885.25 52.1705 884.523 51.9915 883.886 51.6335C883.25 51.2699 882.75 50.7244 882.386 49.9972C882.023 49.2642 881.841 48.3409 881.841 47.2273V38.9091H883.852V47.0909C883.852 48.0455 884.119 48.8068 884.653 49.375C885.193 49.9432 885.881 50.2273 886.716 50.2273C887.216 50.2273 887.724 50.0994 888.241 49.8438C888.764 49.5881 889.202 49.196 889.554 48.6676C889.912 48.1392 890.091 47.4659 890.091 46.6477ZM901.275 52.2727C900.013 52.2727 898.925 51.9943 898.011 51.4375C897.102 50.875 896.4 50.0909 895.906 49.0852C895.417 48.0739 895.173 46.8977 895.173 45.5568C895.173 44.2159 895.417 43.0341 895.906 42.0114C896.4 40.983 897.087 40.1818 897.968 39.608C898.854 39.0284 899.888 38.7386 901.07 38.7386C901.752 38.7386 902.425 38.8523 903.09 39.0795C903.755 39.3068 904.36 39.6761 904.906 40.1875C905.451 40.6932 905.886 41.3636 906.21 42.1989C906.533 43.0341 906.695 44.0625 906.695 45.2841V46.1364L896.604 46.1364V44.3977L904.65 44.3977C904.65 43.6591 904.502 43 904.207 42.4205C903.917 41.8409 903.502 41.3835 902.962 41.0483C902.428 40.7131 901.798 40.5455 901.07 40.5455C900.269 40.5455 899.576 40.7443 898.991 41.142C898.411 41.5341 897.965 42.0455 897.653 42.6761C897.34 43.3068 897.184 43.983 897.184 44.7045V45.8636C897.184 46.8523 897.354 47.6903 897.695 48.3778C898.042 49.0597 898.522 49.5795 899.136 49.9375C899.749 50.2898 900.462 50.4659 901.275 50.4659C901.803 50.4659 902.281 50.392 902.707 50.2443C903.138 50.0909 903.511 49.8636 903.823 49.5625C904.136 49.2557 904.377 48.875 904.548 48.4205L906.491 48.9659C906.286 49.625 905.942 50.2045 905.46 50.7045C904.977 51.1989 904.38 51.5852 903.67 51.8636C902.96 52.1364 902.161 52.2727 901.275 52.2727ZM909.755 52V38.9091H911.698V40.8864H911.835C912.073 40.2386 912.505 39.7131 913.13 39.3097C913.755 38.9062 914.46 38.7045 915.244 38.7045C915.391 38.7045 915.576 38.7074 915.798 38.7131C916.019 38.7187 916.187 38.7273 916.3 38.7386V40.7841C916.232 40.767 916.076 40.7415 915.832 40.7074C915.593 40.6676 915.34 40.6477 915.073 40.6477C914.437 40.6477 913.869 40.7812 913.369 41.0483C912.874 41.3097 912.482 41.6733 912.192 42.1392C911.908 42.5994 911.766 43.125 911.766 43.7159V52H909.755ZM918.685 52V38.9091H920.696V52H918.685ZM919.707 36.7273C919.315 36.7273 918.977 36.5938 918.693 36.3267C918.415 36.0597 918.276 35.7386 918.276 35.3636C918.276 34.9886 918.415 34.6676 918.693 34.4006C918.977 34.1335 919.315 34 919.707 34C920.099 34 920.435 34.1335 920.713 34.4006C920.997 34.6676 921.139 34.9886 921.139 35.3636C921.139 35.7386 920.997 36.0597 920.713 36.3267C920.435 36.5938 920.099 36.7273 919.707 36.7273ZM929.869 52.2727C928.607 52.2727 927.519 51.9943 926.604 51.4375C925.695 50.875 924.994 50.0909 924.499 49.0852C924.011 48.0739 923.766 46.8977 923.766 45.5568C923.766 44.2159 924.011 43.0341 924.499 42.0114C924.994 40.983 925.681 40.1818 926.562 39.608C927.448 39.0284 928.482 38.7386 929.664 38.7386C930.346 38.7386 931.019 38.8523 931.684 39.0795C932.349 39.3068 932.954 39.6761 933.499 40.1875C934.045 40.6932 934.479 41.3636 934.803 42.1989C935.127 43.0341 935.289 44.0625 935.289 45.2841V46.1364H925.198V44.3977H933.244C933.244 43.6591 933.096 43 932.8 42.4205C932.511 41.8409 932.096 41.3835 931.556 41.0483C931.022 40.7131 930.391 40.5455 929.664 40.5455C928.863 40.5455 928.17 40.7443 927.585 41.142C927.005 41.5341 926.559 42.0455 926.246 42.6761C925.934 43.3068 925.778 43.983 925.778 44.7045V45.8636C925.778 46.8523 925.948 47.6903 926.289 48.3778C926.636 49.0597 927.116 49.5795 927.729 49.9375C928.343 50.2898 929.056 50.4659 929.869 50.4659C930.397 50.4659 930.874 50.392 931.3 50.2443C931.732 50.0909 932.104 49.8636 932.417 49.5625C932.729 49.2557 932.971 48.875 933.141 48.4205L935.085 48.9659C934.88 49.625 934.536 50.2045 934.053 50.7045C933.57 51.1989 932.974 51.5852 932.263 51.8636C931.553 52.1364 930.755 52.2727 929.869 52.2727ZM947.621 41.8409L945.815 42.3523C945.701 42.0511 945.533 41.7585 945.312 41.4744C945.096 41.1847 944.8 40.946 944.425 40.7585C944.05 40.571 943.57 40.4773 942.985 40.4773C942.184 40.4773 941.516 40.6619 940.982 41.0313C940.454 41.3949 940.19 41.858 940.19 42.4205C940.19 42.9205 940.371 43.3153 940.735 43.6051C941.099 43.8949 941.667 44.1364 942.44 44.3295L944.383 44.8068C945.553 45.0909 946.425 45.5256 946.999 46.1108C947.573 46.6903 947.86 47.4375 947.86 48.3523C947.86 49.1023 947.644 49.7727 947.212 50.3636C946.786 50.9545 946.19 51.4205 945.423 51.7614C944.656 52.1023 943.763 52.2727 942.746 52.2727C941.411 52.2727 940.306 51.983 939.431 51.4034C938.556 50.8239 938.002 49.9773 937.769 48.8636L939.678 48.3864C939.86 49.0909 940.204 49.6193 940.71 49.9716C941.221 50.3239 941.888 50.5 942.712 50.5C943.65 50.5 944.394 50.3011 944.945 49.9034C945.502 49.5 945.781 49.017 945.781 48.4545C945.781 48 945.621 47.6193 945.303 47.3125C944.985 47 944.496 46.767 943.837 46.6136L941.656 46.1023C940.457 45.8182 939.576 45.3778 939.013 44.7813C938.457 44.179 938.178 43.4261 938.178 42.5227C938.178 41.7841 938.386 41.1307 938.8 40.5625C939.221 39.9943 939.792 39.5483 940.513 39.2244C941.241 38.9006 942.065 38.7386 942.985 38.7386C944.281 38.7386 945.298 39.0227 946.036 39.5909C946.781 40.1591 947.309 40.9091 947.621 41.8409ZM955.183 44.6364C955.183 46.7841 954.902 48.7614 954.339 50.5682C953.783 52.3693 952.984 54.0284 951.945 55.5455H950.172C950.581 54.983 950.962 54.2898 951.314 53.4659C951.672 52.6477 951.984 51.75 952.251 50.7727C952.518 49.7898 952.726 48.7756 952.874 47.7301C953.027 46.679 953.104 45.6477 953.104 44.6364C953.104 43.2841 952.973 41.9119 952.712 40.5199C952.45 39.1278 952.098 37.8352 951.655 36.642C951.212 35.4489 950.717 34.4773 950.172 33.7273H951.945C952.984 35.2443 953.783 36.9062 954.339 38.7131C954.902 40.5142 955.183 42.4886 955.183 44.6364Z" fill="black"/>
<path d="M1090.56 127.273C1089.38 127.273 1088.34 126.991 1087.45 126.429C1086.56 125.866 1085.87 125.08 1085.37 124.068C1084.88 123.057 1084.63 121.875 1084.63 120.523C1084.63 119.159 1084.88 117.969 1085.37 116.952C1085.87 115.935 1086.56 115.145 1087.45 114.582C1088.34 114.02 1089.38 113.739 1090.56 113.739C1091.74 113.739 1092.78 114.02 1093.66 114.582C1094.56 115.145 1095.25 115.935 1095.74 116.952C1096.24 117.969 1096.49 119.159 1096.49 120.523C1096.49 121.875 1096.24 123.057 1095.74 124.068C1095.25 125.08 1094.56 125.866 1093.66 126.429C1092.78 126.991 1091.74 127.273 1090.56 127.273ZM1090.56 125.466C1091.46 125.466 1092.2 125.236 1092.78 124.776C1093.36 124.315 1093.79 123.71 1094.06 122.96C1094.34 122.21 1094.48 121.398 1094.48 120.523C1094.48 119.648 1094.34 118.832 1094.06 118.077C1093.79 117.321 1093.36 116.71 1092.78 116.244C1092.2 115.778 1091.46 115.545 1090.56 115.545C1089.66 115.545 1088.93 115.778 1088.35 116.244C1087.77 116.71 1087.34 117.321 1087.06 118.077C1086.78 118.832 1086.64 119.648 1086.64 120.523C1086.64 121.398 1086.78 122.21 1087.06 122.96C1087.34 123.71 1087.77 124.315 1088.35 124.776C1088.93 125.236 1089.66 125.466 1090.56 125.466ZM1099.56 127V113.909H1101.51V115.886H1101.64C1101.88 115.239 1102.31 114.713 1102.94 114.31C1103.56 113.906 1104.27 113.705 1105.05 113.705C1105.2 113.705 1105.38 113.707 1105.61 113.713C1105.83 113.719 1106 113.727 1106.11 113.739V115.784C1106.04 115.767 1105.88 115.741 1105.64 115.707C1105.4 115.668 1105.15 115.648 1104.88 115.648C1104.25 115.648 1103.68 115.781 1103.18 116.048C1102.68 116.31 1102.29 116.673 1102 117.139C1101.72 117.599 1101.57 118.125 1101.57 118.716V127H1099.56ZM1113.04 127.273C1111.95 127.273 1110.98 126.997 1110.15 126.446C1109.31 125.889 1108.66 125.105 1108.19 124.094C1107.72 123.077 1107.48 121.875 1107.48 120.489C1107.48 119.114 1107.72 117.92 1108.19 116.909C1108.66 115.898 1109.32 115.116 1110.16 114.565C1111 114.014 1111.97 113.739 1113.07 113.739C1113.92 113.739 1114.6 113.881 1115.09 114.165C1115.59 114.443 1115.97 114.761 1116.23 115.119C1116.5 115.472 1116.71 115.761 1116.86 115.989H1117.03V109.545H1119.04V127H1117.09V124.989H1116.86C1116.71 125.227 1116.5 125.528 1116.23 125.892C1115.95 126.25 1115.56 126.571 1115.06 126.855C1114.55 127.134 1113.88 127.273 1113.04 127.273ZM1113.31 125.466C1114.12 125.466 1114.8 125.256 1115.36 124.835C1115.91 124.409 1116.34 123.821 1116.63 123.071C1116.92 122.315 1117.06 121.443 1117.06 120.455C1117.06 119.477 1116.92 118.622 1116.63 117.889C1116.35 117.151 1115.93 116.577 1115.37 116.168C1114.82 115.753 1114.13 115.545 1113.31 115.545C1112.46 115.545 1111.75 115.764 1111.18 116.202C1110.62 116.634 1110.19 117.222 1109.91 117.966C1109.63 118.705 1109.49 119.534 1109.49 120.455C1109.49 121.386 1109.63 122.233 1109.92 122.994C1110.21 123.75 1110.63 124.352 1111.2 124.801C1111.77 125.244 1112.47 125.466 1113.31 125.466ZM1128.49 127.273C1127.23 127.273 1126.14 126.994 1125.23 126.438C1124.32 125.875 1123.61 125.091 1123.12 124.085C1122.63 123.074 1122.39 121.898 1122.39 120.557C1122.39 119.216 1122.63 118.034 1123.12 117.011C1123.61 115.983 1124.3 115.182 1125.18 114.608C1126.07 114.028 1127.1 113.739 1128.29 113.739C1128.97 113.739 1129.64 113.852 1130.31 114.08C1130.97 114.307 1131.57 114.676 1132.12 115.188C1132.67 115.693 1133.1 116.364 1133.42 117.199C1133.75 118.034 1133.91 119.062 1133.91 120.284V121.136H1123.82V119.398H1131.86C1131.86 118.659 1131.72 118 1131.42 117.42C1131.13 116.841 1130.72 116.384 1130.18 116.048C1129.64 115.713 1129.01 115.545 1128.29 115.545C1127.48 115.545 1126.79 115.744 1126.21 116.142C1125.63 116.534 1125.18 117.045 1124.87 117.676C1124.56 118.307 1124.4 118.983 1124.4 119.705V120.864C1124.4 121.852 1124.57 122.69 1124.91 123.378C1125.26 124.06 1125.74 124.58 1126.35 124.938C1126.96 125.29 1127.68 125.466 1128.49 125.466C1129.02 125.466 1129.5 125.392 1129.92 125.244C1130.35 125.091 1130.73 124.864 1131.04 124.562C1131.35 124.256 1131.59 123.875 1131.76 123.42L1133.71 123.966C1133.5 124.625 1133.16 125.205 1132.67 125.705C1132.19 126.199 1131.59 126.585 1130.88 126.864C1130.17 127.136 1129.38 127.273 1128.49 127.273ZM1136.97 127V113.909H1138.91V115.886H1139.05C1139.29 115.239 1139.72 114.713 1140.34 114.31C1140.97 113.906 1141.67 113.705 1142.46 113.705C1142.61 113.705 1142.79 113.707 1143.01 113.713C1143.23 113.719 1143.4 113.727 1143.52 113.739V115.784C1143.45 115.767 1143.29 115.741 1143.05 115.707C1142.81 115.668 1142.56 115.648 1142.29 115.648C1141.65 115.648 1141.08 115.781 1140.58 116.048C1140.09 116.31 1139.7 116.673 1139.41 117.139C1139.12 117.599 1138.98 118.125 1138.98 118.716V127L1136.97 127ZM1155.17 116.841L1153.37 117.352C1153.25 117.051 1153.08 116.759 1152.86 116.474C1152.65 116.185 1152.35 115.946 1151.98 115.759C1151.6 115.571 1151.12 115.477 1150.54 115.477C1149.73 115.477 1149.07 115.662 1148.53 116.031C1148 116.395 1147.74 116.858 1147.74 117.42C1147.74 117.92 1147.92 118.315 1148.29 118.605C1148.65 118.895 1149.22 119.136 1149.99 119.33L1151.93 119.807C1153.1 120.091 1153.98 120.526 1154.55 121.111C1155.12 121.69 1155.41 122.437 1155.41 123.352C1155.41 124.102 1155.19 124.773 1154.76 125.364C1154.34 125.955 1153.74 126.42 1152.97 126.761C1152.21 127.102 1151.31 127.273 1150.3 127.273C1148.96 127.273 1147.86 126.983 1146.98 126.403C1146.11 125.824 1145.55 124.977 1145.32 123.864L1147.23 123.386C1147.41 124.091 1147.75 124.619 1148.26 124.972C1148.77 125.324 1149.44 125.5 1150.26 125.5C1151.2 125.5 1151.94 125.301 1152.5 124.903C1153.05 124.5 1153.33 124.017 1153.33 123.455C1153.33 123 1153.17 122.619 1152.85 122.313C1152.54 122 1152.05 121.767 1151.39 121.614L1149.21 121.102C1148.01 120.818 1147.13 120.378 1146.56 119.781C1146.01 119.179 1145.73 118.426 1145.73 117.523C1145.73 116.784 1145.94 116.131 1146.35 115.563C1146.77 114.994 1147.34 114.548 1148.06 114.224C1148.79 113.901 1149.62 113.739 1150.54 113.739C1151.83 113.739 1152.85 114.023 1153.59 114.591C1154.33 115.159 1154.86 115.909 1155.17 116.841Z" fill="#424242"/>
<path d="M539.526 924.077C539.402 923.027 538.898 922.211 538.013 921.63C537.128 921.05 536.043 920.76 534.758 920.76C533.818 920.76 532.996 920.912 532.291 921.216C531.593 921.52 531.047 921.938 530.653 922.47C530.266 923.002 530.072 923.607 530.072 924.284C530.072 924.851 530.207 925.338 530.476 925.746C530.753 926.147 531.105 926.482 531.534 926.752C531.962 927.014 532.412 927.232 532.881 927.405C533.351 927.571 533.783 927.705 534.177 927.809L536.334 928.389C536.886 928.535 537.502 928.735 538.179 928.991C538.863 929.246 539.516 929.595 540.138 930.038C540.767 930.473 541.285 931.033 541.693 931.717C542.101 932.401 542.305 933.241 542.305 934.236C542.305 935.383 542.004 936.42 541.403 937.346C540.808 938.272 539.938 939.008 538.79 939.554C537.65 940.1 536.264 940.373 534.633 940.373C533.113 940.373 531.796 940.128 530.684 939.637C529.578 939.146 528.707 938.462 528.071 937.585C527.442 936.707 527.087 935.688 527.004 934.526H529.657C529.727 935.328 529.996 935.992 530.466 936.517C530.943 937.035 531.544 937.422 532.27 937.678C533.002 937.927 533.79 938.051 534.633 938.051C535.615 938.051 536.496 937.892 537.277 937.574C538.058 937.249 538.676 936.8 539.133 936.227C539.589 935.646 539.817 934.969 539.817 934.195C539.817 933.49 539.62 932.916 539.226 932.474C538.832 932.032 538.314 931.672 537.671 931.396C537.028 931.119 536.334 930.877 535.587 930.67L532.975 929.924C531.316 929.447 530.003 928.766 529.035 927.882C528.068 926.997 527.584 925.839 527.584 924.409C527.584 923.22 527.906 922.183 528.548 921.299C529.198 920.407 530.069 919.716 531.161 919.225C532.259 918.728 533.486 918.479 534.841 918.479C536.209 918.479 537.425 918.724 538.49 919.215C539.554 919.699 540.397 920.362 541.019 921.205C541.648 922.049 541.98 923.006 542.014 924.077H539.526ZM552.669 940.332C551.231 940.332 549.97 939.99 548.885 939.305C547.807 938.621 546.964 937.664 546.355 936.434C545.754 935.204 545.454 933.766 545.454 932.121C545.454 930.463 545.754 929.015 546.355 927.778C546.964 926.541 547.807 925.58 548.885 924.896C549.97 924.212 551.231 923.87 552.669 923.87C554.106 923.87 555.364 924.212 556.442 924.896C557.527 925.58 558.37 926.541 558.971 927.778C559.58 929.015 559.884 930.463 559.884 932.121C559.884 933.766 559.58 935.204 558.971 936.434C558.37 937.664 557.527 938.621 556.442 939.305C555.364 939.99 554.106 940.332 552.669 940.332ZM552.669 938.134C553.761 938.134 554.659 937.854 555.364 937.294C556.069 936.735 556.591 935.999 556.929 935.086C557.268 934.174 557.437 933.186 557.437 932.121C557.437 931.057 557.268 930.065 556.929 929.146C556.591 928.227 556.069 927.484 555.364 926.917C554.659 926.351 553.761 926.067 552.669 926.067C551.577 926.067 550.678 926.351 549.973 926.917C549.268 927.484 548.747 928.227 548.408 929.146C548.069 930.065 547.9 931.057 547.9 932.121C547.9 933.186 548.069 934.174 548.408 935.086C548.747 935.999 549.268 936.735 549.973 937.294C550.678 937.854 551.577 938.134 552.669 938.134ZM563.618 940V924.077H565.982V926.565H566.189C566.521 925.715 567.057 925.055 567.796 924.585C568.535 924.108 569.424 923.87 570.46 923.87C571.511 923.87 572.385 924.108 573.083 924.585C573.788 925.055 574.337 925.715 574.731 926.565H574.897C575.305 925.743 575.916 925.089 576.732 924.606C577.547 924.115 578.525 923.87 579.666 923.87C581.089 923.87 582.254 924.315 583.159 925.207C584.065 926.092 584.517 927.47 584.517 929.343V940H582.071V929.343C582.071 928.168 581.749 927.329 581.107 926.824C580.464 926.32 579.707 926.067 578.836 926.067C577.717 926.067 576.849 926.406 576.234 927.083C575.619 927.754 575.312 928.604 575.312 929.633V940H572.824V929.094C572.824 928.189 572.53 927.46 571.943 926.907C571.355 926.347 570.598 926.067 569.672 926.067C569.037 926.067 568.442 926.237 567.889 926.575C567.343 926.914 566.901 927.384 566.562 927.985C566.231 928.58 566.065 929.267 566.065 930.048V940H563.618ZM595.666 940.332C594.132 940.332 592.809 939.993 591.696 939.316C590.59 938.632 589.737 937.678 589.136 936.455C588.541 935.224 588.244 933.794 588.244 932.163C588.244 930.532 588.541 929.094 589.136 927.85C589.737 926.6 590.573 925.625 591.644 924.927C592.722 924.222 593.98 923.87 595.418 923.87C596.247 923.87 597.066 924.008 597.875 924.284C598.683 924.561 599.419 925.01 600.083 925.632C600.746 926.247 601.275 927.063 601.669 928.078C602.063 929.094 602.26 930.345 602.26 931.831V932.868H589.986V930.753H599.772C599.772 929.855 599.592 929.053 599.233 928.348C598.88 927.643 598.376 927.087 597.719 926.679C597.069 926.271 596.302 926.067 595.418 926.067C594.443 926.067 593.6 926.309 592.888 926.793C592.183 927.27 591.641 927.892 591.261 928.659C590.881 929.426 590.691 930.249 590.691 931.126V932.536C590.691 933.739 590.898 934.758 591.313 935.594C591.734 936.424 592.318 937.056 593.064 937.491C593.811 937.92 594.678 938.134 595.666 938.134C596.309 938.134 596.89 938.044 597.408 937.864C597.933 937.678 598.386 937.401 598.766 937.035C599.146 936.662 599.44 936.199 599.647 935.646L602.011 936.31C601.762 937.111 601.344 937.816 600.756 938.424C600.169 939.026 599.443 939.495 598.579 939.834C597.716 940.166 596.745 940.332 595.666 940.332ZM617.799 940L612.948 924.077H615.518L618.96 936.268H619.126L622.526 924.077H625.139L628.497 936.227H628.663L632.105 924.077H634.676L629.824 940H627.419L623.936 927.767H623.687L620.204 940H617.799ZM637.91 940V924.077H640.357V940H637.91ZM639.154 921.423C638.677 921.423 638.266 921.261 637.921 920.936C637.582 920.611 637.413 920.221 637.413 919.764C637.413 919.308 637.582 918.918 637.921 918.593C638.266 918.268 638.677 918.106 639.154 918.106C639.631 918.106 640.039 918.268 640.377 918.593C640.723 918.918 640.896 919.308 640.896 919.764C640.896 920.221 640.723 920.611 640.377 920.936C640.039 921.261 639.631 921.423 639.154 921.423ZM647.284 930.421V940H644.838V924.077H647.201V926.565H647.409C647.782 925.756 648.348 925.107 649.109 924.616C649.869 924.118 650.85 923.87 652.053 923.87C653.131 923.87 654.074 924.091 654.883 924.533C655.691 924.969 656.32 925.632 656.77 926.523C657.219 927.408 657.443 928.528 657.443 929.882V940H654.997V930.048C654.997 928.797 654.672 927.823 654.022 927.125C653.373 926.42 652.481 926.067 651.348 926.067C650.567 926.067 649.869 926.237 649.254 926.575C648.646 926.914 648.165 927.408 647.813 928.058C647.46 928.707 647.284 929.495 647.284 930.421ZM667.927 940.332C666.6 940.332 665.428 939.997 664.412 939.326C663.396 938.649 662.602 937.695 662.028 936.465C661.454 935.228 661.168 933.766 661.168 932.08C661.168 930.407 661.454 928.956 662.028 927.726C662.602 926.496 663.4 925.546 664.423 924.875C665.445 924.205 666.627 923.87 667.968 923.87C669.005 923.87 669.824 924.042 670.425 924.388C671.033 924.727 671.496 925.114 671.814 925.549C672.139 925.978 672.391 926.33 672.571 926.606H672.778V918.769H675.225V940H672.861V937.553H672.571C672.391 937.844 672.135 938.21 671.804 938.652C671.472 939.088 670.998 939.478 670.383 939.824C669.768 940.162 668.949 940.332 667.927 940.332ZM668.258 938.134C669.24 938.134 670.069 937.878 670.746 937.367C671.423 936.849 671.938 936.133 672.291 935.221C672.643 934.302 672.82 933.241 672.82 932.038C672.82 930.85 672.647 929.81 672.301 928.918C671.956 928.02 671.444 927.322 670.767 926.824C670.09 926.32 669.253 926.067 668.258 926.067C667.222 926.067 666.358 926.333 665.667 926.866C664.982 927.391 664.468 928.106 664.122 929.011C663.783 929.91 663.614 930.919 663.614 932.038C663.614 933.172 663.787 934.202 664.132 935.128C664.485 936.047 665.003 936.779 665.687 937.325C666.378 937.864 667.235 938.134 668.258 938.134ZM686.514 940.332C685.076 940.332 683.815 939.99 682.73 939.305C681.652 938.621 680.809 937.664 680.2 936.434C679.599 935.204 679.299 933.766 679.299 932.121C679.299 930.463 679.599 929.015 680.2 927.778C680.809 926.541 681.652 925.58 682.73 924.896C683.815 924.212 685.076 923.87 686.514 923.87C687.951 923.87 689.209 924.212 690.287 924.896C691.372 925.58 692.215 926.541 692.817 927.778C693.425 929.015 693.729 930.463 693.729 932.121C693.729 933.766 693.425 935.204 692.817 936.434C692.215 937.664 691.372 938.621 690.287 939.305C689.209 939.99 687.951 940.332 686.514 940.332ZM686.514 938.134C687.606 938.134 688.504 937.854 689.209 937.294C689.914 936.735 690.436 935.999 690.774 935.086C691.113 934.174 691.282 933.186 691.282 932.121C691.282 931.057 691.113 930.065 690.774 929.146C690.436 928.227 689.914 927.484 689.209 926.917C688.504 926.351 687.606 926.067 686.514 926.067C685.422 926.067 684.523 926.351 683.818 926.917C683.113 927.484 682.592 928.227 682.253 929.146C681.914 930.065 681.745 931.057 681.745 932.121C681.745 933.186 681.914 934.174 682.253 935.086C682.592 935.999 683.113 936.735 683.818 937.294C684.523 937.854 685.422 938.134 686.514 938.134ZM700.529 940L695.678 924.077H698.249L701.69 936.268H701.856L705.256 924.077H707.869L711.228 936.227H711.393L714.835 924.077H717.406L712.554 940H710.149L706.666 927.767H706.417L702.934 940H700.529ZM735.319 940.332C733.882 940.332 732.621 939.99 731.536 939.305C730.458 938.621 729.614 937.664 729.006 936.434C728.405 935.204 728.104 933.766 728.104 932.121C728.104 930.463 728.405 929.015 729.006 927.778C729.614 926.541 730.458 925.58 731.536 924.896C732.621 924.212 733.882 923.87 735.319 923.87C736.757 923.87 738.015 924.212 739.093 924.896C740.178 925.58 741.021 926.541 741.622 927.778C742.23 929.015 742.535 930.463 742.535 932.121C742.535 933.766 742.23 935.204 741.622 936.434C741.021 937.664 740.178 938.621 739.093 939.305C738.015 939.99 736.757 940.332 735.319 940.332ZM735.319 938.134C736.411 938.134 737.31 937.854 738.015 937.294C738.72 936.735 739.241 935.999 739.58 935.086C739.919 934.174 740.088 933.186 740.088 932.121C740.088 931.057 739.919 930.065 739.58 929.146C739.241 928.227 738.72 927.484 738.015 926.917C737.31 926.351 736.411 926.067 735.319 926.067C734.227 926.067 733.329 926.351 732.624 926.917C731.919 927.484 731.397 928.227 731.059 929.146C730.72 930.065 730.551 931.057 730.551 932.121C730.551 933.186 730.72 934.174 731.059 935.086C731.397 935.999 731.919 936.735 732.624 937.294C733.329 937.854 734.227 938.134 735.319 938.134ZM753.36 924.077V926.15H744.776V924.077H753.36ZM747.347 940V921.879C747.347 920.967 747.561 920.207 747.99 919.599C748.418 918.99 748.975 918.534 749.659 918.23C750.343 917.926 751.065 917.774 751.826 917.774C752.427 917.774 752.918 917.822 753.298 917.919C753.678 918.016 753.961 918.106 754.148 918.189L753.443 920.304C753.318 920.262 753.146 920.21 752.924 920.148C752.71 920.086 752.427 920.055 752.074 920.055C751.266 920.055 750.682 920.259 750.322 920.666C749.97 921.074 749.794 921.672 749.794 922.46V940H747.347ZM771.924 924.077V926.15H763.672V924.077H771.924ZM766.077 920.262H768.523V935.439C768.523 936.13 768.624 936.648 768.824 936.994C769.031 937.332 769.294 937.56 769.612 937.678C769.937 937.788 770.279 937.844 770.638 937.844C770.908 937.844 771.129 937.83 771.302 937.802C771.475 937.768 771.613 937.74 771.716 937.719L772.214 939.917C772.048 939.979 771.817 940.041 771.519 940.104C771.222 940.173 770.846 940.207 770.389 940.207C769.698 940.207 769.021 940.059 768.358 939.762C767.701 939.464 767.155 939.012 766.72 938.404C766.291 937.795 766.077 937.028 766.077 936.102V920.262ZM775.604 940V924.077H778.05V940H775.604ZM776.848 921.423C776.371 921.423 775.96 921.261 775.614 920.936C775.276 920.611 775.106 920.221 775.106 919.764C775.106 919.308 775.276 918.918 775.614 918.593C775.96 918.268 776.371 918.106 776.848 918.106C777.325 918.106 777.732 918.268 778.071 918.593C778.417 918.918 778.589 919.308 778.589 919.764C778.589 920.221 778.417 920.611 778.071 920.936C777.732 921.261 777.325 921.423 776.848 921.423ZM782.531 940V924.077H784.895V926.565H785.102C785.434 925.715 785.97 925.055 786.709 924.585C787.448 924.108 788.337 923.87 789.373 923.87C790.424 923.87 791.298 924.108 791.996 924.585C792.701 925.055 793.25 925.715 793.644 926.565H793.81C794.218 925.743 794.829 925.089 795.645 924.606C796.46 924.115 797.438 923.87 798.579 923.87C800.002 923.87 801.167 924.315 802.072 925.207C802.978 926.092 803.43 927.47 803.43 929.343V940H800.984V929.343C800.984 928.168 800.662 927.329 800.02 926.824C799.377 926.32 798.62 926.067 797.749 926.067C796.63 926.067 795.762 926.406 795.147 927.083C794.532 927.754 794.225 928.604 794.225 929.633V940H791.737V929.094C791.737 928.189 791.443 927.46 790.856 926.907C790.268 926.347 789.511 926.067 788.585 926.067C787.95 926.067 787.355 926.237 786.802 926.575C786.256 926.914 785.814 927.384 785.475 927.985C785.144 928.58 784.978 929.267 784.978 930.048V940H782.531ZM814.579 940.332C813.045 940.332 811.722 939.993 810.609 939.316C809.503 938.632 808.65 937.678 808.049 936.455C807.454 935.224 807.157 933.794 807.157 932.163C807.157 930.532 807.454 929.094 808.049 927.85C808.65 926.6 809.486 925.625 810.557 924.927C811.635 924.222 812.893 923.87 814.331 923.87C815.16 923.87 815.979 924.008 816.788 924.284C817.596 924.561 818.332 925.01 818.996 925.632C819.659 926.247 820.188 927.063 820.582 928.078C820.976 929.094 821.173 930.345 821.173 931.831V932.868H808.899V930.753H818.685C818.685 929.855 818.505 929.053 818.146 928.348C817.793 927.643 817.289 927.087 816.632 926.679C815.982 926.271 815.215 926.067 814.331 926.067C813.356 926.067 812.513 926.309 811.801 926.793C811.096 927.27 810.554 927.892 810.174 928.659C809.794 929.426 809.604 930.249 809.604 931.126V932.536C809.604 933.739 809.811 934.758 810.226 935.594C810.647 936.424 811.231 937.056 811.977 937.491C812.724 937.92 813.591 938.134 814.579 938.134C815.222 938.134 815.803 938.044 816.321 937.864C816.846 937.678 817.299 937.401 817.679 937.035C818.059 936.662 818.353 936.199 818.56 935.646L820.924 936.31C820.675 937.111 820.257 937.816 819.669 938.424C819.082 939.026 818.356 939.495 817.492 939.834C816.629 940.166 815.658 940.332 814.579 940.332Z" fill="black"/>
<circle cx="225" cy="792" r="56" fill="#D9D9D9"/>
<circle cx="225" cy="647" r="56" fill="#D9D9D9"/>
<circle cx="372" cy="792" r="56" fill="#D9D9D9"/>
<circle cx="372" cy="647" r="56" fill="#D9D9D9"/>
<circle cx="599" cy="792" r="56" fill="#D9D9D9"/>
<circle cx="599" cy="647" r="56" fill="#D9D9D9"/>
<circle cx="746" cy="792" r="56" fill="#D9D9D9"/>
<circle cx="746" cy="647" r="56" fill="#D9D9D9"/>
<circle cx="973" cy="792" r="56" fill="#D9D9D9"/>
<circle cx="973" cy="647" r="56" fill="#D9D9D9"/>
<circle cx="1120" cy="792" r="56" fill="#D9D9D9"/>
<circle cx="1120" cy="647" r="56" fill="#D9D9D9"/>
<circle cx="225" cy="426" r="56" fill="#D9D9D9"/>
<circle cx="225" cy="281" r="56" fill="#D9D9D9"/>
<circle cx="372" cy="426" r="56" fill="#D9D9D9"/>
<circle cx="372" cy="281" r="56" fill="#D9D9D9"/>
<circle cx="599" cy="426" r="56" fill="white"/>
<circle cx="599" cy="281" r="56" fill="white"/>
<circle cx="746" cy="426" r="56" fill="white"/>
<circle cx="746" cy="281" r="56" fill="white"/>
<circle cx="973" cy="426" r="56" fill="#D9D9D9"/>
<circle cx="973" cy="281" r="56" fill="#D9D9D9"/>
<circle cx="1120" cy="426" r="56" fill="#D9D9D9"/>
<circle cx="1120" cy="281" r="56" fill="#D9D9D9"/>
<line y1="531" x2="1271" y2="531" stroke="#8B8B8B" stroke-width="4" stroke-dasharray="8 8"/>
<line x1="488" y1="940" x2="488" y2="125" stroke="#8B8B8B" stroke-width="4" stroke-dasharray="8 8"/>
<line x1="862" y1="940" x2="862" y2="125" stroke="#8B8B8B" stroke-width="4" stroke-dasharray="8 8"/>
<path d="M675.707 71.2929C675.317 70.9024 674.683 70.9024 674.293 71.2929L667.929 77.6569C667.538 78.0474 667.538 78.6805 667.929 79.0711C668.319 79.4616 668.953 79.4616 669.343 79.0711L675 73.4142L680.657 79.0711C681.047 79.4616 681.681 79.4616 682.071 79.0711C682.462 78.6805 682.462 78.0474 682.071 77.6569L675.707 71.2929ZM676 150.16L676 147.369L674 147.369L674 150.16L676 150.16ZM676 141.786L676 136.203L674 136.203L674 141.786L676 141.786ZM676 130.62L676 125.037L674 125.037L674 130.62L676 130.62ZM676 119.454L676 113.871L674 113.871L674 119.454L676 119.454ZM676 108.289L676 102.706L674 102.706L674 108.289L676 108.289ZM676 97.1229L676 91.54L674 91.54L674 97.1229L676 97.1229ZM676 85.9572L676 80.3743L674 80.3743L674 85.9572L676 85.9572ZM676 74.7914L676 72L674 72L674 74.7914L676 74.7914ZM676.414 70.5858C675.633 69.8047 674.367 69.8047 673.586 70.5858L660.858 83.3137C660.077 84.0948 660.077 85.3611 660.858 86.1421C661.639 86.9232 662.905 86.9232 663.686 86.1421L675 74.8284L686.314 86.1421C687.095 86.9232 688.361 86.9232 689.142 86.1421C689.923 85.3611 689.923 84.0948 689.142 83.3137L676.414 70.5858ZM677 150.16L677 147.369L673 147.369L673 150.16L677 150.16ZM677 141.786L677 136.203L673 136.203L673 141.786L677 141.786ZM677 130.62L677 125.037L673 125.037L673 130.62L677 130.62ZM677 119.454L677 113.871L673 113.871L673 119.454L677 119.454ZM677 108.289L677 102.706L673 102.706L673 108.289L677 108.289ZM677 97.1229L677 91.54L673 91.54L673 97.1229L677 97.1229ZM677 85.9572L677 80.3743L673 80.3743L673 85.9572L677 85.9572ZM677 74.7914L677 72L673 72L673 74.7914L677 74.7914Z" fill="black"/>
<path d="M1120.71 149.293C1120.32 148.902 1119.68 148.902 1119.29 149.293L1112.93 155.657C1112.54 156.047 1112.54 156.681 1112.93 157.071C1113.32 157.462 1113.95 157.462 1114.34 157.071L1120 151.414L1125.66 157.071C1126.05 157.462 1126.68 157.462 1127.07 157.071C1127.46 156.681 1127.46 156.047 1127.07 155.657L1120.71 149.293ZM1121 211L1121 207.95L1119 207.95L1119 211L1121 211ZM1121 201.85L1121 195.75L1119 195.75L1119 201.85L1121 201.85ZM1121 189.65L1121 183.55L1119 183.55L1119 189.65L1121 189.65ZM1121 177.45L1121 171.35L1119 171.35L1119 177.45L1121 177.45ZM1121 165.25L1121 159.15L1119 159.15L1119 165.25L1121 165.25ZM1121 153.05L1121 150L1119 150L1119 153.05L1121 153.05ZM1121.41 148.586C1120.63 147.805 1119.37 147.805 1118.59 148.586L1105.86 161.314C1105.08 162.095 1105.08 163.361 1105.86 164.142C1106.64 164.923 1107.91 164.923 1108.69 164.142L1120 152.828L1131.31 164.142C1132.09 164.923 1133.36 164.923 1134.14 164.142C1134.92 163.361 1134.92 162.095 1134.14 161.314L1121.41 148.586ZM1122 211L1122 207.95L1118 207.95L1118 211L1122 211ZM1122 201.85L1122 195.75L1118 195.75L1118 201.85L1122 201.85ZM1122 189.65L1122 183.55L1118 183.55L1118 189.65L1122 189.65ZM1122 177.45L1122 171.35L1118 171.35L1118 177.45L1122 177.45ZM1122 165.25L1122 159.15L1118 159.15L1118 165.25L1122 165.25ZM1122 153.05L1122 150L1118 150L1118 153.05L1122 153.05Z" fill="#948F8F"/>
</g>
<defs>
<clipPath id="clip0_302_2">
<rect width="1271" height="947" fill="white"/>
</clipPath>
</defs>
</svg>
