<svg width="1532" height="585" viewBox="0 0 1532 585" fill="none" xmlns="http://www.w3.org/2000/svg">
<g clip-path="url(#clip0_204_2)">
<rect width="1532" height="585" fill="white"/>
<rect width="362" height="213" fill="#DEDEDE"/>
<path d="M126.974 121.172H142.172V127H119.912V89.0425H126.974V121.172ZM156.822 99.6475C158.52 99.6475 160.077 99.9187 161.495 100.461C162.93 101.004 164.164 101.8 165.196 102.85C166.229 103.882 167.034 105.16 167.611 106.682C168.189 108.187 168.477 109.911 168.477 111.854C168.477 112.344 168.451 112.755 168.399 113.087C168.364 113.402 168.285 113.656 168.162 113.849C168.057 114.024 167.909 114.155 167.716 114.242C167.524 114.312 167.279 114.347 166.981 114.347H150.339C150.531 117.112 151.275 119.142 152.57 120.438C153.865 121.732 155.58 122.38 157.715 122.38C158.765 122.38 159.666 122.257 160.419 122.012C161.189 121.767 161.854 121.496 162.414 121.199C162.991 120.901 163.49 120.63 163.91 120.385C164.347 120.14 164.767 120.017 165.17 120.017C165.432 120.017 165.66 120.07 165.852 120.175C166.045 120.28 166.211 120.429 166.351 120.621L168.241 122.984C167.524 123.824 166.719 124.532 165.826 125.11C164.934 125.67 163.997 126.125 163.017 126.475C162.055 126.807 161.066 127.044 160.051 127.184C159.054 127.324 158.082 127.394 157.137 127.394C155.265 127.394 153.524 127.087 151.914 126.475C150.304 125.845 148.904 124.926 147.714 123.719C146.524 122.494 145.587 120.989 144.905 119.204C144.222 117.401 143.881 115.319 143.881 112.956C143.881 111.119 144.179 109.395 144.774 107.785C145.369 106.157 146.217 104.749 147.32 103.559C148.44 102.351 149.796 101.397 151.389 100.697C152.999 99.9975 154.81 99.6475 156.822 99.6475ZM156.954 104.294C155.064 104.294 153.585 104.827 152.517 105.895C151.45 106.962 150.767 108.476 150.47 110.436H162.65C162.65 109.596 162.536 108.809 162.309 108.074C162.081 107.321 161.731 106.665 161.259 106.105C160.786 105.545 160.191 105.107 159.474 104.792C158.756 104.46 157.916 104.294 156.954 104.294ZM178.526 113.114L169.68 100.067H175.927C176.4 100.067 176.75 100.137 176.977 100.277C177.205 100.4 177.406 100.61 177.581 100.907L183.225 109.911C183.312 109.614 183.417 109.316 183.54 109.019C183.68 108.721 183.846 108.424 184.039 108.126L188.58 101.039C188.79 100.706 189.009 100.461 189.236 100.304C189.464 100.146 189.744 100.067 190.076 100.067H196.035L187.162 112.825L196.402 127H190.155C189.682 127 189.297 126.877 189 126.632C188.72 126.387 188.484 126.107 188.291 125.792L182.569 116.421C182.411 117.051 182.192 117.576 181.912 117.996L176.872 125.792C176.68 126.09 176.444 126.37 176.164 126.632C175.884 126.877 175.534 127 175.114 127H169.312L178.526 113.114ZM210.04 99.6475C211.738 99.6475 213.295 99.9187 214.713 100.461C216.148 101.004 217.381 101.8 218.414 102.85C219.446 103.882 220.251 105.16 220.829 106.682C221.406 108.187 221.695 109.911 221.695 111.854C221.695 112.344 221.669 112.755 221.616 113.087C221.581 113.402 221.503 113.656 221.38 113.849C221.275 114.024 221.126 114.155 220.934 114.242C220.741 114.312 220.496 114.347 220.199 114.347H203.556C203.749 117.112 204.493 119.142 205.788 120.438C207.083 121.732 208.798 122.38 210.933 122.38C211.983 122.38 212.884 122.257 213.636 122.012C214.406 121.767 215.071 121.496 215.631 121.199C216.209 120.901 216.708 120.63 217.128 120.385C217.565 120.14 217.985 120.017 218.388 120.017C218.65 120.017 218.878 120.07 219.07 120.175C219.263 120.28 219.429 120.429 219.569 120.621L221.459 122.984C220.741 123.824 219.936 124.532 219.044 125.11C218.151 125.67 217.215 126.125 216.235 126.475C215.273 126.807 214.284 127.044 213.269 127.184C212.271 127.324 211.3 127.394 210.355 127.394C208.483 127.394 206.741 127.087 205.131 126.475C203.521 125.845 202.121 124.926 200.931 123.719C199.741 122.494 198.805 120.989 198.123 119.204C197.44 117.401 197.099 115.319 197.099 112.956C197.099 111.119 197.396 109.395 197.991 107.785C198.586 106.157 199.435 104.749 200.538 103.559C201.658 102.351 203.014 101.397 204.606 100.697C206.216 99.9975 208.028 99.6475 210.04 99.6475ZM210.171 104.294C208.281 104.294 206.803 104.827 205.735 105.895C204.668 106.962 203.985 108.476 203.688 110.436H215.868C215.868 109.596 215.754 108.809 215.526 108.074C215.299 107.321 214.949 106.665 214.476 106.105C214.004 105.545 213.409 105.107 212.691 104.792C211.974 104.46 211.134 104.294 210.171 104.294ZM226.955 127V100.067H230.761C231.426 100.067 231.89 100.19 232.152 100.435C232.415 100.68 232.59 101.1 232.677 101.695L233.071 104.95C234.033 103.287 235.162 101.975 236.457 101.012C237.752 100.05 239.205 99.5687 240.815 99.5687C242.145 99.5687 243.247 99.875 244.122 100.488L243.282 105.344C243.23 105.659 243.116 105.886 242.941 106.026C242.766 106.149 242.53 106.21 242.232 106.21C241.97 106.21 241.611 106.149 241.156 106.026C240.701 105.904 240.097 105.842 239.345 105.842C237.997 105.842 236.842 106.219 235.88 106.971C234.917 107.706 234.103 108.791 233.438 110.226V127H226.955Z" fill="#1F3754"/>
<rect x="585" width="362" height="213" fill="#DEDEDE"/>
<path d="M661.215 89.0425V94.66H644.389V105.895H658.59V111.539H644.389V127H637.275V89.0425H661.215ZM687.492 127H684.579C683.966 127 683.485 126.912 683.135 126.737C682.785 126.545 682.522 126.169 682.347 125.609L681.77 123.692C681.087 124.305 680.414 124.847 679.749 125.32C679.101 125.775 678.427 126.16 677.727 126.475C677.027 126.79 676.284 127.026 675.496 127.184C674.709 127.341 673.834 127.42 672.871 127.42C671.734 127.42 670.684 127.271 669.721 126.974C668.759 126.659 667.927 126.195 667.227 125.582C666.545 124.97 666.011 124.209 665.626 123.299C665.241 122.389 665.049 121.33 665.049 120.122C665.049 119.107 665.311 118.11 665.836 117.13C666.379 116.132 667.271 115.24 668.514 114.452C669.756 113.647 671.41 112.982 673.475 112.457C675.54 111.932 678.104 111.635 681.166 111.565V109.99C681.166 108.187 680.781 106.857 680.011 106C679.259 105.125 678.156 104.687 676.704 104.687C675.654 104.687 674.779 104.81 674.079 105.055C673.379 105.3 672.766 105.58 672.241 105.895C671.734 106.192 671.261 106.464 670.824 106.709C670.386 106.954 669.905 107.076 669.38 107.076C668.942 107.076 668.566 106.962 668.251 106.735C667.936 106.507 667.682 106.227 667.49 105.895L666.309 103.821C669.406 100.986 673.142 99.5687 677.517 99.5687C679.092 99.5687 680.492 99.8312 681.717 100.356C682.96 100.864 684.01 101.581 684.867 102.509C685.725 103.419 686.372 104.512 686.81 105.79C687.265 107.067 687.492 108.467 687.492 109.99V127ZM674.892 122.957C675.557 122.957 676.17 122.896 676.73 122.774C677.29 122.651 677.815 122.467 678.305 122.222C678.812 121.977 679.294 121.68 679.749 121.33C680.221 120.962 680.694 120.534 681.166 120.044V115.502C679.276 115.59 677.692 115.756 676.415 116.001C675.155 116.229 674.14 116.526 673.37 116.894C672.6 117.261 672.049 117.69 671.716 118.18C671.401 118.67 671.244 119.204 671.244 119.781C671.244 120.919 671.576 121.732 672.241 122.222C672.924 122.712 673.807 122.957 674.892 122.957ZM709.854 105.317C709.679 105.597 709.495 105.799 709.303 105.921C709.11 106.026 708.865 106.079 708.568 106.079C708.253 106.079 707.912 105.991 707.544 105.816C707.194 105.641 706.783 105.449 706.31 105.239C705.838 105.011 705.295 104.81 704.683 104.635C704.088 104.46 703.379 104.372 702.557 104.372C701.279 104.372 700.273 104.644 699.538 105.186C698.803 105.729 698.435 106.437 698.435 107.312C698.435 107.89 698.619 108.38 698.987 108.782C699.372 109.167 699.87 109.509 700.483 109.806C701.113 110.104 701.822 110.375 702.609 110.62C703.397 110.847 704.202 111.101 705.024 111.381C705.847 111.661 706.652 111.985 707.439 112.352C708.227 112.702 708.927 113.157 709.539 113.717C710.169 114.26 710.668 114.916 711.035 115.686C711.42 116.456 711.613 117.384 711.613 118.469C711.613 119.764 711.377 120.962 710.904 122.065C710.432 123.15 709.74 124.095 708.83 124.9C707.92 125.687 706.792 126.309 705.444 126.764C704.114 127.201 702.583 127.42 700.85 127.42C699.923 127.42 699.013 127.333 698.12 127.158C697.245 127 696.397 126.772 695.574 126.475C694.769 126.177 694.017 125.827 693.317 125.425C692.634 125.022 692.03 124.585 691.505 124.112L693.002 121.645C693.194 121.347 693.422 121.12 693.684 120.962C693.947 120.805 694.279 120.726 694.682 120.726C695.084 120.726 695.46 120.84 695.81 121.067C696.178 121.295 696.598 121.54 697.07 121.802C697.543 122.065 698.094 122.31 698.724 122.537C699.372 122.765 700.185 122.879 701.165 122.879C701.935 122.879 702.592 122.791 703.134 122.616C703.694 122.424 704.149 122.179 704.499 121.881C704.867 121.584 705.129 121.242 705.287 120.857C705.462 120.455 705.549 120.044 705.549 119.624C705.549 118.994 705.357 118.477 704.972 118.075C704.604 117.672 704.105 117.322 703.475 117.025C702.863 116.727 702.154 116.465 701.349 116.237C700.562 115.992 699.748 115.73 698.908 115.45C698.085 115.17 697.272 114.846 696.467 114.479C695.679 114.094 694.97 113.612 694.34 113.035C693.728 112.457 693.229 111.749 692.844 110.909C692.477 110.069 692.293 109.054 692.293 107.864C692.293 106.761 692.512 105.711 692.949 104.714C693.387 103.716 694.025 102.85 694.865 102.115C695.723 101.362 696.782 100.767 698.042 100.33C699.319 99.875 700.789 99.6475 702.452 99.6475C704.307 99.6475 705.995 99.9537 707.518 100.566C709.04 101.179 710.309 101.984 711.324 102.981L709.854 105.317ZM725.632 127.42C723.304 127.42 721.51 126.764 720.25 125.451C718.99 124.121 718.36 122.292 718.36 119.965V104.924H715.63C715.28 104.924 714.974 104.81 714.712 104.582C714.467 104.355 714.344 104.014 714.344 103.559V100.986L718.675 100.277L720.04 92.9275C720.11 92.5775 720.268 92.3062 720.513 92.1137C720.775 91.9212 721.099 91.825 721.484 91.825H724.844V100.304H731.932V104.924H724.844V119.519C724.844 120.359 725.054 121.015 725.474 121.487C725.894 121.96 726.454 122.196 727.154 122.196C727.557 122.196 727.889 122.152 728.152 122.065C728.432 121.96 728.668 121.855 728.86 121.75C729.07 121.645 729.254 121.549 729.412 121.461C729.569 121.356 729.727 121.304 729.884 121.304C730.077 121.304 730.234 121.356 730.357 121.461C730.479 121.549 730.61 121.689 730.75 121.881L732.693 125.031C731.748 125.819 730.663 126.414 729.438 126.816C728.213 127.219 726.944 127.42 725.632 127.42ZM754.904 113.639V127H747.843V89.0425H760.207C762.744 89.0425 764.941 89.34 766.796 89.935C768.651 90.53 770.182 91.3612 771.389 92.4287C772.597 93.4962 773.489 94.7737 774.067 96.2612C774.644 97.7487 774.933 99.3762 774.933 101.144C774.933 102.981 774.627 104.67 774.014 106.21C773.402 107.732 772.483 109.045 771.258 110.147C770.033 111.25 768.502 112.107 766.664 112.72C764.827 113.332 762.674 113.639 760.207 113.639H754.904ZM754.904 108.126H760.207C761.502 108.126 762.631 107.969 763.593 107.654C764.556 107.321 765.352 106.857 765.982 106.262C766.612 105.65 767.084 104.915 767.399 104.057C767.714 103.182 767.872 102.211 767.872 101.144C767.872 100.129 767.714 99.21 767.399 98.3875C767.084 97.565 766.612 96.865 765.982 96.2875C765.352 95.71 764.556 95.2725 763.593 94.975C762.631 94.66 761.502 94.5025 760.207 94.5025H754.904V108.126ZM799.824 127H796.91C796.298 127 795.816 126.912 795.466 126.737C795.116 126.545 794.854 126.169 794.679 125.609L794.101 123.692C793.419 124.305 792.745 124.847 792.08 125.32C791.433 125.775 790.759 126.16 790.059 126.475C789.359 126.79 788.615 127.026 787.828 127.184C787.04 127.341 786.165 127.42 785.203 127.42C784.065 127.42 783.015 127.271 782.053 126.974C781.09 126.659 780.259 126.195 779.559 125.582C778.876 124.97 778.343 124.209 777.958 123.299C777.573 122.389 777.38 121.33 777.38 120.122C777.38 119.107 777.643 118.11 778.168 117.13C778.71 116.132 779.603 115.24 780.845 114.452C782.088 113.647 783.741 112.982 785.806 112.457C787.871 111.932 790.435 111.635 793.498 111.565V109.99C793.498 108.187 793.113 106.857 792.343 106C791.59 105.125 790.488 104.687 789.035 104.687C787.985 104.687 787.11 104.81 786.41 105.055C785.71 105.3 785.098 105.58 784.573 105.895C784.065 106.192 783.593 106.464 783.155 106.709C782.718 106.954 782.236 107.076 781.711 107.076C781.274 107.076 780.898 106.962 780.583 106.735C780.268 106.507 780.014 106.227 779.821 105.895L778.64 103.821C781.738 100.986 785.474 99.5687 789.849 99.5687C791.424 99.5687 792.824 99.8312 794.049 100.356C795.291 100.864 796.341 101.581 797.199 102.509C798.056 103.419 798.704 104.512 799.141 105.79C799.596 107.067 799.824 108.467 799.824 109.99V127ZM787.224 122.957C787.889 122.957 788.501 122.896 789.061 122.774C789.621 122.651 790.146 122.467 790.636 122.222C791.144 121.977 791.625 121.68 792.08 121.33C792.553 120.962 793.025 120.534 793.498 120.044V115.502C791.608 115.59 790.024 115.756 788.746 116.001C787.486 116.229 786.471 116.526 785.701 116.894C784.931 117.261 784.38 117.69 784.048 118.18C783.733 118.67 783.575 119.204 783.575 119.781C783.575 120.919 783.908 121.732 784.573 122.222C785.255 122.712 786.139 122.957 787.224 122.957ZM806.199 127V100.067H810.006C810.671 100.067 811.134 100.19 811.397 100.435C811.659 100.68 811.834 101.1 811.922 101.695L812.316 104.95C813.278 103.287 814.407 101.975 815.702 101.012C816.997 100.05 818.449 99.5687 820.059 99.5687C821.389 99.5687 822.492 99.875 823.367 100.488L822.527 105.344C822.474 105.659 822.361 105.886 822.186 106.026C822.011 106.149 821.774 106.21 821.477 106.21C821.214 106.21 820.856 106.149 820.401 106.026C819.946 105.904 819.342 105.842 818.589 105.842C817.242 105.842 816.087 106.219 815.124 106.971C814.162 107.706 813.348 108.791 812.683 110.226V127H806.199ZM843.616 105.317C843.441 105.597 843.258 105.799 843.065 105.921C842.873 106.026 842.628 106.079 842.33 106.079C842.015 106.079 841.674 105.991 841.306 105.816C840.956 105.641 840.545 105.449 840.073 105.239C839.6 105.011 839.058 104.81 838.445 104.635C837.85 104.46 837.141 104.372 836.319 104.372C835.041 104.372 834.035 104.644 833.3 105.186C832.565 105.729 832.198 106.437 832.198 107.312C832.198 107.89 832.381 108.38 832.749 108.782C833.134 109.167 833.633 109.509 834.245 109.806C834.875 110.104 835.584 110.375 836.371 110.62C837.159 110.847 837.964 111.101 838.786 111.381C839.609 111.661 840.414 111.985 841.201 112.352C841.989 112.702 842.689 113.157 843.301 113.717C843.931 114.26 844.43 114.916 844.798 115.686C845.183 116.456 845.375 117.384 845.375 118.469C845.375 119.764 845.139 120.962 844.666 122.065C844.194 123.15 843.503 124.095 842.593 124.9C841.683 125.687 840.554 126.309 839.206 126.764C837.876 127.201 836.345 127.42 834.613 127.42C833.685 127.42 832.775 127.333 831.883 127.158C831.008 127 830.159 126.772 829.336 126.475C828.531 126.177 827.779 125.827 827.079 125.425C826.396 125.022 825.793 124.585 825.268 124.112L826.764 121.645C826.956 121.347 827.184 121.12 827.446 120.962C827.709 120.805 828.041 120.726 828.444 120.726C828.846 120.726 829.223 120.84 829.573 121.067C829.94 121.295 830.36 121.54 830.833 121.802C831.305 122.065 831.856 122.31 832.486 122.537C833.134 122.765 833.948 122.879 834.928 122.879C835.698 122.879 836.354 122.791 836.896 122.616C837.456 122.424 837.911 122.179 838.261 121.881C838.629 121.584 838.891 121.242 839.049 120.857C839.224 120.455 839.311 120.044 839.311 119.624C839.311 118.994 839.119 118.477 838.734 118.075C838.366 117.672 837.868 117.322 837.238 117.025C836.625 116.727 835.916 116.465 835.111 116.237C834.324 115.992 833.51 115.73 832.67 115.45C831.848 115.17 831.034 114.846 830.229 114.479C829.441 114.094 828.733 113.612 828.103 113.035C827.49 112.457 826.991 111.749 826.606 110.909C826.239 110.069 826.055 109.054 826.055 107.864C826.055 106.761 826.274 105.711 826.711 104.714C827.149 103.716 827.788 102.85 828.628 102.115C829.485 101.362 830.544 100.767 831.804 100.33C833.081 99.875 834.551 99.6475 836.214 99.6475C838.069 99.6475 839.758 99.9537 841.28 100.566C842.803 101.179 844.071 101.984 845.086 102.981L843.616 105.317ZM861.678 99.6475C863.375 99.6475 864.933 99.9187 866.35 100.461C867.785 101.004 869.019 101.8 870.051 102.85C871.084 103.882 871.889 105.16 872.466 106.682C873.044 108.187 873.333 109.911 873.333 111.854C873.333 112.344 873.306 112.755 873.254 113.087C873.219 113.402 873.14 113.656 873.018 113.849C872.913 114.024 872.764 114.155 872.571 114.242C872.379 114.312 872.134 114.347 871.836 114.347H855.194C855.386 117.112 856.13 119.142 857.425 120.438C858.72 121.732 860.435 122.38 862.57 122.38C863.62 122.38 864.521 122.257 865.274 122.012C866.044 121.767 866.709 121.496 867.269 121.199C867.846 120.901 868.345 120.63 868.765 120.385C869.203 120.14 869.623 120.017 870.025 120.017C870.288 120.017 870.515 120.07 870.708 120.175C870.9 120.28 871.066 120.429 871.206 120.621L873.096 122.984C872.379 123.824 871.574 124.532 870.681 125.11C869.789 125.67 868.853 126.125 867.873 126.475C866.91 126.807 865.921 127.044 864.906 127.184C863.909 127.324 862.938 127.394 861.993 127.394C860.12 127.394 858.379 127.087 856.769 126.475C855.159 125.845 853.759 124.926 852.569 123.719C851.379 122.494 850.443 120.989 849.76 119.204C849.078 117.401 848.736 115.319 848.736 112.956C848.736 111.119 849.034 109.395 849.629 107.785C850.224 106.157 851.073 104.749 852.175 103.559C853.295 102.351 854.651 101.397 856.244 100.697C857.854 99.9975 859.665 99.6475 861.678 99.6475ZM861.809 104.294C859.919 104.294 858.44 104.827 857.373 105.895C856.305 106.962 855.623 108.476 855.325 110.436H867.505C867.505 109.596 867.391 108.809 867.164 108.074C866.936 107.321 866.586 106.665 866.114 106.105C865.641 105.545 865.046 105.107 864.329 104.792C863.611 104.46 862.771 104.294 861.809 104.294ZM878.592 127V100.067H882.398C883.063 100.067 883.527 100.19 883.789 100.435C884.052 100.68 884.227 101.1 884.314 101.695L884.708 104.95C885.671 103.287 886.799 101.975 888.094 101.012C889.389 100.05 890.842 99.5687 892.452 99.5687C893.782 99.5687 894.884 99.875 895.759 100.488L894.919 105.344C894.867 105.659 894.753 105.886 894.578 106.026C894.403 106.149 894.167 106.21 893.869 106.21C893.607 106.21 893.248 106.149 892.793 106.026C892.338 105.904 891.734 105.842 890.982 105.842C889.634 105.842 888.479 106.219 887.517 106.971C886.554 107.706 885.741 108.791 885.076 110.226V127H878.592Z" fill="#1F3754"/>
<rect x="584" y="372" width="362" height="213" fill="#DEDEDE"/>
<path d="M703.233 499H697.773C697.161 499 696.653 498.851 696.251 498.554C695.866 498.239 695.586 497.854 695.411 497.399L692.576 489.655H676.852L674.017 497.399C673.877 497.801 673.597 498.169 673.177 498.501C672.774 498.834 672.276 499 671.681 499H666.194L681.104 461.042H688.323L703.233 499ZM678.663 484.667H690.764L686.144 472.041C685.934 471.481 685.698 470.825 685.436 470.073C685.191 469.302 684.946 468.471 684.701 467.579C684.456 468.471 684.211 469.302 683.966 470.073C683.738 470.842 683.511 471.516 683.283 472.094L678.663 484.667ZM706.775 499V472.067H710.739C711.579 472.067 712.13 472.461 712.392 473.249L712.839 475.375C713.381 474.815 713.95 474.307 714.545 473.852C715.157 473.397 715.796 473.004 716.461 472.671C717.144 472.339 717.87 472.085 718.64 471.91C719.41 471.735 720.25 471.647 721.16 471.647C722.63 471.647 723.934 471.901 725.071 472.409C726.209 472.899 727.154 473.599 727.906 474.509C728.676 475.401 729.254 476.477 729.639 477.737C730.041 478.98 730.242 480.354 730.242 481.859V499H723.759V481.859C723.759 480.214 723.374 478.945 722.604 478.052C721.851 477.142 720.714 476.687 719.191 476.687C718.071 476.687 717.021 476.941 716.041 477.449C715.061 477.956 714.134 478.647 713.259 479.522V499H706.775ZM757.719 499H754.805C754.192 499 753.711 498.912 753.361 498.737C753.011 498.545 752.749 498.169 752.574 497.609L751.996 495.692C751.314 496.305 750.64 496.847 749.975 497.32C749.327 497.775 748.654 498.16 747.954 498.475C747.254 498.79 746.51 499.026 745.722 499.184C744.935 499.341 744.06 499.42 743.097 499.42C741.96 499.42 740.91 499.271 739.947 498.974C738.985 498.659 738.154 498.195 737.454 497.582C736.771 496.97 736.237 496.209 735.852 495.299C735.467 494.389 735.275 493.33 735.275 492.122C735.275 491.107 735.537 490.11 736.062 489.13C736.605 488.132 737.497 487.24 738.74 486.452C739.982 485.647 741.636 484.982 743.701 484.457C745.766 483.932 748.33 483.635 751.392 483.565V481.99C751.392 480.187 751.007 478.857 750.237 478C749.485 477.125 748.382 476.687 746.93 476.687C745.88 476.687 745.005 476.81 744.305 477.055C743.605 477.3 742.992 477.58 742.467 477.895C741.96 478.192 741.487 478.464 741.05 478.709C740.612 478.954 740.131 479.076 739.606 479.076C739.169 479.076 738.792 478.962 738.477 478.735C738.162 478.507 737.909 478.227 737.716 477.895L736.535 475.821C739.632 472.986 743.369 471.569 747.744 471.569C749.319 471.569 750.719 471.831 751.944 472.356C753.186 472.864 754.236 473.581 755.094 474.509C755.951 475.419 756.599 476.512 757.036 477.79C757.491 479.067 757.719 480.467 757.719 481.99V499ZM745.119 494.957C745.784 494.957 746.396 494.896 746.956 494.774C747.516 494.651 748.041 494.467 748.531 494.222C749.039 493.977 749.52 493.68 749.975 493.33C750.447 492.962 750.92 492.534 751.392 492.044V487.502C749.502 487.59 747.919 487.756 746.641 488.001C745.381 488.229 744.366 488.526 743.596 488.894C742.826 489.261 742.275 489.69 741.942 490.18C741.627 490.67 741.47 491.204 741.47 491.781C741.47 492.919 741.802 493.732 742.467 494.222C743.15 494.712 744.034 494.957 745.119 494.957ZM770.998 459.992V499H764.514V459.992H770.998ZM787.902 506.403C787.71 506.858 787.456 507.199 787.141 507.426C786.843 507.671 786.38 507.794 785.75 507.794H780.92L785.96 497.005L775.066 472.067H780.736C781.261 472.067 781.663 472.19 781.943 472.435C782.223 472.68 782.433 472.96 782.573 473.275L788.322 487.24C788.515 487.695 788.681 488.167 788.821 488.657C788.961 489.147 789.083 489.637 789.188 490.127C789.328 489.62 789.477 489.13 789.635 488.657C789.81 488.185 789.993 487.704 790.186 487.214L795.593 473.275C795.733 472.925 795.961 472.636 796.276 472.409C796.608 472.181 796.976 472.067 797.378 472.067H802.576L787.902 506.403ZM822.326 477.317C822.151 477.597 821.968 477.799 821.775 477.921C821.583 478.026 821.338 478.079 821.04 478.079C820.725 478.079 820.384 477.991 820.016 477.816C819.666 477.641 819.255 477.449 818.783 477.239C818.31 477.011 817.768 476.81 817.155 476.635C816.56 476.46 815.851 476.372 815.029 476.372C813.751 476.372 812.745 476.644 812.01 477.186C811.275 477.729 810.908 478.437 810.908 479.312C810.908 479.89 811.091 480.38 811.459 480.782C811.844 481.167 812.343 481.509 812.955 481.806C813.585 482.104 814.294 482.375 815.081 482.62C815.869 482.847 816.674 483.101 817.496 483.381C818.319 483.661 819.124 483.985 819.911 484.352C820.699 484.702 821.399 485.157 822.011 485.717C822.641 486.26 823.14 486.916 823.508 487.686C823.893 488.456 824.085 489.384 824.085 490.469C824.085 491.764 823.849 492.962 823.376 494.065C822.904 495.15 822.213 496.095 821.303 496.9C820.393 497.687 819.264 498.309 817.916 498.764C816.586 499.201 815.055 499.42 813.323 499.42C812.395 499.42 811.485 499.333 810.593 499.158C809.718 499 808.869 498.772 808.046 498.475C807.241 498.177 806.489 497.827 805.789 497.425C805.106 497.022 804.503 496.585 803.978 496.112L805.474 493.645C805.666 493.347 805.894 493.12 806.156 492.962C806.419 492.805 806.751 492.726 807.154 492.726C807.556 492.726 807.933 492.84 808.283 493.067C808.65 493.295 809.07 493.54 809.543 493.802C810.015 494.065 810.566 494.31 811.196 494.537C811.844 494.765 812.658 494.879 813.638 494.879C814.408 494.879 815.064 494.791 815.606 494.616C816.166 494.424 816.621 494.179 816.971 493.881C817.339 493.584 817.601 493.242 817.759 492.857C817.934 492.455 818.021 492.044 818.021 491.624C818.021 490.994 817.829 490.477 817.444 490.075C817.076 489.672 816.578 489.322 815.948 489.025C815.335 488.727 814.626 488.465 813.821 488.237C813.034 487.992 812.22 487.73 811.38 487.45C810.558 487.17 809.744 486.846 808.939 486.479C808.151 486.094 807.443 485.612 806.813 485.035C806.2 484.457 805.701 483.749 805.316 482.909C804.949 482.069 804.765 481.054 804.765 479.864C804.765 478.761 804.984 477.711 805.421 476.714C805.859 475.716 806.498 474.85 807.338 474.115C808.195 473.362 809.254 472.767 810.514 472.33C811.791 471.875 813.261 471.647 814.924 471.647C816.779 471.647 818.468 471.954 819.99 472.566C821.513 473.179 822.781 473.984 823.796 474.981L822.326 477.317ZM836.161 472.067V499H829.678V472.067H836.161ZM837.133 464.219C837.133 464.779 837.019 465.304 836.791 465.794C836.564 466.284 836.258 466.712 835.873 467.08C835.505 467.447 835.068 467.745 834.56 467.972C834.053 468.182 833.51 468.287 832.933 468.287C832.373 468.287 831.839 468.182 831.331 467.972C830.841 467.745 830.413 467.447 830.045 467.08C829.678 466.712 829.38 466.284 829.153 465.794C828.943 465.304 828.838 464.779 828.838 464.219C828.838 463.641 828.943 463.099 829.153 462.591C829.38 462.084 829.678 461.646 830.045 461.279C830.413 460.911 830.841 460.622 831.331 460.412C831.839 460.185 832.373 460.071 832.933 460.071C833.51 460.071 834.053 460.185 834.56 460.412C835.068 460.622 835.505 460.911 835.873 461.279C836.258 461.646 836.564 462.084 836.791 462.591C837.019 463.099 837.133 463.641 837.133 464.219ZM859.497 477.317C859.322 477.597 859.138 477.799 858.946 477.921C858.753 478.026 858.508 478.079 858.211 478.079C857.896 478.079 857.554 477.991 857.187 477.816C856.837 477.641 856.426 477.449 855.953 477.239C855.481 477.011 854.938 476.81 854.326 476.635C853.731 476.46 853.022 476.372 852.199 476.372C850.922 476.372 849.916 476.644 849.181 477.186C848.446 477.729 848.078 478.437 848.078 479.312C848.078 479.89 848.262 480.38 848.629 480.782C849.014 481.167 849.513 481.509 850.126 481.806C850.756 482.104 851.464 482.375 852.252 482.62C853.039 482.847 853.844 483.101 854.667 483.381C855.489 483.661 856.294 483.985 857.082 484.352C857.869 484.702 858.569 485.157 859.182 485.717C859.812 486.26 860.311 486.916 860.678 487.686C861.063 488.456 861.256 489.384 861.256 490.469C861.256 491.764 861.019 492.962 860.547 494.065C860.074 495.15 859.383 496.095 858.473 496.9C857.563 497.687 856.434 498.309 855.087 498.764C853.757 499.201 852.226 499.42 850.493 499.42C849.566 499.42 848.656 499.333 847.763 499.158C846.888 499 846.039 498.772 845.217 498.475C844.412 498.177 843.659 497.827 842.959 497.425C842.277 497.022 841.673 496.585 841.148 496.112L842.644 493.645C842.837 493.347 843.064 493.12 843.327 492.962C843.589 492.805 843.922 492.726 844.324 492.726C844.727 492.726 845.103 492.84 845.453 493.067C845.821 493.295 846.241 493.54 846.713 493.802C847.186 494.065 847.737 494.31 848.367 494.537C849.014 494.765 849.828 494.879 850.808 494.879C851.578 494.879 852.234 494.791 852.777 494.616C853.337 494.424 853.792 494.179 854.142 493.881C854.509 493.584 854.772 493.242 854.929 492.857C855.104 492.455 855.192 492.044 855.192 491.624C855.192 490.994 854.999 490.477 854.614 490.075C854.247 489.672 853.748 489.322 853.118 489.025C852.506 488.727 851.797 488.465 850.992 488.237C850.204 487.992 849.391 487.73 848.551 487.45C847.728 487.17 846.914 486.846 846.109 486.479C845.322 486.094 844.613 485.612 843.983 485.035C843.371 484.457 842.872 483.749 842.487 482.909C842.119 482.069 841.936 481.054 841.936 479.864C841.936 478.761 842.154 477.711 842.592 476.714C843.029 475.716 843.668 474.85 844.508 474.115C845.366 473.362 846.424 472.767 847.684 472.33C848.962 471.875 850.432 471.647 852.094 471.647C853.949 471.647 855.638 471.954 857.161 472.566C858.683 473.179 859.952 473.984 860.967 474.981L859.497 477.317Z" fill="#1F3754"/>
<path d="M549.094 109.094C550.802 107.385 550.802 104.615 549.094 102.906L521.251 75.0641C519.543 73.3555 516.773 73.3555 515.064 75.0641C513.356 76.7726 513.356 79.5427 515.064 81.2513L539.813 106L515.064 130.749C513.356 132.457 513.356 135.227 515.064 136.936C516.773 138.644 519.543 138.644 521.251 136.936L549.094 109.094ZM401 110.375H546V101.625H401V110.375Z" fill="#C4C4C4"/>
<path d="M662.906 339.094C664.615 340.802 667.385 340.802 669.094 339.094L696.936 311.251C698.644 309.543 698.644 306.773 696.936 305.064C695.227 303.356 692.457 303.356 690.749 305.064L666 329.813L641.251 305.064C639.543 303.356 636.773 303.356 635.064 305.064C633.356 306.773 633.356 309.543 635.064 311.251L662.906 339.094ZM661.625 249L661.625 336L670.375 336L670.375 249L661.625 249Z" fill="#C4C4C4"/>
<path d="M1347.91 339.094C1349.61 340.802 1352.39 340.802 1354.09 339.094L1381.94 311.251C1383.64 309.543 1383.64 306.773 1381.94 305.064C1380.23 303.356 1377.46 303.356 1375.75 305.064L1351 329.813L1326.25 305.064C1324.54 303.356 1321.77 303.356 1320.06 305.064C1318.36 306.773 1318.36 309.543 1320.06 311.251L1347.91 339.094ZM1346.62 249L1346.62 336L1355.37 336L1355.38 249L1346.62 249Z" fill="#C4C4C4"/>
<path d="M866.094 245.906C864.385 244.198 861.615 244.198 859.906 245.906L832.064 273.749C830.356 275.457 830.356 278.227 832.064 279.936C833.773 281.644 836.543 281.644 838.251 279.936L863 255.187L887.749 279.936C889.457 281.644 892.227 281.644 893.936 279.936C895.644 278.227 895.644 275.457 893.936 273.749L866.094 245.906ZM867.375 336L867.375 249L858.625 249L858.625 336L867.375 336Z" fill="#C4C4C4"/>
<rect x="1170" width="362" height="213" fill="#DEDEDE"/>
<path d="M1232.64 107.648C1232.64 110.192 1232.22 112.528 1231.37 114.656C1230.52 116.784 1229.33 118.616 1227.79 120.152C1226.26 121.688 1224.41 122.88 1222.25 123.728C1220.09 124.576 1217.7 125 1215.07 125H1201.82V90.296H1215.07C1217.7 90.296 1220.09 90.728 1222.25 91.592C1224.41 92.44 1226.26 93.632 1227.79 95.168C1229.33 96.688 1230.52 98.512 1231.37 100.64C1232.22 102.768 1232.64 105.104 1232.64 107.648ZM1226.04 107.648C1226.04 105.744 1225.78 104.04 1225.27 102.536C1224.76 101.016 1224.03 99.736 1223.09 98.696C1222.14 97.64 1220.99 96.832 1219.63 96.272C1218.29 95.712 1216.77 95.432 1215.07 95.432H1208.33V119.864H1215.07C1216.77 119.864 1218.29 119.584 1219.63 119.024C1220.99 118.464 1222.14 117.664 1223.09 116.624C1224.03 115.568 1224.76 114.288 1225.27 112.784C1225.78 111.264 1226.04 109.552 1226.04 107.648ZM1247.52 99.992C1249.08 99.992 1250.5 100.24 1251.8 100.736C1253.11 101.232 1254.24 101.96 1255.18 102.92C1256.12 103.864 1256.86 105.032 1257.39 106.424C1257.92 107.8 1258.18 109.376 1258.18 111.152C1258.18 111.6 1258.16 111.976 1258.11 112.28C1258.08 112.568 1258 112.8 1257.89 112.976C1257.8 113.136 1257.66 113.256 1257.48 113.336C1257.31 113.4 1257.08 113.432 1256.81 113.432H1241.6C1241.77 115.96 1242.45 117.816 1243.64 119C1244.82 120.184 1246.39 120.776 1248.34 120.776C1249.3 120.776 1250.12 120.664 1250.81 120.44C1251.52 120.216 1252.12 119.968 1252.64 119.696C1253.16 119.424 1253.62 119.176 1254 118.952C1254.4 118.728 1254.79 118.616 1255.16 118.616C1255.4 118.616 1255.6 118.664 1255.78 118.76C1255.96 118.856 1256.11 118.992 1256.24 119.168L1257.96 121.328C1257.31 122.096 1256.57 122.744 1255.76 123.272C1254.94 123.784 1254.08 124.2 1253.19 124.52C1252.31 124.824 1251.4 125.04 1250.48 125.168C1249.56 125.296 1248.68 125.36 1247.81 125.36C1246.1 125.36 1244.51 125.08 1243.04 124.52C1241.56 123.944 1240.28 123.104 1239.2 122C1238.11 120.88 1237.25 119.504 1236.63 117.872C1236 116.224 1235.69 114.32 1235.69 112.16C1235.69 110.48 1235.96 108.904 1236.51 107.432C1237.05 105.944 1237.83 104.656 1238.84 103.568C1239.86 102.464 1241.1 101.592 1242.56 100.952C1244.03 100.312 1245.68 99.992 1247.52 99.992ZM1247.64 104.24C1245.92 104.24 1244.56 104.728 1243.59 105.704C1242.61 106.68 1241.99 108.064 1241.72 109.856H1252.85C1252.85 109.088 1252.75 108.368 1252.54 107.696C1252.33 107.008 1252.01 106.408 1251.58 105.896C1251.15 105.384 1250.6 104.984 1249.95 104.696C1249.29 104.392 1248.52 104.24 1247.64 104.24ZM1262.99 133.04V100.376H1266.61C1267 100.376 1267.32 100.464 1267.6 100.64C1267.87 100.816 1268.04 101.088 1268.12 101.456L1268.6 103.736C1269.6 102.6 1270.73 101.68 1272.01 100.976C1273.31 100.272 1274.82 99.92 1276.55 99.92C1277.89 99.92 1279.12 100.2 1280.22 100.76C1281.34 101.32 1282.3 102.136 1283.1 103.208C1283.92 104.264 1284.54 105.576 1284.97 107.144C1285.42 108.696 1285.64 110.48 1285.64 112.496C1285.64 114.336 1285.4 116.04 1284.9 117.608C1284.4 119.176 1283.69 120.536 1282.76 121.688C1281.85 122.84 1280.74 123.744 1279.43 124.4C1278.13 125.04 1276.68 125.36 1275.06 125.36C1273.67 125.36 1272.48 125.152 1271.51 124.736C1270.55 124.304 1269.68 123.712 1268.92 122.96V133.04H1262.99ZM1274.51 104.6C1273.28 104.6 1272.22 104.864 1271.34 105.392C1270.48 105.904 1269.67 106.632 1268.92 107.576V118.616C1269.59 119.448 1270.32 120.032 1271.1 120.368C1271.9 120.688 1272.76 120.848 1273.67 120.848C1274.56 120.848 1275.37 120.68 1276.09 120.344C1276.83 120.008 1277.44 119.496 1277.94 118.808C1278.45 118.12 1278.84 117.256 1279.12 116.216C1279.39 115.16 1279.52 113.92 1279.52 112.496C1279.52 111.056 1279.4 109.84 1279.16 108.848C1278.94 107.84 1278.61 107.024 1278.18 106.4C1277.75 105.776 1277.22 105.32 1276.6 105.032C1275.99 104.744 1275.29 104.6 1274.51 104.6ZM1300.3 99.992C1301.86 99.992 1303.28 100.24 1304.58 100.736C1305.89 101.232 1307.02 101.96 1307.96 102.92C1308.9 103.864 1309.64 105.032 1310.17 106.424C1310.7 107.8 1310.96 109.376 1310.96 111.152C1310.96 111.6 1310.94 111.976 1310.89 112.28C1310.86 112.568 1310.78 112.8 1310.67 112.976C1310.58 113.136 1310.44 113.256 1310.26 113.336C1310.09 113.4 1309.86 113.432 1309.59 113.432H1294.38C1294.55 115.96 1295.23 117.816 1296.42 119C1297.6 120.184 1299.17 120.776 1301.12 120.776C1302.08 120.776 1302.9 120.664 1303.59 120.44C1304.3 120.216 1304.9 119.968 1305.42 119.696C1305.94 119.424 1306.4 119.176 1306.78 118.952C1307.18 118.728 1307.57 118.616 1307.94 118.616C1308.18 118.616 1308.38 118.664 1308.56 118.76C1308.74 118.856 1308.89 118.992 1309.02 119.168L1310.74 121.328C1310.09 122.096 1309.35 122.744 1308.54 123.272C1307.72 123.784 1306.86 124.2 1305.97 124.52C1305.09 124.824 1304.18 125.04 1303.26 125.168C1302.34 125.296 1301.46 125.36 1300.59 125.36C1298.88 125.36 1297.29 125.08 1295.82 124.52C1294.34 123.944 1293.06 123.104 1291.98 122C1290.89 120.88 1290.03 119.504 1289.41 117.872C1288.78 116.224 1288.47 114.32 1288.47 112.16C1288.47 110.48 1288.74 108.904 1289.29 107.432C1289.83 105.944 1290.61 104.656 1291.62 103.568C1292.64 102.464 1293.88 101.592 1295.34 100.952C1296.81 100.312 1298.46 99.992 1300.3 99.992ZM1300.42 104.24C1298.7 104.24 1297.34 104.728 1296.37 105.704C1295.39 106.68 1294.77 108.064 1294.5 109.856H1305.63C1305.63 109.088 1305.53 108.368 1305.32 107.696C1305.11 107.008 1304.79 106.408 1304.36 105.896C1303.93 105.384 1303.38 104.984 1302.73 104.696C1302.07 104.392 1301.3 104.24 1300.42 104.24ZM1315.77 125V100.376H1319.39C1320.16 100.376 1320.67 100.736 1320.91 101.456L1321.31 103.4C1321.81 102.888 1322.33 102.424 1322.87 102.008C1323.43 101.592 1324.02 101.232 1324.63 100.928C1325.25 100.624 1325.91 100.392 1326.62 100.232C1327.32 100.072 1328.09 99.992 1328.92 99.992C1330.27 99.992 1331.46 100.224 1332.5 100.688C1333.54 101.136 1334.4 101.776 1335.09 102.608C1335.79 103.424 1336.32 104.408 1336.67 105.56C1337.04 106.696 1337.23 107.952 1337.23 109.328V125H1331.3V109.328C1331.3 107.824 1330.95 106.664 1330.24 105.848C1329.55 105.016 1328.51 104.6 1327.12 104.6C1326.1 104.6 1325.14 104.832 1324.24 105.296C1323.35 105.76 1322.5 106.392 1321.7 107.192V125H1315.77ZM1360.38 125C1359.61 125 1359.11 124.64 1358.87 123.92L1358.39 121.544C1357.87 122.12 1357.34 122.64 1356.78 123.104C1356.22 123.568 1355.61 123.968 1354.95 124.304C1354.31 124.64 1353.62 124.896 1352.87 125.072C1352.13 125.264 1351.33 125.36 1350.47 125.36C1349.12 125.36 1347.89 125.08 1346.77 124.52C1345.65 123.96 1344.68 123.152 1343.87 122.096C1343.07 121.024 1342.44 119.704 1341.99 118.136C1341.56 116.568 1341.35 114.776 1341.35 112.76C1341.35 110.936 1341.59 109.24 1342.09 107.672C1342.59 106.104 1343.3 104.744 1344.23 103.592C1345.15 102.44 1346.27 101.544 1347.56 100.904C1348.86 100.248 1350.31 99.92 1351.93 99.92C1353.31 99.92 1354.48 100.144 1355.46 100.592C1356.43 101.024 1357.31 101.608 1358.07 102.344V89.336H1364V125H1360.38ZM1352.48 120.656C1353.71 120.656 1354.76 120.4 1355.63 119.888C1356.49 119.376 1357.31 118.648 1358.07 117.704V106.664C1357.4 105.848 1356.67 105.272 1355.87 104.936C1355.08 104.6 1354.23 104.432 1353.32 104.432C1352.43 104.432 1351.61 104.6 1350.87 104.936C1350.15 105.272 1349.54 105.784 1349.03 106.472C1348.53 107.144 1348.15 108.008 1347.87 109.064C1347.6 110.104 1347.47 111.336 1347.47 112.76C1347.47 114.2 1347.58 115.424 1347.8 116.432C1348.04 117.424 1348.38 118.24 1348.81 118.88C1349.24 119.504 1349.77 119.96 1350.39 120.248C1351.02 120.52 1351.71 120.656 1352.48 120.656ZM1380.6 99.992C1382.15 99.992 1383.58 100.24 1384.87 100.736C1386.19 101.232 1387.31 101.96 1388.26 102.92C1389.2 103.864 1389.94 105.032 1390.47 106.424C1390.99 107.8 1391.26 109.376 1391.26 111.152C1391.26 111.6 1391.23 111.976 1391.19 112.28C1391.15 112.568 1391.08 112.8 1390.97 112.976C1390.87 113.136 1390.74 113.256 1390.56 113.336C1390.39 113.4 1390.16 113.432 1389.89 113.432H1374.67C1374.85 115.96 1375.53 117.816 1376.71 119C1377.9 120.184 1379.47 120.776 1381.42 120.776C1382.38 120.776 1383.2 120.664 1383.89 120.44C1384.59 120.216 1385.2 119.968 1385.71 119.696C1386.24 119.424 1386.7 119.176 1387.08 118.952C1387.48 118.728 1387.87 118.616 1388.23 118.616C1388.47 118.616 1388.68 118.664 1388.86 118.76C1389.03 118.856 1389.19 118.992 1389.31 119.168L1391.04 121.328C1390.39 122.096 1389.65 122.744 1388.83 123.272C1388.02 123.784 1387.16 124.2 1386.27 124.52C1385.39 124.824 1384.48 125.04 1383.55 125.168C1382.64 125.296 1381.75 125.36 1380.89 125.36C1379.18 125.36 1377.59 125.08 1376.11 124.52C1374.64 123.944 1373.36 123.104 1372.27 122C1371.19 120.88 1370.33 119.504 1369.71 117.872C1369.08 116.224 1368.77 114.32 1368.77 112.16C1368.77 110.48 1369.04 108.904 1369.59 107.432C1370.13 105.944 1370.91 104.656 1371.91 103.568C1372.94 102.464 1374.18 101.592 1375.63 100.952C1377.11 100.312 1378.76 99.992 1380.6 99.992ZM1380.72 104.24C1378.99 104.24 1377.64 104.728 1376.67 105.704C1375.69 106.68 1375.07 108.064 1374.79 109.856H1385.93C1385.93 109.088 1385.83 108.368 1385.62 107.696C1385.41 107.008 1385.09 106.408 1384.66 105.896C1384.23 105.384 1383.68 104.984 1383.03 104.696C1382.37 104.392 1381.6 104.24 1380.72 104.24ZM1396.07 125V100.376H1399.69C1400.46 100.376 1400.96 100.736 1401.2 101.456L1401.61 103.4C1402.11 102.888 1402.63 102.424 1403.17 102.008C1403.73 101.592 1404.31 101.232 1404.92 100.928C1405.55 100.624 1406.21 100.392 1406.91 100.232C1407.62 100.072 1408.39 99.992 1409.22 99.992C1410.56 99.992 1411.75 100.224 1412.79 100.688C1413.83 101.136 1414.7 101.776 1415.39 102.608C1416.09 103.424 1416.62 104.408 1416.97 105.56C1417.34 106.696 1417.52 107.952 1417.52 109.328V125H1411.59V109.328C1411.59 107.824 1411.24 106.664 1410.54 105.848C1409.85 105.016 1408.81 104.6 1407.42 104.6C1406.39 104.6 1405.43 104.832 1404.54 105.296C1403.64 105.76 1402.79 106.392 1401.99 107.192V125H1396.07ZM1440.65 105.584C1440.48 105.808 1440.3 105.984 1440.12 106.112C1439.96 106.24 1439.72 106.304 1439.4 106.304C1439.1 106.304 1438.8 106.216 1438.52 106.04C1438.23 105.848 1437.88 105.64 1437.48 105.416C1437.08 105.176 1436.6 104.968 1436.04 104.792C1435.5 104.6 1434.82 104.504 1434 104.504C1432.96 104.504 1432.05 104.696 1431.27 105.08C1430.48 105.448 1429.83 105.984 1429.3 106.688C1428.79 107.392 1428.4 108.248 1428.15 109.256C1427.89 110.248 1427.76 111.376 1427.76 112.64C1427.76 113.952 1427.9 115.12 1428.17 116.144C1428.46 117.168 1428.87 118.032 1429.4 118.736C1429.92 119.424 1430.56 119.952 1431.32 120.32C1432.07 120.672 1432.92 120.848 1433.86 120.848C1434.8 120.848 1435.56 120.736 1436.14 120.512C1436.73 120.272 1437.23 120.016 1437.63 119.744C1438.03 119.456 1438.37 119.2 1438.66 118.976C1438.96 118.736 1439.3 118.616 1439.67 118.616C1440.15 118.616 1440.51 118.8 1440.75 119.168L1442.45 121.328C1441.8 122.096 1441.08 122.744 1440.32 123.272C1439.55 123.784 1438.75 124.2 1437.92 124.52C1437.1 124.824 1436.25 125.04 1435.37 125.168C1434.49 125.296 1433.62 125.36 1432.76 125.36C1431.24 125.36 1429.8 125.08 1428.46 124.52C1427.12 123.944 1425.94 123.112 1424.93 122.024C1423.94 120.936 1423.15 119.608 1422.56 118.04C1421.98 116.456 1421.69 114.656 1421.69 112.64C1421.69 110.832 1421.95 109.16 1422.46 107.624C1422.99 106.072 1423.76 104.736 1424.76 103.616C1425.77 102.48 1427.02 101.592 1428.51 100.952C1430 100.312 1431.71 99.992 1433.64 99.992C1435.48 99.992 1437.09 100.288 1438.47 100.88C1439.86 101.472 1441.11 102.32 1442.21 103.424L1440.65 105.584ZM1452.53 100.376V125H1446.61V100.376H1452.53ZM1453.42 93.2C1453.42 93.712 1453.32 94.192 1453.11 94.64C1452.9 95.088 1452.62 95.48 1452.27 95.816C1451.93 96.152 1451.53 96.424 1451.07 96.632C1450.61 96.824 1450.11 96.92 1449.58 96.92C1449.07 96.92 1448.58 96.824 1448.12 96.632C1447.67 96.424 1447.28 96.152 1446.94 95.816C1446.61 95.48 1446.33 95.088 1446.13 94.64C1445.93 94.192 1445.84 93.712 1445.84 93.2C1445.84 92.672 1445.93 92.176 1446.13 91.712C1446.33 91.248 1446.61 90.848 1446.94 90.512C1447.28 90.176 1447.67 89.912 1448.12 89.72C1448.58 89.512 1449.07 89.408 1449.58 89.408C1450.11 89.408 1450.61 89.512 1451.07 89.72C1451.53 89.912 1451.93 90.176 1452.27 90.512C1452.62 90.848 1452.9 91.248 1453.11 91.712C1453.32 92.176 1453.42 92.672 1453.42 93.2ZM1469.43 99.992C1470.98 99.992 1472.41 100.24 1473.7 100.736C1475.01 101.232 1476.14 101.96 1477.09 102.92C1478.03 103.864 1478.77 105.032 1479.29 106.424C1479.82 107.8 1480.09 109.376 1480.09 111.152C1480.09 111.6 1480.06 111.976 1480.01 112.28C1479.98 112.568 1479.91 112.8 1479.8 112.976C1479.7 113.136 1479.57 113.256 1479.39 113.336C1479.21 113.4 1478.99 113.432 1478.72 113.432H1463.5C1463.68 115.96 1464.36 117.816 1465.54 119C1466.73 120.184 1468.29 120.776 1470.25 120.776C1471.21 120.776 1472.03 120.664 1472.72 120.44C1473.42 120.216 1474.03 119.968 1474.54 119.696C1475.07 119.424 1475.53 119.176 1475.91 118.952C1476.31 118.728 1476.69 118.616 1477.06 118.616C1477.3 118.616 1477.51 118.664 1477.69 118.76C1477.86 118.856 1478.01 118.992 1478.14 119.168L1479.87 121.328C1479.21 122.096 1478.48 122.744 1477.66 123.272C1476.85 123.784 1475.99 124.2 1475.09 124.52C1474.21 124.824 1473.31 125.04 1472.38 125.168C1471.47 125.296 1470.58 125.36 1469.72 125.36C1468.01 125.36 1466.41 125.08 1464.94 124.52C1463.47 123.944 1462.19 123.104 1461.1 122C1460.01 120.88 1459.16 119.504 1458.53 117.872C1457.91 116.224 1457.6 114.32 1457.6 112.16C1457.6 110.48 1457.87 108.904 1458.41 107.432C1458.96 105.944 1459.73 104.656 1460.74 103.568C1461.77 102.464 1463.01 101.592 1464.46 100.952C1465.93 100.312 1467.59 99.992 1469.43 99.992ZM1469.55 104.24C1467.82 104.24 1466.47 104.728 1465.49 105.704C1464.52 106.68 1463.89 108.064 1463.62 109.856H1474.76C1474.76 109.088 1474.65 108.368 1474.45 107.696C1474.24 107.008 1473.92 106.408 1473.49 105.896C1473.05 105.384 1472.51 104.984 1471.85 104.696C1471.2 104.392 1470.43 104.24 1469.55 104.24ZM1499.51 105.176C1499.35 105.432 1499.18 105.616 1499.01 105.728C1498.83 105.824 1498.61 105.872 1498.33 105.872C1498.05 105.872 1497.73 105.792 1497.4 105.632C1497.08 105.472 1496.7 105.296 1496.27 105.104C1495.84 104.896 1495.34 104.712 1494.78 104.552C1494.24 104.392 1493.59 104.312 1492.84 104.312C1491.67 104.312 1490.75 104.56 1490.08 105.056C1489.41 105.552 1489.07 106.2 1489.07 107C1489.07 107.528 1489.24 107.976 1489.57 108.344C1489.93 108.696 1490.38 109.008 1490.94 109.28C1491.52 109.552 1492.17 109.8 1492.89 110.024C1493.61 110.232 1494.34 110.464 1495.09 110.72C1495.85 110.976 1496.58 111.272 1497.3 111.608C1498.02 111.928 1498.66 112.344 1499.22 112.856C1499.8 113.352 1500.25 113.952 1500.59 114.656C1500.94 115.36 1501.12 116.208 1501.12 117.2C1501.12 118.384 1500.9 119.48 1500.47 120.488C1500.04 121.48 1499.41 122.344 1498.57 123.08C1497.74 123.8 1496.71 124.368 1495.48 124.784C1494.26 125.184 1492.86 125.384 1491.28 125.384C1490.43 125.384 1489.6 125.304 1488.78 125.144C1487.98 125 1487.21 124.792 1486.45 124.52C1485.72 124.248 1485.03 123.928 1484.39 123.56C1483.77 123.192 1483.21 122.792 1482.73 122.36L1484.1 120.104C1484.28 119.832 1484.49 119.624 1484.73 119.48C1484.97 119.336 1485.27 119.264 1485.64 119.264C1486.01 119.264 1486.35 119.368 1486.67 119.576C1487.01 119.784 1487.39 120.008 1487.82 120.248C1488.25 120.488 1488.76 120.712 1489.33 120.92C1489.93 121.128 1490.67 121.232 1491.57 121.232C1492.27 121.232 1492.87 121.152 1493.37 120.992C1493.88 120.816 1494.29 120.592 1494.61 120.32C1494.95 120.048 1495.19 119.736 1495.33 119.384C1495.49 119.016 1495.57 118.64 1495.57 118.256C1495.57 117.68 1495.4 117.208 1495.05 116.84C1494.71 116.472 1494.25 116.152 1493.68 115.88C1493.12 115.608 1492.47 115.368 1491.73 115.16C1491.01 114.936 1490.27 114.696 1489.5 114.44C1488.75 114.184 1488.01 113.888 1487.27 113.552C1486.55 113.2 1485.9 112.76 1485.33 112.232C1484.77 111.704 1484.31 111.056 1483.96 110.288C1483.62 109.52 1483.45 108.592 1483.45 107.504C1483.45 106.496 1483.65 105.536 1484.05 104.624C1484.45 103.712 1485.04 102.92 1485.81 102.248C1486.59 101.56 1487.56 101.016 1488.71 100.616C1489.88 100.2 1491.22 99.992 1492.74 99.992C1494.44 99.992 1495.98 100.272 1497.37 100.832C1498.77 101.392 1499.93 102.128 1500.85 103.04L1499.51 105.176Z" fill="#1F3754"/>
<rect x="1170" y="372" width="362" height="213" fill="#DEDEDE"/>
<path d="M1238.51 472.802C1240.11 472.802 1241.49 472.662 1242.66 472.382C1243.85 472.085 1244.98 471.682 1246.05 471.175V464.271H1241.3C1240.84 464.271 1240.48 464.149 1240.22 463.904C1239.96 463.641 1239.83 463.326 1239.83 462.959V458.969H1252.45V474.325C1251.49 475.025 1250.48 475.637 1249.43 476.162C1248.4 476.67 1247.29 477.09 1246.1 477.422C1244.93 477.755 1243.67 478 1242.32 478.158C1240.97 478.333 1239.52 478.42 1237.96 478.42C1235.2 478.42 1232.65 477.939 1230.32 476.976C1228 476.014 1225.98 474.675 1224.29 472.96C1222.59 471.245 1221.26 469.197 1220.3 466.817C1219.35 464.437 1218.88 461.839 1218.88 459.021C1218.88 456.169 1219.34 453.552 1220.27 451.172C1221.2 448.792 1222.51 446.745 1224.21 445.03C1225.92 443.315 1228 441.985 1230.43 441.04C1232.86 440.095 1235.59 439.622 1238.62 439.622C1241.72 439.622 1244.39 440.086 1246.65 441.014C1248.93 441.924 1250.85 443.114 1252.43 444.584L1250.38 447.786C1249.98 448.434 1249.44 448.757 1248.78 448.757C1248.36 448.757 1247.93 448.617 1247.49 448.338C1246.93 448.005 1246.35 447.672 1245.76 447.34C1245.18 447.007 1244.53 446.719 1243.82 446.474C1243.12 446.229 1242.32 446.027 1241.43 445.87C1240.55 445.712 1239.54 445.634 1238.38 445.634C1236.51 445.634 1234.81 445.949 1233.29 446.579C1231.78 447.209 1230.5 448.11 1229.43 449.282C1228.36 450.455 1227.54 451.864 1226.96 453.509C1226.39 455.154 1226.1 456.991 1226.1 459.021C1226.1 461.209 1226.4 463.16 1227.02 464.875C1227.63 466.572 1228.49 468.007 1229.59 469.18C1230.69 470.352 1232 471.254 1233.53 471.884C1235.05 472.496 1236.71 472.802 1238.51 472.802ZM1269.78 450.647C1271.48 450.647 1273.04 450.919 1274.46 451.461C1275.89 452.004 1277.13 452.8 1278.16 453.85C1279.19 454.882 1280 456.16 1280.57 457.682C1281.15 459.187 1281.44 460.911 1281.44 462.854C1281.44 463.344 1281.41 463.755 1281.36 464.087C1281.33 464.402 1281.25 464.656 1281.12 464.849C1281.02 465.024 1280.87 465.155 1280.68 465.242C1280.49 465.312 1280.24 465.347 1279.94 465.347H1263.3C1263.49 468.112 1264.24 470.142 1265.53 471.438C1266.83 472.732 1268.54 473.38 1270.68 473.38C1271.73 473.38 1272.63 473.257 1273.38 473.012C1274.15 472.767 1274.82 472.496 1275.38 472.199C1275.95 471.901 1276.45 471.63 1276.87 471.385C1277.31 471.14 1277.73 471.017 1278.13 471.017C1278.39 471.017 1278.62 471.07 1278.81 471.175C1279.01 471.28 1279.17 471.429 1279.31 471.621L1281.2 473.984C1280.49 474.824 1279.68 475.532 1278.79 476.11C1277.9 476.67 1276.96 477.125 1275.98 477.475C1275.02 477.807 1274.03 478.044 1273.01 478.184C1272.02 478.324 1271.04 478.394 1270.1 478.394C1268.23 478.394 1266.49 478.087 1264.88 477.475C1263.27 476.845 1261.87 475.926 1260.68 474.719C1259.49 473.494 1258.55 471.989 1257.87 470.204C1257.18 468.401 1256.84 466.319 1256.84 463.956C1256.84 462.119 1257.14 460.395 1257.74 458.785C1258.33 457.157 1259.18 455.749 1260.28 454.559C1261.4 453.351 1262.76 452.397 1264.35 451.697C1265.96 450.997 1267.77 450.647 1269.78 450.647ZM1269.92 455.294C1268.03 455.294 1266.55 455.827 1265.48 456.895C1264.41 457.962 1263.73 459.476 1263.43 461.436H1275.61C1275.61 460.596 1275.5 459.809 1275.27 459.074C1275.04 458.321 1274.69 457.665 1274.22 457.105C1273.75 456.545 1273.15 456.107 1272.44 455.792C1271.72 455.46 1270.88 455.294 1269.92 455.294ZM1286.7 478V451.067H1290.66C1291.5 451.067 1292.05 451.461 1292.32 452.249L1292.76 454.375C1293.31 453.815 1293.87 453.307 1294.47 452.852C1295.08 452.397 1295.72 452.004 1296.39 451.671C1297.07 451.339 1297.79 451.085 1298.56 450.91C1299.33 450.735 1300.17 450.647 1301.08 450.647C1302.55 450.647 1303.86 450.901 1305 451.409C1306.13 451.899 1307.08 452.599 1307.83 453.509C1308.6 454.401 1309.18 455.477 1309.56 456.737C1309.97 457.98 1310.17 459.354 1310.17 460.859V478H1303.68V460.859C1303.68 459.214 1303.3 457.945 1302.53 457.052C1301.78 456.142 1300.64 455.687 1299.12 455.687C1298 455.687 1296.95 455.941 1295.97 456.449C1294.99 456.956 1294.06 457.647 1293.18 458.522V478H1286.7ZM1327.67 450.647C1329.37 450.647 1330.92 450.919 1332.34 451.461C1333.78 452.004 1335.01 452.8 1336.04 453.85C1337.07 454.882 1337.88 456.16 1338.46 457.682C1339.03 459.187 1339.32 460.911 1339.32 462.854C1339.32 463.344 1339.3 463.755 1339.24 464.087C1339.21 464.402 1339.13 464.656 1339.01 464.849C1338.9 465.024 1338.75 465.155 1338.56 465.242C1338.37 465.312 1338.12 465.347 1337.83 465.347H1321.18C1321.38 468.112 1322.12 470.142 1323.42 471.438C1324.71 472.732 1326.43 473.38 1328.56 473.38C1329.61 473.38 1330.51 473.257 1331.26 473.012C1332.03 472.767 1332.7 472.496 1333.26 472.199C1333.84 471.901 1334.34 471.63 1334.76 471.385C1335.19 471.14 1335.61 471.017 1336.02 471.017C1336.28 471.017 1336.51 471.07 1336.7 471.175C1336.89 471.28 1337.06 471.429 1337.2 471.621L1339.09 473.984C1338.37 474.824 1337.56 475.532 1336.67 476.11C1335.78 476.67 1334.84 477.125 1333.86 477.475C1332.9 477.807 1331.91 478.044 1330.9 478.184C1329.9 478.324 1328.93 478.394 1327.98 478.394C1326.11 478.394 1324.37 478.087 1322.76 477.475C1321.15 476.845 1319.75 475.926 1318.56 474.719C1317.37 473.494 1316.43 471.989 1315.75 470.204C1315.07 468.401 1314.73 466.319 1314.73 463.956C1314.73 462.119 1315.02 460.395 1315.62 458.785C1316.21 457.157 1317.06 455.749 1318.17 454.559C1319.29 453.351 1320.64 452.397 1322.23 451.697C1323.84 450.997 1325.66 450.647 1327.67 450.647ZM1327.8 455.294C1325.91 455.294 1324.43 455.827 1323.36 456.895C1322.3 457.962 1321.61 459.476 1321.32 461.436H1333.5C1333.5 460.596 1333.38 459.809 1333.15 459.074C1332.93 458.321 1332.58 457.665 1332.1 457.105C1331.63 456.545 1331.04 456.107 1330.32 455.792C1329.6 455.46 1328.76 455.294 1327.8 455.294ZM1344.58 478V451.067H1348.39C1349.05 451.067 1349.52 451.19 1349.78 451.435C1350.04 451.68 1350.22 452.1 1350.31 452.695L1350.7 455.95C1351.66 454.287 1352.79 452.975 1354.09 452.012C1355.38 451.05 1356.83 450.569 1358.44 450.569C1359.77 450.569 1360.88 450.875 1361.75 451.488L1360.91 456.344C1360.86 456.659 1360.74 456.886 1360.57 457.026C1360.39 457.149 1360.16 457.21 1359.86 457.21C1359.6 457.21 1359.24 457.149 1358.78 457.026C1358.33 456.904 1357.73 456.842 1356.97 456.842C1355.63 456.842 1354.47 457.219 1353.51 457.971C1352.55 458.706 1351.73 459.791 1351.07 461.226V478H1344.58ZM1386.35 478H1383.44C1382.82 478 1382.34 477.912 1381.99 477.737C1381.64 477.545 1381.38 477.169 1381.2 476.609L1380.63 474.692C1379.94 475.305 1379.27 475.847 1378.61 476.32C1377.96 476.775 1377.28 477.16 1376.58 477.475C1375.88 477.79 1375.14 478.026 1374.35 478.184C1373.57 478.341 1372.69 478.42 1371.73 478.42C1370.59 478.42 1369.54 478.271 1368.58 477.974C1367.62 477.659 1366.78 477.195 1366.08 476.582C1365.4 475.97 1364.87 475.209 1364.48 474.299C1364.1 473.389 1363.91 472.33 1363.91 471.122C1363.91 470.107 1364.17 469.11 1364.69 468.13C1365.24 467.132 1366.13 466.24 1367.37 465.452C1368.61 464.647 1370.27 463.982 1372.33 463.457C1374.4 462.932 1376.96 462.635 1380.02 462.565V460.99C1380.02 459.187 1379.64 457.857 1378.87 457C1378.12 456.125 1377.01 455.687 1375.56 455.687C1374.51 455.687 1373.64 455.81 1372.94 456.055C1372.24 456.3 1371.62 456.58 1371.1 456.895C1370.59 457.192 1370.12 457.464 1369.68 457.709C1369.24 457.954 1368.76 458.076 1368.24 458.076C1367.8 458.076 1367.42 457.962 1367.11 457.735C1366.79 457.507 1366.54 457.227 1366.35 456.895L1365.17 454.821C1368.26 451.986 1372 450.569 1376.37 450.569C1377.95 450.569 1379.35 450.831 1380.57 451.356C1381.82 451.864 1382.87 452.581 1383.72 453.509C1384.58 454.419 1385.23 455.512 1385.67 456.79C1386.12 458.067 1386.35 459.467 1386.35 460.99V478ZM1373.75 473.957C1374.41 473.957 1375.03 473.896 1375.59 473.774C1376.15 473.651 1376.67 473.467 1377.16 473.222C1377.67 472.977 1378.15 472.68 1378.61 472.33C1379.08 471.962 1379.55 471.534 1380.02 471.044V466.502C1378.13 466.59 1376.55 466.756 1375.27 467.001C1374.01 467.229 1373 467.526 1372.23 467.894C1371.46 468.261 1370.91 468.69 1370.57 469.18C1370.26 469.67 1370.1 470.204 1370.1 470.781C1370.1 471.919 1370.43 472.732 1371.1 473.222C1371.78 473.712 1372.66 473.957 1373.75 473.957ZM1401.57 478.42C1399.24 478.42 1397.45 477.764 1396.19 476.451C1394.93 475.121 1394.3 473.292 1394.3 470.965V455.924H1391.57C1391.22 455.924 1390.91 455.81 1390.65 455.582C1390.41 455.355 1390.28 455.014 1390.28 454.559V451.986L1394.61 451.277L1395.98 443.927C1396.05 443.577 1396.21 443.306 1396.45 443.114C1396.71 442.921 1397.04 442.825 1397.42 442.825H1400.78V451.304H1407.87V455.924H1400.78V470.519C1400.78 471.359 1400.99 472.015 1401.41 472.487C1401.83 472.96 1402.39 473.196 1403.09 473.196C1403.5 473.196 1403.83 473.152 1404.09 473.065C1404.37 472.96 1404.61 472.855 1404.8 472.75C1405.01 472.645 1405.19 472.549 1405.35 472.461C1405.51 472.356 1405.67 472.304 1405.82 472.304C1406.02 472.304 1406.17 472.356 1406.3 472.461C1406.42 472.549 1406.55 472.689 1406.69 472.881L1408.63 476.031C1407.69 476.819 1406.6 477.414 1405.38 477.816C1404.15 478.219 1402.88 478.42 1401.57 478.42ZM1424.53 450.647C1426.54 450.647 1428.36 450.971 1429.99 451.619C1431.63 452.266 1433.03 453.185 1434.19 454.375C1435.34 455.565 1436.23 457.017 1436.86 458.732C1437.49 460.447 1437.81 462.364 1437.81 464.481C1437.81 466.616 1437.49 468.541 1436.86 470.256C1436.23 471.971 1435.34 473.432 1434.19 474.64C1433.03 475.847 1431.63 476.775 1429.99 477.422C1428.36 478.07 1426.54 478.394 1424.53 478.394C1422.51 478.394 1420.68 478.07 1419.04 477.422C1417.39 476.775 1415.99 475.847 1414.81 474.64C1413.66 473.432 1412.76 471.971 1412.11 470.256C1411.48 468.541 1411.16 466.616 1411.16 464.481C1411.16 462.364 1411.48 460.447 1412.11 458.732C1412.76 457.017 1413.66 455.565 1414.81 454.375C1415.99 453.185 1417.39 452.266 1419.04 451.619C1420.68 450.971 1422.51 450.647 1424.53 450.647ZM1424.53 473.406C1426.77 473.406 1428.42 472.654 1429.49 471.149C1430.57 469.644 1431.11 467.439 1431.11 464.534C1431.11 461.629 1430.57 459.415 1429.49 457.892C1428.42 456.37 1426.77 455.609 1424.53 455.609C1422.25 455.609 1420.57 456.379 1419.49 457.919C1418.4 459.441 1417.86 461.646 1417.86 464.534C1417.86 467.421 1418.4 469.626 1419.49 471.149C1420.57 472.654 1422.25 473.406 1424.53 473.406ZM1442.87 478V451.067H1446.67C1447.34 451.067 1447.8 451.19 1448.06 451.435C1448.33 451.68 1448.5 452.1 1448.59 452.695L1448.98 455.95C1449.95 454.287 1451.07 452.975 1452.37 452.012C1453.66 451.05 1455.12 450.569 1456.73 450.569C1458.06 450.569 1459.16 450.875 1460.03 451.488L1459.19 456.344C1459.14 456.659 1459.03 456.886 1458.85 457.026C1458.68 457.149 1458.44 457.21 1458.14 457.21C1457.88 457.21 1457.52 457.149 1457.07 457.026C1456.61 456.904 1456.01 456.842 1455.26 456.842C1453.91 456.842 1452.75 457.219 1451.79 457.971C1450.83 458.706 1450.02 459.791 1449.35 461.226V478H1442.87ZM1480.28 456.317C1480.11 456.597 1479.92 456.799 1479.73 456.921C1479.54 457.026 1479.29 457.079 1479 457.079C1478.68 457.079 1478.34 456.991 1477.97 456.816C1477.62 456.641 1477.21 456.449 1476.74 456.239C1476.27 456.011 1475.72 455.81 1475.11 455.635C1474.52 455.46 1473.81 455.372 1472.99 455.372C1471.71 455.372 1470.7 455.644 1469.97 456.186C1469.23 456.729 1468.86 457.437 1468.86 458.312C1468.86 458.89 1469.05 459.38 1469.42 459.782C1469.8 460.167 1470.3 460.509 1470.91 460.806C1471.54 461.104 1472.25 461.375 1473.04 461.62C1473.83 461.847 1474.63 462.101 1475.45 462.381C1476.28 462.661 1477.08 462.985 1477.87 463.352C1478.66 463.702 1479.36 464.157 1479.97 464.717C1480.6 465.26 1481.1 465.916 1481.46 466.686C1481.85 467.456 1482.04 468.384 1482.04 469.469C1482.04 470.764 1481.81 471.962 1481.33 473.065C1480.86 474.15 1480.17 475.095 1479.26 475.9C1478.35 476.687 1477.22 477.309 1475.87 477.764C1474.54 478.201 1473.01 478.42 1471.28 478.42C1470.35 478.42 1469.44 478.333 1468.55 478.158C1467.67 478 1466.83 477.772 1466 477.475C1465.2 477.177 1464.45 476.827 1463.75 476.425C1463.06 476.022 1462.46 475.585 1461.93 475.112L1463.43 472.645C1463.62 472.347 1463.85 472.12 1464.11 471.962C1464.38 471.805 1464.71 471.726 1465.11 471.726C1465.51 471.726 1465.89 471.84 1466.24 472.067C1466.61 472.295 1467.03 472.54 1467.5 472.802C1467.97 473.065 1468.52 473.31 1469.15 473.537C1469.8 473.765 1470.61 473.879 1471.59 473.879C1472.36 473.879 1473.02 473.791 1473.56 473.616C1474.12 473.424 1474.58 473.179 1474.93 472.881C1475.3 472.584 1475.56 472.242 1475.72 471.857C1475.89 471.455 1475.98 471.044 1475.98 470.624C1475.98 469.994 1475.79 469.477 1475.4 469.075C1475.03 468.672 1474.53 468.322 1473.9 468.025C1473.29 467.727 1472.58 467.465 1471.78 467.237C1470.99 466.992 1470.18 466.73 1469.34 466.45C1468.51 466.17 1467.7 465.846 1466.9 465.479C1466.11 465.094 1465.4 464.612 1464.77 464.035C1464.16 463.457 1463.66 462.749 1463.27 461.909C1462.91 461.069 1462.72 460.054 1462.72 458.864C1462.72 457.761 1462.94 456.711 1463.38 455.714C1463.82 454.716 1464.45 453.85 1465.29 453.115C1466.15 452.362 1467.21 451.767 1468.47 451.33C1469.75 450.875 1471.22 450.647 1472.88 450.647C1474.74 450.647 1476.42 450.954 1477.95 451.566C1479.47 452.179 1480.74 452.984 1481.75 453.981L1480.28 456.317Z" fill="#1F3754"/>
<path d="M1308.17 499.006C1308.07 499.138 1307.97 499.24 1307.88 499.312C1307.78 499.384 1307.64 499.42 1307.46 499.42C1307.28 499.42 1307.09 499.348 1306.87 499.204C1306.67 499.048 1306.4 498.88 1306.08 498.7C1305.75 498.52 1305.36 498.358 1304.89 498.214C1304.43 498.058 1303.87 497.98 1303.2 497.98C1302.31 497.98 1301.52 498.142 1300.84 498.466C1300.16 498.778 1299.58 499.234 1299.11 499.834C1298.66 500.434 1298.31 501.16 1298.07 502.012C1297.84 502.864 1297.73 503.818 1297.73 504.874C1297.73 505.978 1297.85 506.962 1298.1 507.826C1298.36 508.678 1298.71 509.398 1299.17 509.986C1299.62 510.562 1300.17 511.006 1300.82 511.318C1301.48 511.618 1302.22 511.768 1303.04 511.768C1303.82 511.768 1304.46 511.678 1304.96 511.498C1305.47 511.306 1305.89 511.096 1306.22 510.868C1306.56 510.64 1306.83 510.436 1307.05 510.256C1307.27 510.064 1307.48 509.968 1307.7 509.968C1307.97 509.968 1308.18 510.07 1308.31 510.274L1309.21 511.444C1308.42 512.416 1307.43 513.13 1306.24 513.586C1305.05 514.03 1303.8 514.252 1302.48 514.252C1301.34 514.252 1300.28 514.042 1299.29 513.622C1298.32 513.202 1297.47 512.596 1296.75 511.804C1296.03 511 1295.46 510.016 1295.04 508.852C1294.64 507.688 1294.43 506.362 1294.43 504.874C1294.43 503.518 1294.62 502.264 1294.99 501.112C1295.37 499.96 1295.93 498.97 1296.65 498.142C1297.38 497.302 1298.28 496.648 1299.35 496.18C1300.41 495.712 1301.64 495.478 1303.02 495.478C1304.29 495.478 1305.42 495.688 1306.4 496.108C1307.39 496.516 1308.26 497.098 1309.01 497.854L1308.17 499.006ZM1312.53 520.174V495.766H1314.44C1314.9 495.766 1315.18 495.988 1315.3 496.432L1315.57 498.592C1316.35 497.644 1317.24 496.882 1318.24 496.306C1319.25 495.73 1320.4 495.442 1321.71 495.442C1322.76 495.442 1323.7 495.646 1324.56 496.054C1325.41 496.45 1326.13 497.044 1326.73 497.836C1327.33 498.616 1327.8 499.588 1328.12 500.752C1328.44 501.916 1328.61 503.254 1328.61 504.766C1328.61 506.11 1328.43 507.364 1328.07 508.528C1327.71 509.68 1327.19 510.682 1326.52 511.534C1325.85 512.374 1325.02 513.04 1324.03 513.532C1323.06 514.012 1321.96 514.252 1320.74 514.252C1319.61 514.252 1318.65 514.066 1317.84 513.694C1317.05 513.322 1316.35 512.794 1315.74 512.11V520.174H1312.53ZM1320.65 498.034C1319.61 498.034 1318.69 498.274 1317.9 498.754C1317.12 499.234 1316.4 499.912 1315.74 500.788V509.608C1316.32 510.4 1316.97 510.958 1317.66 511.282C1318.37 511.606 1319.16 511.768 1320.02 511.768C1321.71 511.768 1323.01 511.162 1323.93 509.95C1324.84 508.738 1325.29 507.01 1325.29 504.766C1325.29 503.578 1325.19 502.558 1324.97 501.706C1324.77 500.854 1324.47 500.158 1324.07 499.618C1323.67 499.066 1323.19 498.664 1322.61 498.412C1322.04 498.16 1321.38 498.034 1320.65 498.034ZM1332.4 520.174V495.766H1334.3C1334.76 495.766 1335.05 495.988 1335.17 496.432L1335.44 498.592C1336.22 497.644 1337.11 496.882 1338.1 496.306C1339.11 495.73 1340.27 495.442 1341.58 495.442C1342.62 495.442 1343.57 495.646 1344.42 496.054C1345.27 496.45 1346 497.044 1346.6 497.836C1347.2 498.616 1347.66 499.588 1347.98 500.752C1348.31 501.916 1348.47 503.254 1348.47 504.766C1348.47 506.11 1348.29 507.364 1347.93 508.528C1347.57 509.68 1347.05 510.682 1346.38 511.534C1345.71 512.374 1344.88 513.04 1343.9 513.532C1342.93 514.012 1341.83 514.252 1340.6 514.252C1339.48 514.252 1338.51 514.066 1337.71 513.694C1336.91 513.322 1336.21 512.794 1335.6 512.11V520.174H1332.4ZM1340.51 498.034C1339.47 498.034 1338.55 498.274 1337.76 498.754C1336.98 499.234 1336.26 499.912 1335.6 500.788V509.608C1336.19 510.4 1336.83 510.958 1337.53 511.282C1338.23 511.606 1339.02 511.768 1339.88 511.768C1341.58 511.768 1342.88 511.162 1343.79 509.95C1344.7 508.738 1345.16 507.01 1345.16 504.766C1345.16 503.578 1345.05 502.558 1344.83 501.706C1344.63 500.854 1344.33 500.158 1343.93 499.618C1343.54 499.066 1343.05 498.664 1342.48 498.412C1341.9 498.16 1341.25 498.034 1340.51 498.034ZM1358.4 495.46C1359.19 495.46 1359.93 495.55 1360.61 495.73C1361.31 495.898 1361.94 496.15 1362.5 496.486H1367.45V497.674C1367.45 498.07 1367.2 498.322 1366.69 498.43L1364.62 498.718C1365.03 499.498 1365.24 500.368 1365.24 501.328C1365.24 502.216 1365.06 503.026 1364.71 503.758C1364.38 504.478 1363.9 505.096 1363.29 505.612C1362.69 506.128 1361.97 506.524 1361.13 506.8C1360.3 507.076 1359.39 507.214 1358.4 507.214C1357.54 507.214 1356.74 507.112 1355.98 506.908C1355.6 507.148 1355.31 507.406 1355.1 507.682C1354.91 507.958 1354.81 508.228 1354.81 508.492C1354.81 508.924 1354.99 509.254 1355.34 509.482C1355.68 509.698 1356.15 509.854 1356.72 509.95C1357.3 510.046 1357.95 510.106 1358.68 510.13C1359.42 510.154 1360.16 510.196 1360.92 510.256C1361.68 510.304 1362.43 510.394 1363.17 510.526C1363.9 510.658 1364.55 510.874 1365.13 511.174C1365.7 511.474 1366.17 511.888 1366.51 512.416C1366.86 512.944 1367.04 513.628 1367.04 514.468C1367.04 515.248 1366.84 516.004 1366.44 516.736C1366.06 517.468 1365.5 518.116 1364.77 518.68C1364.04 519.256 1363.14 519.712 1362.09 520.048C1361.03 520.396 1359.84 520.57 1358.5 520.57C1357.17 520.57 1356 520.438 1354.99 520.174C1354 519.91 1353.17 519.556 1352.51 519.112C1351.85 518.668 1351.35 518.152 1351.02 517.564C1350.69 516.988 1350.53 516.382 1350.53 515.746C1350.53 514.846 1350.81 514.084 1351.38 513.46C1351.95 512.824 1352.74 512.32 1353.73 511.948C1353.22 511.708 1352.8 511.39 1352.49 510.994C1352.19 510.586 1352.04 510.046 1352.04 509.374C1352.04 509.11 1352.09 508.84 1352.19 508.564C1352.28 508.276 1352.43 507.994 1352.62 507.718C1352.82 507.442 1353.07 507.178 1353.36 506.926C1353.64 506.674 1353.98 506.452 1354.36 506.26C1353.46 505.756 1352.76 505.09 1352.24 504.262C1351.74 503.422 1351.48 502.444 1351.48 501.328C1351.48 500.44 1351.65 499.636 1351.99 498.916C1352.34 498.184 1352.82 497.566 1353.43 497.062C1354.04 496.546 1354.77 496.15 1355.61 495.874C1356.46 495.598 1357.39 495.46 1358.4 495.46ZM1364.08 514.99C1364.08 514.534 1363.96 514.168 1363.71 513.892C1363.45 513.616 1363.11 513.406 1362.68 513.262C1362.25 513.106 1361.75 512.992 1361.19 512.92C1360.62 512.848 1360.03 512.8 1359.4 512.776C1358.78 512.74 1358.14 512.704 1357.5 512.668C1356.85 512.632 1356.23 512.566 1355.64 512.47C1354.96 512.794 1354.4 513.19 1353.97 513.658C1353.55 514.126 1353.34 514.684 1353.34 515.332C1353.34 515.74 1353.44 516.118 1353.64 516.466C1353.86 516.826 1354.18 517.132 1354.62 517.384C1355.05 517.648 1355.59 517.852 1356.24 517.996C1356.9 518.152 1357.67 518.23 1358.56 518.23C1359.42 518.23 1360.2 518.152 1360.88 517.996C1361.56 517.84 1362.14 517.618 1362.61 517.33C1363.09 517.042 1363.45 516.7 1363.71 516.304C1363.96 515.908 1364.08 515.47 1364.08 514.99ZM1358.4 505.09C1359.04 505.09 1359.61 505 1360.11 504.82C1360.61 504.64 1361.03 504.388 1361.37 504.064C1361.7 503.74 1361.95 503.356 1362.12 502.912C1362.29 502.456 1362.37 501.958 1362.37 501.418C1362.37 500.302 1362.03 499.414 1361.35 498.754C1360.68 498.094 1359.69 497.764 1358.4 497.764C1357.11 497.764 1356.13 498.094 1355.44 498.754C1354.77 499.414 1354.44 500.302 1354.44 501.418C1354.44 501.958 1354.52 502.456 1354.69 502.912C1354.87 503.356 1355.13 503.74 1355.46 504.064C1355.8 504.388 1356.21 504.64 1356.7 504.82C1357.2 505 1357.76 505.09 1358.4 505.09ZM1377.86 495.478C1378.96 495.478 1379.96 495.664 1380.89 496.036C1381.81 496.396 1382.61 496.924 1383.28 497.62C1383.95 498.304 1384.48 499.156 1384.85 500.176C1385.23 501.184 1385.42 502.336 1385.42 503.632C1385.42 504.136 1385.37 504.472 1385.26 504.64C1385.15 504.808 1384.95 504.892 1384.65 504.892H1372.52C1372.54 506.044 1372.7 507.046 1372.99 507.898C1373.27 508.75 1373.67 509.464 1374.17 510.04C1374.68 510.604 1375.28 511.03 1375.97 511.318C1376.67 511.594 1377.45 511.732 1378.31 511.732C1379.12 511.732 1379.81 511.642 1380.38 511.462C1380.97 511.27 1381.48 511.066 1381.9 510.85C1382.32 510.634 1382.66 510.436 1382.94 510.256C1383.23 510.064 1383.47 509.968 1383.68 509.968C1383.94 509.968 1384.15 510.07 1384.29 510.274L1385.19 511.444C1384.79 511.924 1384.32 512.344 1383.77 512.704C1383.22 513.052 1382.62 513.34 1381.99 513.568C1381.36 513.796 1380.71 513.964 1380.04 514.072C1379.37 514.192 1378.7 514.252 1378.04 514.252C1376.78 514.252 1375.62 514.042 1374.55 513.622C1373.5 513.19 1372.58 512.566 1371.8 511.75C1371.03 510.922 1370.43 509.902 1370 508.69C1369.57 507.478 1369.35 506.086 1369.35 504.514C1369.35 503.242 1369.54 502.054 1369.93 500.95C1370.32 499.846 1370.89 498.892 1371.62 498.088C1372.35 497.272 1373.24 496.636 1374.3 496.18C1375.36 495.712 1376.54 495.478 1377.86 495.478ZM1377.94 497.836C1376.39 497.836 1375.17 498.286 1374.28 499.186C1373.39 500.074 1372.84 501.31 1372.63 502.894H1382.54C1382.54 502.15 1382.44 501.472 1382.24 500.86C1382.03 500.236 1381.73 499.702 1381.34 499.258C1380.94 498.802 1380.46 498.454 1379.88 498.214C1379.32 497.962 1378.67 497.836 1377.94 497.836ZM1389.52 514V495.766H1391.43C1391.89 495.766 1392.18 495.988 1392.3 496.432L1392.55 498.412C1393.34 497.536 1394.22 496.828 1395.19 496.288C1396.18 495.748 1397.31 495.478 1398.6 495.478C1399.59 495.478 1400.47 495.646 1401.22 495.982C1401.99 496.306 1402.63 496.774 1403.13 497.386C1403.65 497.986 1404.04 498.712 1404.3 499.564C1404.57 500.416 1404.7 501.358 1404.7 502.39V514H1401.49V502.39C1401.49 501.01 1401.18 499.942 1400.54 499.186C1399.92 498.418 1398.96 498.034 1397.66 498.034C1396.71 498.034 1395.82 498.262 1395 498.718C1394.18 499.174 1393.42 499.792 1392.73 500.572V514H1389.52Z" fill="#1F3754"/>
<path d="M1134.09 109.094C1135.8 107.385 1135.8 104.615 1134.09 102.906L1106.25 75.0641C1104.54 73.3555 1101.77 73.3555 1100.06 75.0641C1098.36 76.7726 1098.36 79.5427 1100.06 81.2513L1124.81 106L1100.06 130.749C1098.36 132.457 1098.36 135.227 1100.06 136.936C1101.77 138.644 1104.54 138.644 1106.25 136.936L1134.09 109.094ZM986 110.375H1131V101.625H986V110.375Z" fill="#C4C4C4"/>
</g>
<defs>
<clipPath id="clip0_204_2">
<rect width="1532" height="585" fill="white"/>
</clipPath>
</defs>
</svg>
